<ttFont>
    <TTGlyph name=".notAccess" xMin="11" yMin="0" xMax="542" yMax="533">
      <contour>
        <pt x="274" y="450" on="1"/>
        <pt x="174" y="205" on="1"/>
        <pt x="375" y="205" on="1"/>
      </contour>
      <contour>
        <pt x="464" y="0" on="1"/>
        <pt x="406" y="142" on="1"/>
        <pt x="145" y="142" on="1"/>
        <pt x="87" y="0" on="1"/>
        <pt x="11" y="0" on="1"/>
        <pt x="234" y="533" on="1"/>
        <pt x="316" y="533" on="1"/>
        <pt x="542" y="0" on="1"/>
      </contour>
    </TTGlyph>
    <TTGlyph name=".notdef" xMin="100" yMin="0" xMax="1300" yMax="1800">
      <contour>
        <pt x="150" y="50" on="1"/>
        <pt x="1250" y="50" on="1"/>
        <pt x="1250" y="1750" on="1"/>
        <pt x="150" y="1750" on="1"/>
      </contour>
      <contour>
        <pt x="100" y="1800" on="1"/>
        <pt x="1300" y="1800" on="1"/>
        <pt x="1300" y="0" on="1"/>
        <pt x="100" y="0" on="1"/>
      </contour>
    </TTGlyph>
    <TTGlyph name="A" xMin="-55" yMin="0" xMax="1154" yMax="1317">
      <contour>
        <pt x="371" y="424" on="1"/>
        <pt x="249" y="151" on="1"/>
        <pt x="236" y="120" on="0"/>
        <pt x="294" y="92" on="0"/>
        <pt x="369" y="83" on="1"/>
        <pt x="358" y="0" on="1"/>
        <pt x="-55" y="0" on="1"/>
        <pt x="-44" y="83" on="1"/>
        <pt x="21" y="95" on="0"/>
        <pt x="90" y="121" on="0"/>
        <pt x="103" y="151" on="1"/>
        <pt x="564" y="1197" on="1"/>
        <pt x="593" y="1220" on="0"/>
        <pt x="658" y="1257" on="0"/>
        <pt x="725" y="1287" on="0"/>
        <pt x="791" y="1309" on="0"/>
        <pt x="820" y="1317" on="1"/>
        <pt x="1050" y="151" on="1"/>
        <pt x="1053" y="137" on="0"/>
        <pt x="1064" y="115" on="0"/>
        <pt x="1086" y="99" on="0"/>
        <pt x="1124" y="87" on="0"/>
        <pt x="1154" y="83" on="1"/>
        <pt x="1143" y="0" on="1"/>
        <pt x="657" y="0" on="1"/>
        <pt x="668" y="83" on="1"/>
        <pt x="741" y="88" on="0"/>
        <pt x="796" y="118" on="0"/>
        <pt x="790" y="151" on="1"/>
        <pt x="737" y="424" on="1"/>
      </contour>
      <contour>
        <pt x="712" y="555" on="1"/>
        <pt x="623" y="1003" on="1"/>
        <pt x="429" y="555" on="1"/>
      </contour>
    </TTGlyph>
    <TTGlyph name="AE" xMin="-40" yMin="0" xMax="1585" yMax="1260">
      <contour>
        <pt x="812" y="1107" on="1"/>
        <pt x="813" y="1118" on="0"/>
        <pt x="803" y="1128" on="0"/>
        <pt x="786" y="1125" on="0"/>
        <pt x="765" y="1107" on="0"/>
        <pt x="756" y="1090" on="1"/>
        <pt x="571" y="735" on="1"/>
        <pt x="761" y="735" on="1"/>
      </contour>
      <contour>
        <pt x="1523" y="324" on="1"/>
        <pt x="1513" y="281" on="0"/>
        <pt x="1489" y="180" on="0"/>
        <pt x="1466" y="87" on="0"/>
        <pt x="1447" y="15" on="0"/>
        <pt x="1441" y="0" on="1"/>
        <pt x="538" y="0" on="1"/>
        <pt x="549" y="83" on="1"/>
        <pt x="613" y="97" on="0"/>
        <pt x="678" y="130" on="0"/>
        <pt x="680" y="144" on="1"/>
        <pt x="745" y="615" on="1"/>
        <pt x="512" y="615" on="1"/>
        <pt x="273" y="151" on="1"/>
        <pt x="257" y="122" on="0"/>
        <pt x="293" y="92" on="0"/>
        <pt x="358" y="83" on="1"/>
        <pt x="347" y="0" on="1"/>
        <pt x="-40" y="0" on="1"/>
        <pt x="-29" y="83" on="1"/>
        <pt x="27" y="91" on="0"/>
        <pt x="95" y="122" on="0"/>
        <pt x="111" y="151" on="1"/>
        <pt x="594" y="1093" on="1"/>
        <pt x="603" y="1110" on="0"/>
        <pt x="601" y="1133" on="0"/>
        <pt x="574" y="1152" on="0"/>
        <pt x="519" y="1168" on="0"/>
        <pt x="475" y="1177" on="1"/>
        <pt x="486" y="1260" on="1"/>
        <pt x="1553" y="1260" on="1"/>
        <pt x="1585" y="1225" on="1"/>
        <pt x="1580" y="1199" on="0"/>
        <pt x="1562" y="1115" on="0"/>
        <pt x="1540" y="1027" on="0"/>
        <pt x="1516" y="949" on="0"/>
        <pt x="1507" y="930" on="1"/>
        <pt x="1428" y="930" on="1"/>
        <pt x="1436" y="1023" on="0"/>
        <pt x="1415" y="1129" on="0"/>
        <pt x="1379" y="1129" on="1"/>
        <pt x="1076" y="1129" on="1"/>
        <pt x="1022" y="735" on="1"/>
        <pt x="1389" y="735" on="1"/>
        <pt x="1418" y="697" on="1"/>
        <pt x="1408" y="683" on="0"/>
        <pt x="1381" y="644" on="0"/>
        <pt x="1351" y="604" on="0"/>
        <pt x="1324" y="569" on="0"/>
        <pt x="1314" y="560" on="1"/>
        <pt x="1291" y="589" on="0"/>
        <pt x="1218" y="615" on="0"/>
        <pt x="1180" y="615" on="1"/>
        <pt x="1006" y="615" on="1"/>
        <pt x="948" y="194" on="1"/>
        <pt x="946" y="179" on="0"/>
        <pt x="957" y="156" on="0"/>
        <pt x="996" y="139" on="0"/>
        <pt x="1069" y="130" on="0"/>
        <pt x="1131" y="130" on="1"/>
        <pt x="1209" y="130" on="1"/>
        <pt x="1252" y="130" on="0"/>
        <pt x="1317" y="155" on="0"/>
        <pt x="1372" y="209" on="0"/>
        <pt x="1422" y="293" on="0"/>
        <pt x="1450" y="352" on="1"/>
      </contour>
    </TTGlyph>
    <TTGlyph name="AEacute" xMin="-40" yMin="0" xMax="1585" yMax="1738">
      <component glyphName="AE" x="0" y="0" flags="0x0"/>
      <component glyphName="acutecomb.LP" x="1392" y="320" flags="0x0"/>
    </TTGlyph>
    <TTGlyph name="Aacute" xMin="-55" yMin="0" xMax="1154" yMax="1738">
      <component glyphName="A" x="0" y="0" flags="0x0"/>
      <component glyphName="acutecomb.LP" x="1070" y="320" flags="0x0"/>
    </TTGlyph>
    <TTGlyph name="Abreve" xMin="-55" yMin="0" xMax="1154" yMax="1738">
      <component glyphName="A" x="0" y="0" flags="0x0"/>
      <component glyphName="uni0306" x="1106" y="320" flags="0x0"/>
    </TTGlyph>
    <TTGlyph name="Acircumflex" xMin="-55" yMin="0" xMax="1154" yMax="1712">
      <component glyphName="A" x="0" y="0" flags="0x0"/>
      <component glyphName="uni0302.LP" x="1079" y="320" flags="0x0"/>
    </TTGlyph>
    <TTGlyph name="Adieresis" xMin="-55" yMin="0" xMax="1154" yMax="1663">
      <component glyphName="A" x="0" y="0" flags="0x0"/>
      <component glyphName="uni0308.LP" x="1092" y="320" flags="0x0"/>
    </TTGlyph>
    <TTGlyph name="Agrave" xMin="-55" yMin="0" xMax="1154" yMax="1738">
      <component glyphName="A" x="0" y="0" flags="0x0"/>
      <component glyphName="gravecomb.LP" x="992" y="320" flags="0x0"/>
    </TTGlyph>
    <TTGlyph name="Amacron" xMin="-55" yMin="0" xMax="1193" yMax="1610">
      <component glyphName="A" x="0" y="0" flags="0x0"/>
      <component glyphName="uni0304.LP" x="1082" y="320" flags="0x0"/>
    </TTGlyph>
    <TTGlyph name="Aring" xMin="-55" yMin="0" xMax="1154" yMax="1787">
      <component glyphName="A" x="0" y="0" flags="0x0"/>
      <component glyphName="uni030A" x="1071" y="320" flags="0x0"/>
    </TTGlyph>
    <TTGlyph name="Aringacute" xMin="-55" yMin="0" xMax="1154" yMax="2218">
      <component glyphName="A" x="0" y="0" flags="0x0"/>
      <component glyphName="uni030A" x="1071" y="320" flags="0x0"/>
      <component glyphName="acutecomb.LP" x="1130" y="800" flags="0x0"/>
    </TTGlyph>
    <TTGlyph name="Atilde" xMin="-55" yMin="0" xMax="1154" yMax="1670">
      <component glyphName="A" x="0" y="0" flags="0x0"/>
      <component glyphName="tildecomb.LP" x="1072" y="320" flags="0x0"/>
    </TTGlyph>
    <TTGlyph name="B" xMin="-10" yMin="-31" xMax="1054" yMax="1290">
      <contour>
        <pt x="533" y="1176" on="1"/>
        <pt x="472" y="745" on="1"/>
        <pt x="505" y="745" on="1"/>
        <pt x="552" y="745" on="0"/>
        <pt x="647" y="773" on="0"/>
        <pt x="724" y="832" on="0"/>
        <pt x="772" y="924" on="0"/>
        <pt x="772" y="987" on="1"/>
        <pt x="772" y="1041" on="0"/>
        <pt x="735" y="1113" on="0"/>
        <pt x="677" y="1157" on="0"/>
        <pt x="605" y="1176" on="0"/>
        <pt x="571" y="1176" on="1"/>
      </contour>
      <contour>
        <pt x="558" y="629" on="1"/>
        <pt x="537" y="629" on="0"/>
        <pt x="507" y="627" on="0"/>
        <pt x="484" y="623" on="0"/>
        <pt x="464" y="619" on="0"/>
        <pt x="454" y="616" on="1"/>
        <pt x="388" y="144" on="1"/>
        <pt x="385" y="135" on="0"/>
        <pt x="404" y="121" on="1"/>
        <pt x="436" y="105" on="0"/>
        <pt x="507" y="93" on="0"/>
        <pt x="547" y="93" on="1"/>
        <pt x="604" y="93" on="0"/>
        <pt x="691" y="136" on="0"/>
        <pt x="749" y="211" on="0"/>
        <pt x="778" y="314" on="0"/>
        <pt x="778" y="375" on="1"/>
        <pt x="778" y="425" on="0"/>
        <pt x="757" y="517" on="0"/>
        <pt x="706" y="587" on="0"/>
        <pt x="621" y="629" on="0"/>
      </contour>
      <contour>
        <pt x="1054" y="410" on="1"/>
        <pt x="1054" y="312" on="0"/>
        <pt x="968" y="150" on="0"/>
        <pt x="819" y="34" on="0"/>
        <pt x="617" y="-31" on="0"/>
        <pt x="501" y="-31" on="1"/>
        <pt x="481" y="-31" on="0"/>
        <pt x="420" y="-29" on="0"/>
        <pt x="348" y="-24" on="0"/>
        <pt x="270" y="-19" on="0"/>
        <pt x="233" y="-16" on="1"/>
        <pt x="145" y="-9" on="0"/>
        <pt x="46" y="0" on="1"/>
        <pt x="-10" y="0" on="1"/>
        <pt x="-4" y="83" on="1"/>
        <pt x="59" y="97" on="0"/>
        <pt x="125" y="130" on="0"/>
        <pt x="127" y="144" on="1"/>
        <pt x="269" y="1160" on="1"/>
        <pt x="229" y="1155" on="0"/>
        <pt x="162" y="1142" on="0"/>
        <pt x="131" y="1135" on="1"/>
        <pt x="131" y="1227" on="1"/>
        <pt x="177" y="1240" on="0"/>
        <pt x="289" y="1263" on="0"/>
        <pt x="414" y="1280" on="0"/>
        <pt x="549" y="1290" on="0"/>
        <pt x="618" y="1290" on="1"/>
        <pt x="838" y="1290" on="0"/>
        <pt x="1048" y="1157" on="0"/>
        <pt x="1048" y="1040" on="1"/>
        <pt x="1048" y="935" on="0"/>
        <pt x="918" y="769" on="0"/>
        <pt x="787" y="723" on="1"/>
        <pt x="845" y="716" on="0"/>
        <pt x="944" y="661" on="0"/>
        <pt x="1014" y="577" on="0"/>
        <pt x="1054" y="470" on="0"/>
      </contour>
    </TTGlyph>
    <TTGlyph name="C" xMin="56" yMin="-27" xMax="1098" yMax="1290">
      <contour>
        <pt x="1096" y="1190" on="1"/>
        <pt x="1098" y="1187" on="0"/>
        <pt x="1085" y="1153" on="0"/>
        <pt x="1061" y="1104" on="0"/>
        <pt x="1030" y="1047" on="0"/>
        <pt x="998" y="995" on="0"/>
        <pt x="970" y="954" on="0"/>
        <pt x="961" y="947" on="1"/>
        <pt x="891" y="965" on="1"/>
        <pt x="880" y="1000" on="0"/>
        <pt x="844" y="1066" on="0"/>
        <pt x="793" y="1118" on="0"/>
        <pt x="727" y="1149" on="0"/>
        <pt x="686" y="1149" on="1"/>
        <pt x="646" y="1149" on="0"/>
        <pt x="581" y="1131" on="0"/>
        <pt x="541" y="1100" on="1"/>
        <pt x="478" y="1051" on="0"/>
        <pt x="395" y="903" on="0"/>
        <pt x="347" y="740" on="0"/>
        <pt x="327" y="579" on="0"/>
        <pt x="327" y="516" on="1"/>
        <pt x="327" y="407" on="0"/>
        <pt x="382" y="265" on="0"/>
        <pt x="464" y="181" on="0"/>
        <pt x="561" y="147" on="0"/>
        <pt x="603" y="146" on="1"/>
        <pt x="627" y="146" on="0"/>
        <pt x="691" y="156" on="0"/>
        <pt x="772" y="186" on="0"/>
        <pt x="875" y="241" on="0"/>
        <pt x="938" y="286" on="1"/>
        <pt x="943" y="284" on="0"/>
        <pt x="955" y="262" on="0"/>
        <pt x="966" y="236" on="0"/>
        <pt x="975" y="214" on="0"/>
        <pt x="977" y="211" on="1"/>
        <pt x="909" y="144" on="0"/>
        <pt x="774" y="53" on="0"/>
        <pt x="648" y="-3" on="0"/>
        <pt x="534" y="-27" on="0"/>
        <pt x="487" y="-27" on="1"/>
        <pt x="397" y="-27" on="0"/>
        <pt x="239" y="38" on="0"/>
        <pt x="123" y="162" on="0"/>
        <pt x="56" y="343" on="0"/>
        <pt x="56" y="459" on="1"/>
        <pt x="56" y="553" on="0"/>
        <pt x="96" y="748" on="0"/>
        <pt x="178" y="933" on="0"/>
        <pt x="303" y="1100" on="0"/>
        <pt x="387" y="1167" on="1"/>
        <pt x="423" y="1195" on="0"/>
        <pt x="515" y="1241" on="0"/>
        <pt x="614" y="1273" on="0"/>
        <pt x="716" y="1290" on="0"/>
        <pt x="763" y="1290" on="1"/>
        <pt x="812" y="1290" on="0"/>
        <pt x="912" y="1274" on="0"/>
        <pt x="1002" y="1247" on="0"/>
        <pt x="1074" y="1211" on="0"/>
      </contour>
    </TTGlyph>
    <TTGlyph name="Cacute" xMin="56" yMin="-27" xMax="1098" yMax="1738">
      <component glyphName="C" x="0" y="0" flags="0x0"/>
      <component glyphName="acutecomb.LP" x="1059" y="320" flags="0x0"/>
    </TTGlyph>
    <TTGlyph name="Ccaron" xMin="56" yMin="-27" xMax="1098" yMax="1756">
      <component glyphName="C" x="0" y="0" flags="0x0"/>
      <component glyphName="uni030C.LP" x="1073" y="320" flags="0x0"/>
    </TTGlyph>
    <TTGlyph name="Ccedilla" xMin="56" yMin="-415" xMax="1098" yMax="1290">
      <contour>
        <pt x="653" y="-221" on="1"/>
        <pt x="653" y="-256" on="0"/>
        <pt x="621" y="-320" on="0"/>
        <pt x="564" y="-370" on="0"/>
        <pt x="487" y="-404" on="0"/>
        <pt x="395" y="-415" on="0"/>
        <pt x="292" y="-399" on="0"/>
        <pt x="239" y="-375" on="1"/>
        <pt x="237" y="-296" on="1"/>
        <pt x="275" y="-311" on="0"/>
        <pt x="341" y="-316" on="0"/>
        <pt x="389" y="-303" on="0"/>
        <pt x="416" y="-276" on="0"/>
        <pt x="416" y="-258" on="1"/>
        <pt x="416" y="-239" on="0"/>
        <pt x="377" y="-213" on="0"/>
        <pt x="353" y="-215" on="1"/>
        <pt x="385" y="-154" on="0"/>
        <pt x="405" y="-103" on="1"/>
        <pt x="420" y="-65" on="0"/>
        <pt x="430" y="-23" on="1"/>
        <pt x="372" y="-16" on="0"/>
        <pt x="318" y="5" on="1"/>
        <pt x="239" y="38" on="0"/>
        <pt x="123" y="162" on="0"/>
        <pt x="56" y="343" on="0"/>
        <pt x="56" y="459" on="1"/>
        <pt x="56" y="553" on="0"/>
        <pt x="96" y="748" on="0"/>
        <pt x="178" y="933" on="0"/>
        <pt x="303" y="1100" on="0"/>
        <pt x="387" y="1167" on="1"/>
        <pt x="423" y="1195" on="0"/>
        <pt x="515" y="1241" on="0"/>
        <pt x="614" y="1273" on="0"/>
        <pt x="716" y="1290" on="0"/>
        <pt x="763" y="1290" on="1"/>
        <pt x="812" y="1290" on="0"/>
        <pt x="912" y="1274" on="0"/>
        <pt x="1002" y="1247" on="0"/>
        <pt x="1074" y="1211" on="0"/>
        <pt x="1096" y="1190" on="1"/>
        <pt x="1098" y="1187" on="0"/>
        <pt x="1085" y="1153" on="0"/>
        <pt x="1061" y="1104" on="0"/>
        <pt x="1030" y="1047" on="0"/>
        <pt x="998" y="995" on="0"/>
        <pt x="970" y="954" on="0"/>
        <pt x="961" y="947" on="1"/>
        <pt x="891" y="965" on="1"/>
        <pt x="880" y="1000" on="0"/>
        <pt x="844" y="1066" on="0"/>
        <pt x="793" y="1118" on="0"/>
        <pt x="727" y="1149" on="0"/>
        <pt x="686" y="1149" on="1"/>
        <pt x="646" y="1149" on="0"/>
        <pt x="581" y="1131" on="0"/>
        <pt x="541" y="1100" on="1"/>
        <pt x="478" y="1051" on="0"/>
        <pt x="395" y="903" on="0"/>
        <pt x="347" y="740" on="0"/>
        <pt x="327" y="579" on="0"/>
        <pt x="327" y="516" on="1"/>
        <pt x="327" y="407" on="0"/>
        <pt x="382" y="265" on="0"/>
        <pt x="464" y="181" on="0"/>
        <pt x="561" y="147" on="0"/>
        <pt x="603" y="146" on="1"/>
        <pt x="627" y="146" on="0"/>
        <pt x="691" y="156" on="0"/>
        <pt x="772" y="186" on="0"/>
        <pt x="875" y="241" on="0"/>
        <pt x="938" y="286" on="1"/>
        <pt x="943" y="284" on="0"/>
        <pt x="955" y="262" on="0"/>
        <pt x="966" y="236" on="0"/>
        <pt x="975" y="214" on="0"/>
        <pt x="977" y="211" on="1"/>
        <pt x="909" y="144" on="0"/>
        <pt x="774" y="53" on="0"/>
        <pt x="648" y="-3" on="0"/>
        <pt x="591" y="-15" on="1"/>
        <pt x="565" y="-20" on="0"/>
        <pt x="541" y="-23" on="1"/>
        <pt x="541" y="-24" on="1"/>
        <pt x="539" y="-38" on="0"/>
        <pt x="533" y="-65" on="0"/>
        <pt x="527" y="-87" on="0"/>
        <pt x="525" y="-93" on="1"/>
        <pt x="558" y="-94" on="0"/>
        <pt x="606" y="-116" on="0"/>
        <pt x="638" y="-151" on="0"/>
        <pt x="653" y="-197" on="0"/>
      </contour>
    </TTGlyph>
    <TTGlyph name="Ccircumflex" xMin="56" yMin="-27" xMax="1098" yMax="1712">
      <component glyphName="C" x="0" y="0" flags="0x0"/>
      <component glyphName="uni0302.LP" x="1068" y="320" flags="0x0"/>
    </TTGlyph>
    <TTGlyph name="Cdotaccent" xMin="56" yMin="-27" xMax="1098" yMax="1663">
      <component glyphName="C" x="0" y="0" flags="0x0"/>
      <component glyphName="uni0307.LP" x="1062" y="320" flags="0x0"/>
    </TTGlyph>
    <TTGlyph name="D" xMin="-10" yMin="0" xMax="1217" yMax="1290">
      <contour>
        <pt x="594" y="1176" on="1"/>
        <pt x="579" y="1176" on="0"/>
        <pt x="549" y="1172" on="0"/>
        <pt x="534" y="1171" on="1"/>
        <pt x="399" y="169" on="1"/>
        <pt x="395" y="140" on="0"/>
        <pt x="447" y="114" on="0"/>
        <pt x="515" y="114" on="1"/>
        <pt x="582" y="114" on="0"/>
        <pt x="697" y="166" on="0"/>
        <pt x="791" y="255" on="0"/>
        <pt x="862" y="375" on="0"/>
        <pt x="910" y="511" on="0"/>
        <pt x="935" y="657" on="0"/>
        <pt x="935" y="727" on="1"/>
        <pt x="935" y="834" on="0"/>
        <pt x="899" y="1001" on="0"/>
        <pt x="818" y="1116" on="0"/>
        <pt x="688" y="1176" on="0"/>
      </contour>
      <contour>
        <pt x="1217" y="755" on="1"/>
        <pt x="1217" y="667" on="0"/>
        <pt x="1173" y="487" on="0"/>
        <pt x="1088" y="319" on="0"/>
        <pt x="967" y="172" on="0"/>
        <pt x="812" y="63" on="0"/>
        <pt x="627" y="0" on="0"/>
        <pt x="521" y="0" on="1"/>
        <pt x="-10" y="0" on="1"/>
        <pt x="0" y="83" on="1"/>
        <pt x="63" y="97" on="0"/>
        <pt x="129" y="130" on="0"/>
        <pt x="131" y="144" on="1"/>
        <pt x="270" y="1148" on="1"/>
        <pt x="133" y="1126" on="1"/>
        <pt x="133" y="1229" on="1"/>
        <pt x="190" y="1243" on="0"/>
        <pt x="320" y="1265" on="0"/>
        <pt x="450" y="1281" on="0"/>
        <pt x="575" y="1290" on="0"/>
        <pt x="626" y="1290" on="1"/>
        <pt x="781" y="1290" on="0"/>
        <pt x="1004" y="1216" on="0"/>
        <pt x="1148" y="1077" on="0"/>
        <pt x="1217" y="879" on="0"/>
      </contour>
    </TTGlyph>
    <TTGlyph name="Dcaron" xMin="-10" yMin="0" xMax="1217" yMax="1756">
      <component glyphName="D" x="0" y="0" flags="0x0"/>
      <component glyphName="uni030C.LP" x="1081" y="320" flags="0x0"/>
    </TTGlyph>
    <TTGlyph name="Dcroat" xMin="-10" yMin="0" xMax="1217" yMax="1290">
      <contour>
        <pt x="594" y="1176" on="1"/>
        <pt x="579" y="1176" on="0"/>
        <pt x="549" y="1172" on="0"/>
        <pt x="534" y="1171" on="1"/>
        <pt x="474" y="725" on="1"/>
        <pt x="713" y="725" on="1"/>
        <pt x="742" y="690" on="1"/>
        <pt x="686" y="595" on="1"/>
        <pt x="456" y="595" on="1"/>
        <pt x="399" y="169" on="1"/>
        <pt x="395" y="140" on="0"/>
        <pt x="447" y="114" on="0"/>
        <pt x="515" y="114" on="1"/>
        <pt x="582" y="114" on="0"/>
        <pt x="697" y="166" on="0"/>
        <pt x="791" y="255" on="0"/>
        <pt x="862" y="375" on="0"/>
        <pt x="910" y="511" on="0"/>
        <pt x="935" y="657" on="0"/>
        <pt x="935" y="727" on="1"/>
        <pt x="935" y="834" on="0"/>
        <pt x="899" y="1001" on="0"/>
        <pt x="818" y="1116" on="0"/>
        <pt x="688" y="1176" on="0"/>
      </contour>
      <contour>
        <pt x="1217" y="755" on="1"/>
        <pt x="1217" y="667" on="0"/>
        <pt x="1173" y="487" on="0"/>
        <pt x="1088" y="319" on="0"/>
        <pt x="967" y="172" on="0"/>
        <pt x="812" y="63" on="0"/>
        <pt x="627" y="0" on="0"/>
        <pt x="521" y="0" on="1"/>
        <pt x="-10" y="0" on="1"/>
        <pt x="0" y="83" on="1"/>
        <pt x="63" y="97" on="0"/>
        <pt x="129" y="130" on="0"/>
        <pt x="131" y="144" on="1"/>
        <pt x="193" y="595" on="1"/>
        <pt x="82" y="595" on="1"/>
        <pt x="53" y="627" on="1"/>
        <pt x="56" y="635" on="0"/>
        <pt x="71" y="662" on="0"/>
        <pt x="88" y="690" on="0"/>
        <pt x="104" y="717" on="0"/>
        <pt x="109" y="725" on="1"/>
        <pt x="211" y="725" on="1"/>
        <pt x="270" y="1148" on="1"/>
        <pt x="133" y="1126" on="1"/>
        <pt x="133" y="1229" on="1"/>
        <pt x="190" y="1243" on="0"/>
        <pt x="320" y="1265" on="0"/>
        <pt x="450" y="1281" on="0"/>
        <pt x="575" y="1290" on="0"/>
        <pt x="626" y="1290" on="1"/>
        <pt x="781" y="1290" on="0"/>
        <pt x="1004" y="1216" on="0"/>
        <pt x="1148" y="1077" on="0"/>
        <pt x="1217" y="879" on="0"/>
      </contour>
    </TTGlyph>
    <TTGlyph name="Delta" xMin="3" yMin="0" xMax="1061" yMax="1317">
      <contour>
        <pt x="772" y="206" on="1"/>
        <pt x="741" y="349" on="0"/>
        <pt x="709" y="491" on="1"/>
        <pt x="695" y="551" on="0"/>
        <pt x="666" y="683" on="0"/>
        <pt x="637" y="816" on="0"/>
        <pt x="609" y="944" on="0"/>
        <pt x="597" y="1001" on="1"/>
        <pt x="567" y="938" on="0"/>
        <pt x="503" y="802" on="0"/>
        <pt x="440" y="666" on="0"/>
        <pt x="378" y="535" on="0"/>
        <pt x="351" y="477" on="1"/>
        <pt x="287" y="339" on="0"/>
        <pt x="225" y="206" on="1"/>
        <pt x="216" y="187" on="0"/>
        <pt x="210" y="166" on="0"/>
        <pt x="226" y="155" on="0"/>
        <pt x="272" y="153" on="0"/>
        <pt x="315" y="153" on="1"/>
        <pt x="664" y="153" on="1"/>
        <pt x="708" y="153" on="0"/>
        <pt x="756" y="155" on="0"/>
        <pt x="776" y="166" on="0"/>
        <pt x="775" y="187" on="0"/>
      </contour>
      <contour>
        <pt x="1025" y="0" on="1"/>
        <pt x="18" y="0" on="1"/>
        <pt x="3" y="61" on="1"/>
        <pt x="110" y="287" on="0"/>
        <pt x="210" y="499" on="1"/>
        <pt x="253" y="589" on="0"/>
        <pt x="343" y="781" on="0"/>
        <pt x="430" y="965" on="0"/>
        <pt x="508" y="1132" on="0"/>
        <pt x="538" y="1197" on="1"/>
        <pt x="597" y="1234" on="0"/>
        <pt x="719" y="1291" on="0"/>
        <pt x="785" y="1317" on="1"/>
        <pt x="801" y="1242" on="0"/>
        <pt x="841" y="1055" on="0"/>
        <pt x="886" y="851" on="0"/>
        <pt x="933" y="639" on="0"/>
        <pt x="955" y="540" on="1"/>
        <pt x="1006" y="308" on="0"/>
        <pt x="1061" y="61" on="1"/>
      </contour>
    </TTGlyph>
    <TTGlyph name="E" xMin="-10" yMin="0" xMax="1040" yMax="1260">
      <contour>
        <pt x="977" y="324" on="1"/>
        <pt x="968" y="281" on="0"/>
        <pt x="944" y="180" on="0"/>
        <pt x="921" y="87" on="0"/>
        <pt x="901" y="15" on="0"/>
        <pt x="895" y="0" on="1"/>
        <pt x="-10" y="0" on="1"/>
        <pt x="1" y="83" on="1"/>
        <pt x="66" y="97" on="0"/>
        <pt x="133" y="130" on="0"/>
        <pt x="135" y="144" on="1"/>
        <pt x="268" y="1115" on="1"/>
        <pt x="270" y="1127" on="0"/>
        <pt x="216" y="1163" on="0"/>
        <pt x="151" y="1177" on="1"/>
        <pt x="162" y="1260" on="1"/>
        <pt x="1005" y="1260" on="1"/>
        <pt x="1040" y="1225" on="1"/>
        <pt x="1035" y="1199" on="0"/>
        <pt x="1016" y="1115" on="0"/>
        <pt x="993" y="1027" on="0"/>
        <pt x="970" y="949" on="0"/>
        <pt x="962" y="930" on="1"/>
        <pt x="883" y="930" on="1"/>
        <pt x="891" y="1023" on="0"/>
        <pt x="868" y="1130" on="0"/>
        <pt x="833" y="1130" on="1"/>
        <pt x="530" y="1130" on="1"/>
        <pt x="476" y="735" on="1"/>
        <pt x="843" y="735" on="1"/>
        <pt x="872" y="697" on="1"/>
        <pt x="863" y="683" on="0"/>
        <pt x="836" y="643" on="0"/>
        <pt x="807" y="602" on="0"/>
        <pt x="778" y="568" on="0"/>
        <pt x="767" y="560" on="1"/>
        <pt x="755" y="575" on="0"/>
        <pt x="726" y="595" on="0"/>
        <pt x="686" y="609" on="0"/>
        <pt x="630" y="615" on="0"/>
        <pt x="591" y="615" on="1"/>
        <pt x="459" y="615" on="1"/>
        <pt x="402" y="194" on="1"/>
        <pt x="400" y="179" on="0"/>
        <pt x="410" y="156" on="0"/>
        <pt x="448" y="139" on="0"/>
        <pt x="521" y="130" on="0"/>
        <pt x="583" y="130" on="1"/>
        <pt x="666" y="130" on="1"/>
        <pt x="709" y="130" on="0"/>
        <pt x="773" y="155" on="0"/>
        <pt x="827" y="209" on="0"/>
        <pt x="876" y="293" on="0"/>
        <pt x="904" y="352" on="1"/>
      </contour>
    </TTGlyph>
    <TTGlyph name="Eacute" xMin="-10" yMin="0" xMax="1040" yMax="1738">
      <component glyphName="E" x="0" y="0" flags="0x0"/>
      <component glyphName="acutecomb.LP" x="981" y="320" flags="0x0"/>
    </TTGlyph>
    <TTGlyph name="Ebreve" xMin="-10" yMin="0" xMax="1040" yMax="1738">
      <component glyphName="E" x="0" y="0" flags="0x0"/>
      <component glyphName="uni0306" x="1017" y="320" flags="0x0"/>
    </TTGlyph>
    <TTGlyph name="Ecaron" xMin="-10" yMin="0" xMax="1040" yMax="1756">
      <component glyphName="E" x="0" y="0" flags="0x0"/>
      <component glyphName="uni030C.LP" x="995" y="320" flags="0x0"/>
    </TTGlyph>
    <TTGlyph name="Ecircumflex" xMin="-10" yMin="0" xMax="1040" yMax="1712">
      <component glyphName="E" x="0" y="0" flags="0x0"/>
      <component glyphName="uni0302.LP" x="990" y="320" flags="0x0"/>
    </TTGlyph>
    <TTGlyph name="Edieresis" xMin="-10" yMin="0" xMax="1040" yMax="1663">
      <component glyphName="E" x="0" y="0" flags="0x0"/>
      <component glyphName="uni0308.LP" x="1003" y="320" flags="0x0"/>
    </TTGlyph>
    <TTGlyph name="Edotaccent" xMin="-10" yMin="0" xMax="1040" yMax="1663">
      <component glyphName="E" x="0" y="0" flags="0x0"/>
      <component glyphName="uni0307.LP" x="984" y="320" flags="0x0"/>
    </TTGlyph>
    <TTGlyph name="Egrave" xMin="-10" yMin="0" xMax="1040" yMax="1738">
      <component glyphName="E" x="0" y="0" flags="0x0"/>
      <component glyphName="gravecomb.LP" x="903" y="320" flags="0x0"/>
    </TTGlyph>
    <TTGlyph name="Emacron" xMin="-10" yMin="0" xMax="1104" yMax="1610">
      <component glyphName="E" x="0" y="0" flags="0x0"/>
      <component glyphName="uni0304.LP" x="993" y="320" flags="0x0"/>
    </TTGlyph>
    <TTGlyph name="Eng" xMin="0" yMin="-454" xMax="1226" yMax="1290">
      <contour>
        <pt x="1226" y="1042" on="1"/>
        <pt x="1226" y="995" on="0"/>
        <pt x="1220" y="950" on="1"/>
        <pt x="1121" y="247" on="1"/>
        <pt x="1107" y="146" on="0"/>
        <pt x="1032" y="-36" on="0"/>
        <pt x="929" y="-189" on="0"/>
        <pt x="807" y="-310" on="0"/>
        <pt x="745" y="-352" on="1"/>
        <pt x="719" y="-369" on="0"/>
        <pt x="652" y="-405" on="0"/>
        <pt x="575" y="-435" on="0"/>
        <pt x="494" y="-454" on="0"/>
        <pt x="454" y="-454" on="1"/>
        <pt x="410" y="-454" on="0"/>
        <pt x="313" y="-425" on="0"/>
        <pt x="232" y="-384" on="0"/>
        <pt x="179" y="-341" on="0"/>
        <pt x="179" y="-326" on="1"/>
        <pt x="179" y="-319" on="0"/>
        <pt x="203" y="-286" on="0"/>
        <pt x="240" y="-243" on="0"/>
        <pt x="285" y="-197" on="0"/>
        <pt x="329" y="-160" on="0"/>
        <pt x="367" y="-135" on="0"/>
        <pt x="378" y="-135" on="1"/>
        <pt x="388" y="-135" on="0"/>
        <pt x="416" y="-155" on="0"/>
        <pt x="451" y="-184" on="0"/>
        <pt x="492" y="-219" on="0"/>
        <pt x="539" y="-248" on="0"/>
        <pt x="590" y="-268" on="0"/>
        <pt x="618" y="-268" on="1"/>
        <pt x="654" y="-268" on="0"/>
        <pt x="727" y="-216" on="0"/>
        <pt x="792" y="-110" on="0"/>
        <pt x="843" y="51" on="0"/>
        <pt x="858" y="160" on="1"/>
        <pt x="950" y="842" on="1"/>
        <pt x="952" y="857" on="0"/>
        <pt x="954" y="876" on="1"/>
        <pt x="959" y="915" on="1"/>
        <pt x="962" y="935" on="0"/>
        <pt x="965" y="967" on="0"/>
        <pt x="965" y="975" on="1"/>
        <pt x="965" y="1031" on="0"/>
        <pt x="910" y="1081" on="0"/>
        <pt x="858" y="1081" on="1"/>
        <pt x="830" y="1081" on="0"/>
        <pt x="755" y="1052" on="0"/>
        <pt x="674" y="1001" on="0"/>
        <pt x="594" y="930" on="0"/>
        <pt x="527" y="844" on="0"/>
        <pt x="480" y="747" on="0"/>
        <pt x="473" y="696" on="1"/>
        <pt x="397" y="144" on="1"/>
        <pt x="395" y="132" on="0"/>
        <pt x="457" y="97" on="0"/>
        <pt x="520" y="83" on="1"/>
        <pt x="510" y="0" on="1"/>
        <pt x="0" y="0" on="1"/>
        <pt x="10" y="83" on="1"/>
        <pt x="73" y="97" on="0"/>
        <pt x="139" y="130" on="0"/>
        <pt x="141" y="144" on="1"/>
        <pt x="255" y="958" on="1"/>
        <pt x="263" y="1016" on="0"/>
        <pt x="264" y="1079" on="0"/>
        <pt x="236" y="1100" on="0"/>
        <pt x="173" y="1088" on="0"/>
        <pt x="116" y="1073" on="1"/>
        <pt x="99" y="1168" on="1"/>
        <pt x="151" y="1187" on="0"/>
        <pt x="269" y="1230" on="0"/>
        <pt x="376" y="1266" on="0"/>
        <pt x="462" y="1290" on="0"/>
        <pt x="483" y="1290" on="1"/>
        <pt x="508" y="1290" on="0"/>
        <pt x="534" y="1244" on="0"/>
        <pt x="534" y="1184" on="1"/>
        <pt x="534" y="1150" on="0"/>
        <pt x="520" y="1063" on="0"/>
        <pt x="512" y="1012" on="1"/>
        <pt x="573" y="1081" on="0"/>
        <pt x="704" y="1185" on="0"/>
        <pt x="833" y="1255" on="0"/>
        <pt x="953" y="1290" on="0"/>
        <pt x="1001" y="1290" on="1"/>
        <pt x="1035" y="1290" on="0"/>
        <pt x="1113" y="1267" on="0"/>
        <pt x="1181" y="1210" on="0"/>
        <pt x="1226" y="1114" on="0"/>
      </contour>
    </TTGlyph>
    <TTGlyph name="Eng.BaselineHook" xMin="0" yMin="-30" xMax="1264" yMax="1290">
      <contour>
        <pt x="0" y="0" on="1"/>
        <pt x="10" y="83" on="1"/>
        <pt x="73" y="97" on="0"/>
        <pt x="139" y="130" on="0"/>
        <pt x="141" y="144" on="1"/>
        <pt x="255" y="958" on="1"/>
        <pt x="261" y="1000" on="0"/>
        <pt x="265" y="1054" on="0"/>
        <pt x="258" y="1084" on="0"/>
        <pt x="238" y="1096" on="0"/>
        <pt x="220" y="1096" on="1"/>
        <pt x="205" y="1096" on="0"/>
        <pt x="150" y="1082" on="0"/>
        <pt x="116" y="1073" on="1"/>
        <pt x="99" y="1168" on="1"/>
        <pt x="151" y="1187" on="0"/>
        <pt x="269" y="1230" on="0"/>
        <pt x="376" y="1266" on="0"/>
        <pt x="462" y="1290" on="0"/>
        <pt x="483" y="1290" on="1"/>
        <pt x="508" y="1290" on="0"/>
        <pt x="534" y="1248" on="0"/>
        <pt x="534" y="1194" on="1"/>
        <pt x="534" y="1181" on="0"/>
        <pt x="529" y="1133" on="0"/>
        <pt x="521" y="1077" on="0"/>
        <pt x="512" y="1019" on="0"/>
        <pt x="508" y="996" on="1"/>
        <pt x="569" y="1065" on="0"/>
        <pt x="714" y="1174" on="0"/>
        <pt x="860" y="1250" on="0"/>
        <pt x="993" y="1290" on="0"/>
        <pt x="1041" y="1290" on="1"/>
        <pt x="1075" y="1290" on="0"/>
        <pt x="1153" y="1267" on="0"/>
        <pt x="1220" y="1210" on="0"/>
        <pt x="1264" y="1114" on="0"/>
        <pt x="1264" y="1042" on="1"/>
        <pt x="1264" y="1022" on="0"/>
        <pt x="1262" y="976" on="0"/>
        <pt x="1258" y="950" on="1"/>
        <pt x="1191" y="469" on="1"/>
        <pt x="1184" y="421" on="0"/>
        <pt x="1152" y="320" on="0"/>
        <pt x="1100" y="221" on="0"/>
        <pt x="1026" y="125" on="0"/>
        <pt x="977" y="82" on="1"/>
        <pt x="954" y="62" on="0"/>
        <pt x="900" y="22" on="0"/>
        <pt x="837" y="-10" on="0"/>
        <pt x="766" y="-30" on="0"/>
        <pt x="726" y="-30" on="1"/>
        <pt x="682" y="-30" on="0"/>
        <pt x="607" y="7" on="0"/>
        <pt x="552" y="62" on="0"/>
        <pt x="521" y="128" on="0"/>
        <pt x="521" y="158" on="1"/>
        <pt x="521" y="165" on="0"/>
        <pt x="547" y="191" on="0"/>
        <pt x="589" y="222" on="0"/>
        <pt x="640" y="255" on="0"/>
        <pt x="688" y="282" on="0"/>
        <pt x="729" y="299" on="0"/>
        <pt x="740" y="299" on="1"/>
        <pt x="746" y="299" on="0"/>
        <pt x="755" y="275" on="0"/>
        <pt x="765" y="239" on="0"/>
        <pt x="777" y="196" on="0"/>
        <pt x="793" y="160" on="0"/>
        <pt x="815" y="136" on="0"/>
        <pt x="830" y="136" on="1"/>
        <pt x="866" y="136" on="0"/>
        <pt x="907" y="268" on="0"/>
        <pt x="926" y="417" on="1"/>
        <pt x="985" y="842" on="1"/>
        <pt x="990" y="880" on="0"/>
        <pt x="1000" y="946" on="0"/>
        <pt x="1000" y="975" on="1"/>
        <pt x="1000" y="1031" on="0"/>
        <pt x="950" y="1081" on="0"/>
        <pt x="898" y="1081" on="1"/>
        <pt x="870" y="1081" on="0"/>
        <pt x="789" y="1052" on="0"/>
        <pt x="699" y="1001" on="0"/>
        <pt x="609" y="930" on="0"/>
        <pt x="533" y="844" on="0"/>
        <pt x="480" y="747" on="0"/>
        <pt x="473" y="696" on="1"/>
        <pt x="397" y="144" on="1"/>
        <pt x="395" y="134" on="0"/>
        <pt x="410" y="114" on="0"/>
        <pt x="433" y="96" on="0"/>
        <pt x="460" y="84" on="0"/>
        <pt x="470" y="83" on="1"/>
        <pt x="460" y="0" on="1"/>
      </contour>
    </TTGlyph>
    <TTGlyph name="Eng.Kom" xMin="45" yMin="-30" xMax="1226" yMax="1290">
      <contour>
        <pt x="45" y="500" on="1"/>
        <pt x="55" y="583" on="1"/>
        <pt x="124" y="597" on="0"/>
        <pt x="206" y="630" on="0"/>
        <pt x="208" y="644" on="1"/>
        <pt x="254" y="957" on="1"/>
        <pt x="261" y="1014" on="0"/>
        <pt x="266" y="1077" on="0"/>
        <pt x="241" y="1101" on="0"/>
        <pt x="176" y="1090" on="0"/>
        <pt x="114" y="1072" on="1"/>
        <pt x="99" y="1168" on="1"/>
        <pt x="149" y="1186" on="0"/>
        <pt x="269" y="1229" on="0"/>
        <pt x="379" y="1266" on="0"/>
        <pt x="466" y="1290" on="0"/>
        <pt x="483" y="1290" on="1"/>
        <pt x="498" y="1290" on="0"/>
        <pt x="518" y="1274" on="0"/>
        <pt x="528" y="1245" on="0"/>
        <pt x="532" y="1207" on="0"/>
        <pt x="532" y="1185" on="1"/>
        <pt x="532" y="1157" on="0"/>
        <pt x="527" y="1119" on="0"/>
        <pt x="521" y="1084" on="0"/>
        <pt x="514" y="1045" on="0"/>
        <pt x="511" y="1018" on="1"/>
        <pt x="643" y="1155" on="0"/>
        <pt x="889" y="1290" on="0"/>
        <pt x="997" y="1290" on="1"/>
        <pt x="1040" y="1290" on="0"/>
        <pt x="1122" y="1261" on="0"/>
        <pt x="1186" y="1200" on="0"/>
        <pt x="1226" y="1105" on="0"/>
        <pt x="1226" y="1040" on="1"/>
        <pt x="1226" y="1024" on="0"/>
        <pt x="1225" y="986" on="0"/>
        <pt x="1223" y="971" on="1"/>
        <pt x="1171" y="587" on="1"/>
        <pt x="1159" y="499" on="0"/>
        <pt x="1099" y="348" on="0"/>
        <pt x="1017" y="223" on="0"/>
        <pt x="920" y="125" on="0"/>
        <pt x="871" y="90" on="1"/>
        <pt x="833" y="63" on="0"/>
        <pt x="758" y="19" on="0"/>
        <pt x="676" y="-12" on="0"/>
        <pt x="584" y="-30" on="0"/>
        <pt x="530" y="-30" on="1"/>
        <pt x="449" y="-30" on="0"/>
        <pt x="313" y="9" on="0"/>
        <pt x="215" y="63" on="0"/>
        <pt x="161" y="119" on="0"/>
        <pt x="161" y="135" on="1"/>
        <pt x="161" y="146" on="0"/>
        <pt x="188" y="184" on="0"/>
        <pt x="229" y="230" on="0"/>
        <pt x="281" y="277" on="0"/>
        <pt x="330" y="316" on="0"/>
        <pt x="372" y="340" on="0"/>
        <pt x="383" y="340" on="1"/>
        <pt x="389" y="340" on="0"/>
        <pt x="411" y="308" on="0"/>
        <pt x="443" y="261" on="0"/>
        <pt x="487" y="205" on="0"/>
        <pt x="543" y="158" on="0"/>
        <pt x="611" y="126" on="0"/>
        <pt x="652" y="126" on="1"/>
        <pt x="752" y="126" on="0"/>
        <pt x="878" y="315" on="0"/>
        <pt x="906" y="514" on="1"/>
        <pt x="945" y="802" on="1"/>
        <pt x="946" y="813" on="0"/>
        <pt x="953" y="865" on="0"/>
        <pt x="959" y="921" on="0"/>
        <pt x="964" y="969" on="0"/>
        <pt x="964" y="976" on="1"/>
        <pt x="964" y="995" on="0"/>
        <pt x="953" y="1033" on="0"/>
        <pt x="927" y="1063" on="0"/>
        <pt x="886" y="1081" on="0"/>
        <pt x="856" y="1081" on="1"/>
        <pt x="825" y="1081" on="0"/>
        <pt x="748" y="1049" on="0"/>
        <pt x="667" y="994" on="0"/>
        <pt x="588" y="920" on="0"/>
        <pt x="523" y="833" on="0"/>
        <pt x="478" y="739" on="0"/>
        <pt x="471" y="692" on="1"/>
        <pt x="464" y="644" on="1"/>
        <pt x="464" y="643" on="1"/>
        <pt x="464" y="631" on="0"/>
        <pt x="536" y="597" on="0"/>
        <pt x="606" y="583" on="1"/>
        <pt x="596" y="500" on="1"/>
      </contour>
    </TTGlyph>
    <TTGlyph name="Eng.UCStyle" xMin="-3" yMin="-401" xMax="1369" yMax="1260">
      <contour>
        <pt x="1358" y="1177" on="1"/>
        <pt x="1289" y="1167" on="0"/>
        <pt x="1225" y="1129" on="0"/>
        <pt x="1223" y="1115" on="1"/>
        <pt x="1098" y="205" on="1"/>
        <pt x="1083" y="95" on="0"/>
        <pt x="1036" y="-68" on="0"/>
        <pt x="976" y="-190" on="0"/>
        <pt x="904" y="-277" on="0"/>
        <pt x="863" y="-309" on="1"/>
        <pt x="809" y="-352" on="0"/>
        <pt x="687" y="-401" on="0"/>
        <pt x="618" y="-401" on="1"/>
        <pt x="578" y="-401" on="0"/>
        <pt x="500" y="-379" on="0"/>
        <pt x="438" y="-348" on="0"/>
        <pt x="399" y="-313" on="0"/>
        <pt x="399" y="-301" on="1"/>
        <pt x="399" y="-294" on="0"/>
        <pt x="423" y="-261" on="0"/>
        <pt x="460" y="-221" on="0"/>
        <pt x="505" y="-179" on="0"/>
        <pt x="547" y="-144" on="0"/>
        <pt x="582" y="-121" on="0"/>
        <pt x="590" y="-121" on="1"/>
        <pt x="600" y="-121" on="0"/>
        <pt x="633" y="-151" on="0"/>
        <pt x="678" y="-188" on="0"/>
        <pt x="732" y="-218" on="0"/>
        <pt x="763" y="-218" on="1"/>
        <pt x="783" y="-218" on="0"/>
        <pt x="824" y="-203" on="0"/>
        <pt x="864" y="-157" on="0"/>
        <pt x="901" y="-69" on="0"/>
        <pt x="917" y="5" on="1"/>
        <pt x="882" y="21" on="0"/>
        <pt x="838" y="65" on="0"/>
        <pt x="824" y="91" on="1"/>
        <pt x="394" y="895" on="1"/>
        <pt x="291" y="144" on="1"/>
        <pt x="290" y="138" on="0"/>
        <pt x="300" y="121" on="0"/>
        <pt x="327" y="104" on="0"/>
        <pt x="373" y="88" on="0"/>
        <pt x="408" y="83" on="1"/>
        <pt x="397" y="0" on="1"/>
        <pt x="-3" y="0" on="1"/>
        <pt x="8" y="83" on="1"/>
        <pt x="78" y="92" on="0"/>
        <pt x="140" y="130" on="0"/>
        <pt x="142" y="144" on="1"/>
        <pt x="273" y="1102" on="1"/>
        <pt x="247" y="1132" on="0"/>
        <pt x="189" y="1172" on="0"/>
        <pt x="158" y="1177" on="1"/>
        <pt x="169" y="1260" on="1"/>
        <pt x="450" y="1260" on="1"/>
        <pt x="463" y="1260" on="0"/>
        <pt x="481" y="1255" on="0"/>
        <pt x="497" y="1239" on="0"/>
        <pt x="514" y="1208" on="0"/>
        <pt x="528" y="1182" on="1"/>
        <pt x="970" y="353" on="1"/>
        <pt x="1075" y="1115" on="1"/>
        <pt x="1076" y="1121" on="0"/>
        <pt x="1067" y="1138" on="0"/>
        <pt x="1041" y="1155" on="0"/>
        <pt x="995" y="1171" on="0"/>
        <pt x="958" y="1177" on="1"/>
        <pt x="969" y="1260" on="1"/>
        <pt x="1369" y="1260" on="1"/>
      </contour>
    </TTGlyph>
    <TTGlyph name="Eth" xMin="-10" yMin="0" xMax="1217" yMax="1290">
      <contour>
        <pt x="594" y="1176" on="1"/>
        <pt x="579" y="1176" on="0"/>
        <pt x="549" y="1172" on="0"/>
        <pt x="534" y="1171" on="1"/>
        <pt x="474" y="725" on="1"/>
        <pt x="713" y="725" on="1"/>
        <pt x="742" y="690" on="1"/>
        <pt x="686" y="595" on="1"/>
        <pt x="456" y="595" on="1"/>
        <pt x="399" y="169" on="1"/>
        <pt x="395" y="140" on="0"/>
        <pt x="447" y="114" on="0"/>
        <pt x="515" y="114" on="1"/>
        <pt x="582" y="114" on="0"/>
        <pt x="697" y="166" on="0"/>
        <pt x="791" y="255" on="0"/>
        <pt x="862" y="375" on="0"/>
        <pt x="910" y="511" on="0"/>
        <pt x="935" y="657" on="0"/>
        <pt x="935" y="727" on="1"/>
        <pt x="935" y="834" on="0"/>
        <pt x="899" y="1001" on="0"/>
        <pt x="818" y="1116" on="0"/>
        <pt x="688" y="1176" on="0"/>
      </contour>
      <contour>
        <pt x="1217" y="755" on="1"/>
        <pt x="1217" y="667" on="0"/>
        <pt x="1173" y="487" on="0"/>
        <pt x="1088" y="319" on="0"/>
        <pt x="967" y="172" on="0"/>
        <pt x="812" y="63" on="0"/>
        <pt x="627" y="0" on="0"/>
        <pt x="521" y="0" on="1"/>
        <pt x="-10" y="0" on="1"/>
        <pt x="0" y="83" on="1"/>
        <pt x="63" y="97" on="0"/>
        <pt x="129" y="130" on="0"/>
        <pt x="131" y="144" on="1"/>
        <pt x="193" y="595" on="1"/>
        <pt x="82" y="595" on="1"/>
        <pt x="53" y="627" on="1"/>
        <pt x="56" y="635" on="0"/>
        <pt x="71" y="662" on="0"/>
        <pt x="88" y="690" on="0"/>
        <pt x="104" y="717" on="0"/>
        <pt x="109" y="725" on="1"/>
        <pt x="211" y="725" on="1"/>
        <pt x="270" y="1148" on="1"/>
        <pt x="133" y="1126" on="1"/>
        <pt x="133" y="1229" on="1"/>
        <pt x="190" y="1243" on="0"/>
        <pt x="320" y="1265" on="0"/>
        <pt x="450" y="1281" on="0"/>
        <pt x="575" y="1290" on="0"/>
        <pt x="626" y="1290" on="1"/>
        <pt x="781" y="1290" on="0"/>
        <pt x="1004" y="1216" on="0"/>
        <pt x="1148" y="1077" on="0"/>
        <pt x="1217" y="879" on="0"/>
      </contour>
    </TTGlyph>
    <TTGlyph name="Euro" xMin="-24" yMin="-30" xMax="1003" yMax="1235">
      <contour>
        <pt x="614" y="426" on="1"/>
        <pt x="342" y="426" on="1"/>
        <pt x="343" y="337" on="0"/>
        <pt x="380" y="220" on="0"/>
        <pt x="436" y="149" on="0"/>
        <pt x="505" y="120" on="0"/>
        <pt x="539" y="120" on="1"/>
        <pt x="563" y="120" on="0"/>
        <pt x="615" y="128" on="0"/>
        <pt x="680" y="156" on="0"/>
        <pt x="763" y="210" on="0"/>
        <pt x="817" y="256" on="1"/>
        <pt x="829" y="239" on="0"/>
        <pt x="849" y="201" on="0"/>
        <pt x="859" y="181" on="1"/>
        <pt x="794" y="113" on="0"/>
        <pt x="681" y="30" on="0"/>
        <pt x="581" y="-15" on="0"/>
        <pt x="492" y="-30" on="0"/>
        <pt x="451" y="-30" on="1"/>
        <pt x="377" y="-30" on="0"/>
        <pt x="244" y="28" on="0"/>
        <pt x="144" y="143" on="0"/>
        <pt x="82" y="313" on="0"/>
        <pt x="79" y="426" on="1"/>
        <pt x="1" y="426" on="1"/>
        <pt x="-24" y="461" on="1"/>
        <pt x="-21" y="468" on="0"/>
        <pt x="-10" y="494" on="0"/>
        <pt x="3" y="523" on="0"/>
        <pt x="15" y="549" on="0"/>
        <pt x="19" y="557" on="1"/>
        <pt x="84" y="557" on="1"/>
        <pt x="85" y="565" on="0"/>
        <pt x="86" y="582" on="0"/>
        <pt x="88" y="591" on="1"/>
        <pt x="90" y="611" on="0"/>
        <pt x="97" y="648" on="0"/>
        <pt x="100" y="666" on="1"/>
        <pt x="62" y="666" on="1"/>
        <pt x="37" y="701" on="1"/>
        <pt x="40" y="708" on="0"/>
        <pt x="51" y="734" on="0"/>
        <pt x="63" y="763" on="0"/>
        <pt x="69" y="776" on="1"/>
        <pt x="80" y="797" on="1"/>
        <pt x="133" y="797" on="1"/>
        <pt x="206" y="1021" on="0"/>
        <pt x="501" y="1235" on="0"/>
        <pt x="704" y="1235" on="1"/>
        <pt x="750" y="1235" on="0"/>
        <pt x="839" y="1219" on="0"/>
        <pt x="916" y="1192" on="0"/>
        <pt x="979" y="1156" on="0"/>
        <pt x="1000" y="1135" on="1"/>
        <pt x="1003" y="1132" on="0"/>
        <pt x="990" y="1101" on="0"/>
        <pt x="966" y="1057" on="0"/>
        <pt x="935" y="1005" on="0"/>
        <pt x="903" y="957" on="0"/>
        <pt x="875" y="920" on="0"/>
        <pt x="867" y="912" on="1"/>
        <pt x="800" y="928" on="1"/>
        <pt x="771" y="1011" on="0"/>
        <pt x="681" y="1095" on="0"/>
        <pt x="615" y="1095" on="1"/>
        <pt x="588" y="1095" on="0"/>
        <pt x="529" y="1074" on="0"/>
        <pt x="470" y="1010" on="0"/>
        <pt x="415" y="893" on="0"/>
        <pt x="391" y="797" on="1"/>
        <pt x="730" y="797" on="1"/>
        <pt x="757" y="764" on="1"/>
        <pt x="712" y="666" on="1"/>
        <pt x="364" y="666" on="1"/>
        <pt x="362" y="649" on="0"/>
        <pt x="356" y="616" on="0"/>
        <pt x="354" y="598" on="1"/>
        <pt x="352" y="587" on="0"/>
        <pt x="351" y="577" on="1"/>
        <pt x="349" y="557" on="1"/>
        <pt x="632" y="557" on="1"/>
        <pt x="659" y="524" on="1"/>
      </contour>
    </TTGlyph>
    <TTGlyph name="F" xMin="-10" yMin="0" xMax="1047" yMax="1260">
      <contour>
        <pt x="846" y="697" on="1"/>
        <pt x="835" y="679" on="0"/>
        <pt x="807" y="638" on="0"/>
        <pt x="779" y="599" on="0"/>
        <pt x="751" y="568" on="0"/>
        <pt x="740" y="560" on="1"/>
        <pt x="728" y="575" on="0"/>
        <pt x="700" y="595" on="0"/>
        <pt x="659" y="609" on="0"/>
        <pt x="603" y="615" on="0"/>
        <pt x="564" y="615" on="1"/>
        <pt x="459" y="615" on="1"/>
        <pt x="395" y="144" on="1"/>
        <pt x="394" y="138" on="0"/>
        <pt x="406" y="124" on="0"/>
        <pt x="439" y="109" on="0"/>
        <pt x="496" y="92" on="0"/>
        <pt x="541" y="83" on="1"/>
        <pt x="530" y="0" on="1"/>
        <pt x="-10" y="0" on="1"/>
        <pt x="1" y="83" on="1"/>
        <pt x="66" y="97" on="0"/>
        <pt x="133" y="130" on="0"/>
        <pt x="135" y="144" on="1"/>
        <pt x="268" y="1115" on="1"/>
        <pt x="270" y="1127" on="0"/>
        <pt x="216" y="1163" on="0"/>
        <pt x="151" y="1177" on="1"/>
        <pt x="162" y="1260" on="1"/>
        <pt x="1014" y="1260" on="1"/>
        <pt x="1047" y="1225" on="1"/>
        <pt x="1043" y="1199" on="0"/>
        <pt x="1024" y="1115" on="0"/>
        <pt x="1002" y="1027" on="0"/>
        <pt x="979" y="949" on="0"/>
        <pt x="971" y="930" on="1"/>
        <pt x="890" y="930" on="1"/>
        <pt x="900" y="1023" on="0"/>
        <pt x="876" y="1130" on="0"/>
        <pt x="841" y="1130" on="1"/>
        <pt x="530" y="1130" on="1"/>
        <pt x="476" y="735" on="1"/>
        <pt x="815" y="735" on="1"/>
      </contour>
    </TTGlyph>
    <TTGlyph name="G" xMin="56" yMin="-31" xMax="1146" yMax="1290">
      <contour>
        <pt x="1140" y="549" on="1"/>
        <pt x="1086" y="533" on="0"/>
        <pt x="1038" y="490" on="0"/>
        <pt x="1035" y="467" on="1"/>
        <pt x="1031" y="440" on="0"/>
        <pt x="1021" y="356" on="0"/>
        <pt x="1010" y="269" on="0"/>
        <pt x="1001" y="193" on="0"/>
        <pt x="999" y="174" on="1"/>
        <pt x="923" y="113" on="0"/>
        <pt x="789" y="34" on="0"/>
        <pt x="672" y="-13" on="0"/>
        <pt x="572" y="-31" on="0"/>
        <pt x="532" y="-31" on="1"/>
        <pt x="438" y="-31" on="0"/>
        <pt x="266" y="42" on="0"/>
        <pt x="134" y="179" on="0"/>
        <pt x="56" y="373" on="0"/>
        <pt x="56" y="493" on="1"/>
        <pt x="56" y="588" on="0"/>
        <pt x="99" y="770" on="0"/>
        <pt x="177" y="934" on="0"/>
        <pt x="285" y="1077" on="0"/>
        <pt x="351" y="1133" on="1"/>
        <pt x="394" y="1170" on="0"/>
        <pt x="488" y="1228" on="0"/>
        <pt x="598" y="1268" on="0"/>
        <pt x="726" y="1290" on="0"/>
        <pt x="803" y="1290" on="1"/>
        <pt x="840" y="1290" on="0"/>
        <pt x="934" y="1276" on="0"/>
        <pt x="1027" y="1250" on="0"/>
        <pt x="1109" y="1212" on="0"/>
        <pt x="1135" y="1188" on="1"/>
        <pt x="1139" y="1184" on="0"/>
        <pt x="1127" y="1150" on="0"/>
        <pt x="1103" y="1102" on="0"/>
        <pt x="1070" y="1045" on="0"/>
        <pt x="1037" y="994" on="0"/>
        <pt x="1007" y="954" on="0"/>
        <pt x="998" y="947" on="1"/>
        <pt x="930" y="963" on="1"/>
        <pt x="915" y="1002" on="0"/>
        <pt x="874" y="1073" on="0"/>
        <pt x="816" y="1128" on="0"/>
        <pt x="738" y="1161" on="0"/>
        <pt x="687" y="1161" on="1"/>
        <pt x="641" y="1161" on="0"/>
        <pt x="545" y="1115" on="0"/>
        <pt x="496" y="1065" on="1"/>
        <pt x="461" y="1029" on="0"/>
        <pt x="398" y="907" on="0"/>
        <pt x="352" y="762" on="0"/>
        <pt x="325" y="606" on="0"/>
        <pt x="325" y="536" on="1"/>
        <pt x="325" y="429" on="0"/>
        <pt x="377" y="278" on="0"/>
        <pt x="459" y="182" on="0"/>
        <pt x="560" y="138" on="0"/>
        <pt x="610" y="138" on="1"/>
        <pt x="637" y="138" on="0"/>
        <pt x="708" y="150" on="0"/>
        <pt x="743" y="176" on="1"/>
        <pt x="786" y="467" on="1"/>
        <pt x="787" y="477" on="0"/>
        <pt x="780" y="497" on="0"/>
        <pt x="739" y="517" on="0"/>
        <pt x="654" y="537" on="0"/>
        <pt x="579" y="549" on="1"/>
        <pt x="585" y="632" on="1"/>
        <pt x="1146" y="632" on="1"/>
      </contour>
    </TTGlyph>
    <TTGlyph name="Gbreve" xMin="56" yMin="-31" xMax="1146" yMax="1738">
      <component glyphName="G" x="0" y="0" flags="0x0"/>
      <component glyphName="uni0306" x="1131" y="320" flags="0x0"/>
    </TTGlyph>
    <TTGlyph name="Gcaron" xMin="56" yMin="-31" xMax="1146" yMax="1756">
      <component glyphName="G" x="0" y="0" flags="0x0"/>
      <component glyphName="uni030C.LP" x="1109" y="320" flags="0x0"/>
    </TTGlyph>
    <TTGlyph name="Gcircumflex" xMin="56" yMin="-31" xMax="1146" yMax="1712">
      <component glyphName="G" x="0" y="0" flags="0x0"/>
      <component glyphName="uni0302.LP" x="1104" y="320" flags="0x0"/>
    </TTGlyph>
    <TTGlyph name="Gdotaccent" xMin="56" yMin="-31" xMax="1146" yMax="1663">
      <component glyphName="G" x="0" y="0" flags="0x0"/>
      <component glyphName="uni0307.LP" x="1098" y="320" flags="0x0"/>
    </TTGlyph>
    <TTGlyph name="H" xMin="-10" yMin="0" xMax="1390" yMax="1260">
      <contour>
        <pt x="663" y="1177" on="1"/>
        <pt x="597" y="1163" on="0"/>
        <pt x="530" y="1129" on="0"/>
        <pt x="528" y="1115" on="1"/>
        <pt x="474" y="725" on="1"/>
        <pt x="930" y="725" on="1"/>
        <pt x="984" y="1115" on="1"/>
        <pt x="985" y="1127" on="0"/>
        <pt x="932" y="1163" on="0"/>
        <pt x="867" y="1177" on="1"/>
        <pt x="878" y="1260" on="1"/>
        <pt x="1390" y="1260" on="1"/>
        <pt x="1379" y="1177" on="1"/>
        <pt x="1313" y="1163" on="0"/>
        <pt x="1246" y="1129" on="0"/>
        <pt x="1244" y="1115" on="1"/>
        <pt x="1111" y="144" on="1"/>
        <pt x="1109" y="132" on="0"/>
        <pt x="1163" y="97" on="0"/>
        <pt x="1229" y="83" on="1"/>
        <pt x="1218" y="0" on="1"/>
        <pt x="706" y="0" on="1"/>
        <pt x="717" y="83" on="1"/>
        <pt x="782" y="97" on="0"/>
        <pt x="849" y="130" on="0"/>
        <pt x="851" y="144" on="1"/>
        <pt x="913" y="595" on="1"/>
        <pt x="457" y="595" on="1"/>
        <pt x="395" y="144" on="1"/>
        <pt x="393" y="132" on="0"/>
        <pt x="446" y="97" on="0"/>
        <pt x="513" y="83" on="1"/>
        <pt x="502" y="0" on="1"/>
        <pt x="-10" y="0" on="1"/>
        <pt x="1" y="83" on="1"/>
        <pt x="66" y="97" on="0"/>
        <pt x="133" y="130" on="0"/>
        <pt x="135" y="144" on="1"/>
        <pt x="268" y="1115" on="1"/>
        <pt x="270" y="1127" on="0"/>
        <pt x="216" y="1163" on="0"/>
        <pt x="151" y="1177" on="1"/>
        <pt x="162" y="1260" on="1"/>
        <pt x="674" y="1260" on="1"/>
      </contour>
    </TTGlyph>
    <TTGlyph name="Hcircumflex" xMin="-10" yMin="0" xMax="1390" yMax="1712">
      <component glyphName="H" x="0" y="0" flags="0x0"/>
      <component glyphName="uni0302.LP" x="1152" y="320" flags="0x0"/>
    </TTGlyph>
    <TTGlyph name="I" xMin="10" yMin="0" xMax="693" yMax="1260">
      <contour>
        <pt x="682" y="1177" on="1"/>
        <pt x="617" y="1163" on="0"/>
        <pt x="550" y="1129" on="0"/>
        <pt x="548" y="1115" on="1"/>
        <pt x="415" y="144" on="1"/>
        <pt x="413" y="132" on="0"/>
        <pt x="466" y="97" on="0"/>
        <pt x="532" y="83" on="1"/>
        <pt x="521" y="0" on="1"/>
        <pt x="10" y="0" on="1"/>
        <pt x="21" y="83" on="1"/>
        <pt x="85" y="97" on="0"/>
        <pt x="152" y="130" on="0"/>
        <pt x="154" y="144" on="1"/>
        <pt x="287" y="1115" on="1"/>
        <pt x="289" y="1127" on="0"/>
        <pt x="236" y="1163" on="0"/>
        <pt x="171" y="1177" on="1"/>
        <pt x="182" y="1260" on="1"/>
        <pt x="693" y="1260" on="1"/>
      </contour>
    </TTGlyph>
    <TTGlyph name="IJ" xMin="10" yMin="-401" xMax="1371" yMax="1260">
      <component glyphName="I" x="0" y="0" flags="0x0"/>
      <component glyphName="J" x="652" y="0" flags="0x0"/>
    </TTGlyph>
    <TTGlyph name="Iacute" xMin="10" yMin="0" xMax="802" yMax="1738">
      <component glyphName="I" x="0" y="0" flags="0x0"/>
      <component glyphName="acutecomb.LP" x="788" y="320" flags="0x0"/>
    </TTGlyph>
    <TTGlyph name="Ibreve" xMin="10" yMin="0" xMax="829" yMax="1738">
      <component glyphName="I" x="0" y="0" flags="0x0"/>
      <component glyphName="uni0306" x="824" y="320" flags="0x0"/>
    </TTGlyph>
    <TTGlyph name="Icircumflex" xMin="10" yMin="0" xMax="773" yMax="1712">
      <component glyphName="I" x="0" y="0" flags="0x0"/>
      <component glyphName="uni0302.LP" x="797" y="320" flags="0x0"/>
    </TTGlyph>
    <TTGlyph name="Idieresis" xMin="10" yMin="0" xMax="798" yMax="1663">
      <component glyphName="I" x="0" y="0" flags="0x0"/>
      <component glyphName="uni0308.LP" x="810" y="320" flags="0x0"/>
    </TTGlyph>
    <TTGlyph name="Idotaccent" xMin="10" yMin="0" xMax="693" yMax="1663">
      <component glyphName="I" x="0" y="0" flags="0x0"/>
      <component glyphName="uni0307.LP" x="791" y="320" flags="0x0"/>
    </TTGlyph>
    <TTGlyph name="Igrave" xMin="10" yMin="0" xMax="693" yMax="1738">
      <component glyphName="I" x="0" y="0" flags="0x0"/>
      <component glyphName="gravecomb.LP" x="710" y="320" flags="0x0"/>
    </TTGlyph>
    <TTGlyph name="Imacron" xMin="10" yMin="0" xMax="814" yMax="1643">
      <component glyphName="I" x="0" y="0" flags="0x0"/>
      <component glyphName="uni0304.Short" x="800" y="320" flags="0x0"/>
    </TTGlyph>
    <TTGlyph name="Itilde" xMin="10" yMin="0" xMax="859" yMax="1670">
      <component glyphName="I" x="0" y="0" flags="0x0"/>
      <component glyphName="tildecomb.LP" x="790" y="320" flags="0x0"/>
    </TTGlyph>
    <TTGlyph name="J" xMin="-364" yMin="-401" xMax="719" yMax="1260">
      <contour>
        <pt x="706" y="1177" on="1"/>
        <pt x="643" y="1163" on="0"/>
        <pt x="573" y="1129" on="0"/>
        <pt x="571" y="1115" on="1"/>
        <pt x="450" y="205" on="1"/>
        <pt x="435" y="95" on="0"/>
        <pt x="368" y="-62" on="0"/>
        <pt x="284" y="-176" on="0"/>
        <pt x="191" y="-257" on="0"/>
        <pt x="150" y="-289" on="1"/>
        <pt x="123" y="-310" on="0"/>
        <pt x="50" y="-351" on="0"/>
        <pt x="-30" y="-382" on="0"/>
        <pt x="-111" y="-401" on="0"/>
        <pt x="-145" y="-401" on="1"/>
        <pt x="-185" y="-401" on="0"/>
        <pt x="-263" y="-379" on="0"/>
        <pt x="-325" y="-348" on="0"/>
        <pt x="-364" y="-313" on="0"/>
        <pt x="-364" y="-301" on="1"/>
        <pt x="-364" y="-294" on="0"/>
        <pt x="-340" y="-261" on="0"/>
        <pt x="-303" y="-221" on="0"/>
        <pt x="-258" y="-179" on="0"/>
        <pt x="-216" y="-144" on="0"/>
        <pt x="-181" y="-121" on="0"/>
        <pt x="-173" y="-121" on="1"/>
        <pt x="-163" y="-121" on="0"/>
        <pt x="-130" y="-151" on="0"/>
        <pt x="-85" y="-188" on="0"/>
        <pt x="-31" y="-218" on="0"/>
        <pt x="0" y="-218" on="1"/>
        <pt x="24" y="-218" on="0"/>
        <pt x="73" y="-196" on="0"/>
        <pt x="119" y="-123" on="0"/>
        <pt x="161" y="16" on="0"/>
        <pt x="177" y="133" on="1"/>
        <pt x="311" y="1115" on="1"/>
        <pt x="312" y="1121" on="0"/>
        <pt x="301" y="1135" on="0"/>
        <pt x="266" y="1151" on="0"/>
        <pt x="201" y="1168" on="0"/>
        <pt x="147" y="1177" on="1"/>
        <pt x="158" y="1260" on="1"/>
        <pt x="719" y="1260" on="1"/>
      </contour>
    </TTGlyph>
    <TTGlyph name="K" xMin="-10" yMin="-14" xMax="1269" yMax="1260">
      <contour>
        <pt x="663" y="1177" on="1"/>
        <pt x="597" y="1163" on="0"/>
        <pt x="530" y="1129" on="0"/>
        <pt x="528" y="1115" on="1"/>
        <pt x="466" y="664" on="1"/>
        <pt x="859" y="1088" on="1"/>
        <pt x="884" y="1115" on="0"/>
        <pt x="908" y="1147" on="0"/>
        <pt x="903" y="1165" on="0"/>
        <pt x="866" y="1174" on="0"/>
        <pt x="830" y="1177" on="1"/>
        <pt x="841" y="1260" on="1"/>
        <pt x="1269" y="1260" on="1"/>
        <pt x="1258" y="1177" on="1"/>
        <pt x="1227" y="1173" on="0"/>
        <pt x="1186" y="1165" on="0"/>
        <pt x="1154" y="1152" on="0"/>
        <pt x="1126" y="1131" on="0"/>
        <pt x="1109" y="1115" on="1"/>
        <pt x="654" y="677" on="1"/>
        <pt x="1009" y="218" on="1"/>
        <pt x="1022" y="202" on="0"/>
        <pt x="1067" y="190" on="0"/>
        <pt x="1118" y="192" on="0"/>
        <pt x="1172" y="205" on="0"/>
        <pt x="1194" y="214" on="1"/>
        <pt x="1223" y="131" on="1"/>
        <pt x="1194" y="106" on="0"/>
        <pt x="1102" y="55" on="0"/>
        <pt x="1006" y="13" on="0"/>
        <pt x="920" y="-14" on="0"/>
        <pt x="898" y="-14" on="1"/>
        <pt x="870" y="-14" on="0"/>
        <pt x="831" y="4" on="0"/>
        <pt x="815" y="29" on="1"/>
        <pt x="460" y="621" on="1"/>
        <pt x="395" y="144" on="1"/>
        <pt x="393" y="132" on="0"/>
        <pt x="446" y="97" on="0"/>
        <pt x="513" y="83" on="1"/>
        <pt x="502" y="0" on="1"/>
        <pt x="-10" y="0" on="1"/>
        <pt x="1" y="83" on="1"/>
        <pt x="66" y="97" on="0"/>
        <pt x="133" y="130" on="0"/>
        <pt x="135" y="144" on="1"/>
        <pt x="268" y="1115" on="1"/>
        <pt x="270" y="1127" on="0"/>
        <pt x="216" y="1163" on="0"/>
        <pt x="151" y="1177" on="1"/>
        <pt x="162" y="1260" on="1"/>
        <pt x="674" y="1260" on="1"/>
      </contour>
    </TTGlyph>
    <TTGlyph name="L" xMin="-10" yMin="0" xMax="968" yMax="1260">
      <contour>
        <pt x="968" y="324" on="1"/>
        <pt x="959" y="281" on="0"/>
        <pt x="935" y="180" on="0"/>
        <pt x="911" y="87" on="0"/>
        <pt x="891" y="15" on="0"/>
        <pt x="886" y="0" on="1"/>
        <pt x="-10" y="0" on="1"/>
        <pt x="1" y="83" on="1"/>
        <pt x="66" y="97" on="0"/>
        <pt x="133" y="130" on="0"/>
        <pt x="135" y="144" on="1"/>
        <pt x="268" y="1115" on="1"/>
        <pt x="270" y="1127" on="0"/>
        <pt x="216" y="1163" on="0"/>
        <pt x="151" y="1177" on="1"/>
        <pt x="162" y="1260" on="1"/>
        <pt x="674" y="1260" on="1"/>
        <pt x="663" y="1177" on="1"/>
        <pt x="597" y="1163" on="0"/>
        <pt x="530" y="1129" on="0"/>
        <pt x="528" y="1115" on="1"/>
        <pt x="403" y="204" on="1"/>
        <pt x="401" y="186" on="0"/>
        <pt x="413" y="159" on="0"/>
        <pt x="450" y="140" on="0"/>
        <pt x="515" y="130" on="0"/>
        <pt x="566" y="130" on="1"/>
        <pt x="662" y="130" on="1"/>
        <pt x="705" y="130" on="0"/>
        <pt x="767" y="155" on="0"/>
        <pt x="819" y="209" on="0"/>
        <pt x="867" y="293" on="0"/>
        <pt x="895" y="352" on="1"/>
      </contour>
    </TTGlyph>
    <TTGlyph name="Lacute" xMin="-10" yMin="0" xMax="969" yMax="1738">
      <component glyphName="L" x="0" y="0" flags="0x0"/>
      <component glyphName="acutecomb.LP" x="955" y="320" flags="0x0"/>
    </TTGlyph>
    <TTGlyph name="Lslash" xMin="-10" yMin="0" xMax="968" yMax="1260">
      <contour>
        <pt x="792" y="877" on="1"/>
        <pt x="788" y="860" on="0"/>
        <pt x="770" y="818" on="0"/>
        <pt x="749" y="776" on="0"/>
        <pt x="727" y="739" on="0"/>
        <pt x="719" y="727" on="1"/>
        <pt x="456" y="590" on="1"/>
        <pt x="403" y="204" on="1"/>
        <pt x="401" y="186" on="0"/>
        <pt x="413" y="159" on="0"/>
        <pt x="450" y="140" on="0"/>
        <pt x="515" y="130" on="0"/>
        <pt x="566" y="130" on="1"/>
        <pt x="662" y="130" on="1"/>
        <pt x="705" y="130" on="0"/>
        <pt x="767" y="155" on="0"/>
        <pt x="819" y="209" on="0"/>
        <pt x="867" y="293" on="0"/>
        <pt x="895" y="352" on="1"/>
        <pt x="968" y="324" on="1"/>
        <pt x="959" y="281" on="0"/>
        <pt x="935" y="180" on="0"/>
        <pt x="911" y="87" on="0"/>
        <pt x="891" y="15" on="0"/>
        <pt x="886" y="0" on="1"/>
        <pt x="-10" y="0" on="1"/>
        <pt x="1" y="83" on="1"/>
        <pt x="66" y="97" on="0"/>
        <pt x="133" y="130" on="0"/>
        <pt x="135" y="144" on="1"/>
        <pt x="176" y="444" on="1"/>
        <pt x="43" y="375" on="1"/>
        <pt x="21" y="397" on="1"/>
        <pt x="24" y="414" on="0"/>
        <pt x="43" y="458" on="0"/>
        <pt x="64" y="502" on="0"/>
        <pt x="85" y="539" on="0"/>
        <pt x="91" y="549" on="1"/>
        <pt x="198" y="604" on="1"/>
        <pt x="268" y="1115" on="1"/>
        <pt x="270" y="1127" on="0"/>
        <pt x="216" y="1163" on="0"/>
        <pt x="151" y="1177" on="1"/>
        <pt x="162" y="1260" on="1"/>
        <pt x="674" y="1260" on="1"/>
        <pt x="663" y="1177" on="1"/>
        <pt x="597" y="1163" on="0"/>
        <pt x="530" y="1129" on="0"/>
        <pt x="528" y="1115" on="1"/>
        <pt x="478" y="750" on="1"/>
        <pt x="771" y="902" on="1"/>
      </contour>
    </TTGlyph>
    <TTGlyph name="M" xMin="6" yMin="0" xMax="1676" yMax="1260">
      <contour>
        <pt x="1665" y="1177" on="1"/>
        <pt x="1618" y="1177" on="0"/>
        <pt x="1545" y="1152" on="1"/>
        <pt x="1416" y="144" on="1"/>
        <pt x="1414" y="132" on="0"/>
        <pt x="1477" y="97" on="0"/>
        <pt x="1543" y="83" on="1"/>
        <pt x="1532" y="0" on="1"/>
        <pt x="1027" y="0" on="1"/>
        <pt x="1038" y="83" on="1"/>
        <pt x="1102" y="97" on="0"/>
        <pt x="1179" y="130" on="0"/>
        <pt x="1181" y="144" on="1"/>
        <pt x="1280" y="922" on="1"/>
        <pt x="763" y="0" on="1"/>
        <pt x="661" y="0" on="1"/>
        <pt x="407" y="922" on="1"/>
        <pt x="292" y="144" on="1"/>
        <pt x="290" y="132" on="0"/>
        <pt x="344" y="97" on="0"/>
        <pt x="410" y="83" on="1"/>
        <pt x="399" y="0" on="1"/>
        <pt x="6" y="0" on="1"/>
        <pt x="17" y="83" on="1"/>
        <pt x="83" y="97" on="0"/>
        <pt x="149" y="130" on="0"/>
        <pt x="151" y="144" on="1"/>
        <pt x="297" y="1144" on="1"/>
        <pt x="268" y="1163" on="0"/>
        <pt x="204" y="1177" on="0"/>
        <pt x="177" y="1177" on="1"/>
        <pt x="188" y="1260" on="1"/>
        <pt x="528" y="1260" on="1"/>
        <pt x="537" y="1260" on="0"/>
        <pt x="552" y="1254" on="0"/>
        <pt x="565" y="1236" on="0"/>
        <pt x="578" y="1203" on="0"/>
        <pt x="586" y="1176" on="1"/>
        <pt x="808" y="364" on="1"/>
        <pt x="1265" y="1176" on="1"/>
        <pt x="1281" y="1206" on="0"/>
        <pt x="1303" y="1239" on="0"/>
        <pt x="1321" y="1256" on="0"/>
        <pt x="1336" y="1260" on="0"/>
        <pt x="1345" y="1260" on="1"/>
        <pt x="1676" y="1260" on="1"/>
      </contour>
    </TTGlyph>
    <TTGlyph name="N" xMin="-3" yMin="-30" xMax="1369" yMax="1260">
      <contour>
        <pt x="1358" y="1177" on="1"/>
        <pt x="1289" y="1167" on="0"/>
        <pt x="1225" y="1129" on="0"/>
        <pt x="1223" y="1115" on="1"/>
        <pt x="1066" y="-30" on="1"/>
        <pt x="1016" y="-26" on="0"/>
        <pt x="936" y="-3" on="0"/>
        <pt x="876" y="29" on="0"/>
        <pt x="836" y="69" on="0"/>
        <pt x="824" y="91" on="1"/>
        <pt x="394" y="895" on="1"/>
        <pt x="291" y="144" on="1"/>
        <pt x="290" y="138" on="0"/>
        <pt x="300" y="121" on="0"/>
        <pt x="327" y="104" on="0"/>
        <pt x="373" y="88" on="0"/>
        <pt x="408" y="83" on="1"/>
        <pt x="397" y="0" on="1"/>
        <pt x="-3" y="0" on="1"/>
        <pt x="8" y="83" on="1"/>
        <pt x="78" y="92" on="0"/>
        <pt x="140" y="130" on="0"/>
        <pt x="142" y="144" on="1"/>
        <pt x="273" y="1102" on="1"/>
        <pt x="247" y="1132" on="0"/>
        <pt x="189" y="1172" on="0"/>
        <pt x="158" y="1177" on="1"/>
        <pt x="169" y="1260" on="1"/>
        <pt x="450" y="1260" on="1"/>
        <pt x="463" y="1260" on="0"/>
        <pt x="481" y="1255" on="0"/>
        <pt x="497" y="1239" on="0"/>
        <pt x="514" y="1208" on="0"/>
        <pt x="528" y="1182" on="1"/>
        <pt x="970" y="353" on="1"/>
        <pt x="1075" y="1115" on="1"/>
        <pt x="1076" y="1121" on="0"/>
        <pt x="1067" y="1138" on="0"/>
        <pt x="1041" y="1155" on="0"/>
        <pt x="995" y="1171" on="0"/>
        <pt x="958" y="1177" on="1"/>
        <pt x="969" y="1260" on="1"/>
        <pt x="1369" y="1260" on="1"/>
      </contour>
    </TTGlyph>
    <TTGlyph name="Nacute" xMin="-3" yMin="-30" xMax="1369" yMax="1738">
      <component glyphName="N" x="0" y="0" flags="0x0"/>
      <component glyphName="acutecomb.LP" x="1116" y="320" flags="0x0"/>
    </TTGlyph>
    <TTGlyph name="Ncaron" xMin="-3" yMin="-30" xMax="1369" yMax="1756">
      <component glyphName="N" x="0" y="0" flags="0x0"/>
      <component glyphName="uni030C.LP" x="1130" y="320" flags="0x0"/>
    </TTGlyph>
    <TTGlyph name="Ntilde" xMin="-3" yMin="-30" xMax="1369" yMax="1670">
      <component glyphName="N" x="0" y="0" flags="0x0"/>
      <component glyphName="tildecomb.LP" x="1118" y="320" flags="0x0"/>
    </TTGlyph>
    <TTGlyph name="O" xMin="70" yMin="-31" xMax="1180" yMax="1290">
      <contour>
        <pt x="911" y="756" on="1"/>
        <pt x="911" y="840" on="0"/>
        <pt x="880" y="986" on="0"/>
        <pt x="820" y="1094" on="0"/>
        <pt x="730" y="1155" on="0"/>
        <pt x="672" y="1155" on="1"/>
        <pt x="616" y="1155" on="0"/>
        <pt x="524" y="1098" on="0"/>
        <pt x="450" y="1001" on="0"/>
        <pt x="396" y="875" on="0"/>
        <pt x="360" y="736" on="0"/>
        <pt x="342" y="595" on="0"/>
        <pt x="342" y="532" on="1"/>
        <pt x="342" y="439" on="0"/>
        <pt x="372" y="283" on="0"/>
        <pt x="431" y="172" on="0"/>
        <pt x="518" y="110" on="0"/>
        <pt x="576" y="110" on="1"/>
        <pt x="635" y="110" on="0"/>
        <pt x="731" y="170" on="0"/>
        <pt x="805" y="272" on="0"/>
        <pt x="859" y="404" on="0"/>
        <pt x="894" y="547" on="0"/>
        <pt x="911" y="693" on="0"/>
      </contour>
      <contour>
        <pt x="1180" y="774" on="1"/>
        <pt x="1180" y="703" on="0"/>
        <pt x="1152" y="557" on="0"/>
        <pt x="1100" y="415" on="0"/>
        <pt x="1026" y="282" on="0"/>
        <pt x="981" y="225" on="1"/>
        <pt x="939" y="171" on="0"/>
        <pt x="831" y="78" on="0"/>
        <pt x="710" y="9" on="0"/>
        <pt x="578" y="-31" on="0"/>
        <pt x="511" y="-31" on="1"/>
        <pt x="407" y="-31" on="0"/>
        <pt x="244" y="51" on="0"/>
        <pt x="130" y="192" on="0"/>
        <pt x="70" y="380" on="0"/>
        <pt x="70" y="485" on="1"/>
        <pt x="70" y="642" on="0"/>
        <pt x="168" y="908" on="0"/>
        <pt x="248" y="1018" on="1"/>
        <pt x="290" y="1074" on="0"/>
        <pt x="394" y="1173" on="0"/>
        <pt x="518" y="1247" on="0"/>
        <pt x="663" y="1290" on="0"/>
        <pt x="745" y="1290" on="1"/>
        <pt x="854" y="1290" on="0"/>
        <pt x="1018" y="1208" on="0"/>
        <pt x="1126" y="1067" on="0"/>
        <pt x="1180" y="879" on="0"/>
      </contour>
    </TTGlyph>
    <TTGlyph name="OE" xMin="61" yMin="-30" xMax="1650" yMax="1290">
      <contour>
        <pt x="572" y="110" on="1"/>
        <pt x="605" y="110" on="0"/>
        <pt x="654" y="116" on="0"/>
        <pt x="694" y="130" on="0"/>
        <pt x="729" y="150" on="0"/>
        <pt x="748" y="164" on="1"/>
        <pt x="870" y="1056" on="1"/>
        <pt x="836" y="1106" on="0"/>
        <pt x="727" y="1156" on="0"/>
        <pt x="669" y="1156" on="1"/>
        <pt x="608" y="1156" on="0"/>
        <pt x="505" y="1087" on="0"/>
        <pt x="424" y="955" on="0"/>
        <pt x="365" y="763" on="0"/>
        <pt x="348" y="641" on="1"/>
        <pt x="333" y="529" on="0"/>
        <pt x="352" y="335" on="0"/>
        <pt x="412" y="192" on="0"/>
        <pt x="509" y="110" on="0"/>
      </contour>
      <contour>
        <pt x="1615" y="1260" on="1"/>
        <pt x="1650" y="1225" on="1"/>
        <pt x="1645" y="1199" on="0"/>
        <pt x="1625" y="1115" on="0"/>
        <pt x="1602" y="1027" on="0"/>
        <pt x="1579" y="949" on="0"/>
        <pt x="1571" y="930" on="1"/>
        <pt x="1492" y="930" on="1"/>
        <pt x="1501" y="1023" on="0"/>
        <pt x="1478" y="1130" on="0"/>
        <pt x="1443" y="1130" on="1"/>
        <pt x="1140" y="1130" on="1"/>
        <pt x="1086" y="735" on="1"/>
        <pt x="1453" y="735" on="1"/>
        <pt x="1482" y="697" on="1"/>
        <pt x="1472" y="683" on="0"/>
        <pt x="1445" y="643" on="0"/>
        <pt x="1417" y="602" on="0"/>
        <pt x="1388" y="568" on="0"/>
        <pt x="1377" y="560" on="1"/>
        <pt x="1365" y="575" on="0"/>
        <pt x="1336" y="595" on="0"/>
        <pt x="1296" y="609" on="0"/>
        <pt x="1240" y="615" on="0"/>
        <pt x="1201" y="615" on="1"/>
        <pt x="1069" y="615" on="1"/>
        <pt x="1012" y="194" on="1"/>
        <pt x="1010" y="179" on="0"/>
        <pt x="1020" y="156" on="0"/>
        <pt x="1058" y="139" on="0"/>
        <pt x="1131" y="130" on="0"/>
        <pt x="1193" y="130" on="1"/>
        <pt x="1275" y="130" on="1"/>
        <pt x="1318" y="130" on="0"/>
        <pt x="1382" y="155" on="0"/>
        <pt x="1436" y="209" on="0"/>
        <pt x="1486" y="293" on="0"/>
        <pt x="1514" y="352" on="1"/>
        <pt x="1587" y="324" on="1"/>
        <pt x="1578" y="281" on="0"/>
        <pt x="1554" y="180" on="0"/>
        <pt x="1531" y="87" on="0"/>
        <pt x="1511" y="15" on="0"/>
        <pt x="1505" y="0" on="1"/>
        <pt x="789" y="0" on="1"/>
        <pt x="733" y="0" on="0"/>
        <pt x="663" y="-9" on="0"/>
        <pt x="607" y="-21" on="0"/>
        <pt x="550" y="-30" on="0"/>
        <pt x="507" y="-30" on="1"/>
        <pt x="389" y="-30" on="0"/>
        <pt x="213" y="76" on="0"/>
        <pt x="102" y="254" on="0"/>
        <pt x="61" y="486" on="0"/>
        <pt x="78" y="612" on="1"/>
        <pt x="90" y="703" on="0"/>
        <pt x="153" y="874" on="0"/>
        <pt x="245" y="1024" on="0"/>
        <pt x="364" y="1150" on="0"/>
        <pt x="503" y="1240" on="0"/>
        <pt x="659" y="1290" on="0"/>
        <pt x="742" y="1290" on="1"/>
        <pt x="781" y="1290" on="0"/>
        <pt x="836" y="1281" on="0"/>
        <pt x="882" y="1269" on="0"/>
        <pt x="929" y="1260" on="0"/>
        <pt x="961" y="1260" on="1"/>
      </contour>
    </TTGlyph>
    <TTGlyph name="Oacute" xMin="70" yMin="-31" xMax="1180" yMax="1738">
      <component glyphName="O" x="0" y="0" flags="0x0"/>
      <component glyphName="acutecomb.LP" x="1082" y="320" flags="0x0"/>
    </TTGlyph>
    <TTGlyph name="Obreve" xMin="70" yMin="-31" xMax="1180" yMax="1738">
      <component glyphName="O" x="0" y="0" flags="0x0"/>
      <component glyphName="uni0306" x="1118" y="320" flags="0x0"/>
    </TTGlyph>
    <TTGlyph name="Ocircumflex" xMin="70" yMin="-31" xMax="1180" yMax="1712">
      <component glyphName="O" x="0" y="0" flags="0x0"/>
      <component glyphName="uni0302.LP" x="1091" y="320" flags="0x0"/>
    </TTGlyph>
    <TTGlyph name="Odieresis" xMin="70" yMin="-31" xMax="1180" yMax="1663">
      <component glyphName="O" x="0" y="0" flags="0x0"/>
      <component glyphName="uni0308.LP" x="1104" y="320" flags="0x0"/>
    </TTGlyph>
    <TTGlyph name="Ograve" xMin="70" yMin="-31" xMax="1180" yMax="1738">
      <component glyphName="O" x="0" y="0" flags="0x0"/>
      <component glyphName="gravecomb.LP" x="1004" y="320" flags="0x0"/>
    </TTGlyph>
    <TTGlyph name="Ohorn" xMin="70" yMin="-31" xMax="1373" yMax="1518">
      <contour>
        <pt x="911" y="756" on="1"/>
        <pt x="911" y="840" on="0"/>
        <pt x="880" y="986" on="0"/>
        <pt x="820" y="1094" on="0"/>
        <pt x="730" y="1155" on="0"/>
        <pt x="672" y="1155" on="1"/>
        <pt x="616" y="1155" on="0"/>
        <pt x="524" y="1098" on="0"/>
        <pt x="450" y="1001" on="0"/>
        <pt x="396" y="875" on="0"/>
        <pt x="360" y="736" on="0"/>
        <pt x="342" y="595" on="0"/>
        <pt x="342" y="532" on="1"/>
        <pt x="342" y="439" on="0"/>
        <pt x="372" y="283" on="0"/>
        <pt x="431" y="172" on="0"/>
        <pt x="518" y="110" on="0"/>
        <pt x="576" y="110" on="1"/>
        <pt x="635" y="110" on="0"/>
        <pt x="731" y="170" on="0"/>
        <pt x="805" y="272" on="0"/>
        <pt x="859" y="404" on="0"/>
        <pt x="894" y="547" on="0"/>
        <pt x="911" y="693" on="0"/>
      </contour>
      <contour>
        <pt x="1373" y="1418" on="1"/>
        <pt x="1373" y="1326" on="0"/>
        <pt x="1233" y="1162" on="0"/>
        <pt x="1098" y="1099" on="1"/>
        <pt x="1139" y="1031" on="0"/>
        <pt x="1180" y="866" on="0"/>
        <pt x="1180" y="774" on="1"/>
        <pt x="1180" y="703" on="0"/>
        <pt x="1152" y="557" on="0"/>
        <pt x="1100" y="415" on="0"/>
        <pt x="1026" y="282" on="0"/>
        <pt x="981" y="225" on="1"/>
        <pt x="939" y="171" on="0"/>
        <pt x="831" y="78" on="0"/>
        <pt x="710" y="9" on="0"/>
        <pt x="578" y="-31" on="0"/>
        <pt x="511" y="-31" on="1"/>
        <pt x="407" y="-31" on="0"/>
        <pt x="244" y="51" on="0"/>
        <pt x="130" y="192" on="0"/>
        <pt x="70" y="380" on="0"/>
        <pt x="70" y="485" on="1"/>
        <pt x="70" y="642" on="0"/>
        <pt x="168" y="908" on="0"/>
        <pt x="248" y="1018" on="1"/>
        <pt x="290" y="1074" on="0"/>
        <pt x="394" y="1173" on="0"/>
        <pt x="518" y="1247" on="0"/>
        <pt x="663" y="1290" on="0"/>
        <pt x="745" y="1290" on="1"/>
        <pt x="836" y="1290" on="0"/>
        <pt x="978" y="1233" on="0"/>
        <pt x="1031" y="1182" on="1"/>
        <pt x="1077" y="1207" on="0"/>
        <pt x="1127" y="1266" on="0"/>
        <pt x="1127" y="1303" on="1"/>
        <pt x="1127" y="1312" on="0"/>
        <pt x="1121" y="1338" on="0"/>
        <pt x="1107" y="1366" on="0"/>
        <pt x="1087" y="1390" on="0"/>
        <pt x="1072" y="1398" on="1"/>
        <pt x="1320" y="1518" on="1"/>
        <pt x="1332" y="1510" on="0"/>
        <pt x="1352" y="1486" on="0"/>
        <pt x="1366" y="1457" on="0"/>
        <pt x="1373" y="1429" on="0"/>
      </contour>
    </TTGlyph>
    <TTGlyph name="Ohungarumlaut" xMin="70" yMin="-31" xMax="1205" yMax="1789">
      <component glyphName="O" x="0" y="0" flags="0x0"/>
      <component glyphName="uni030B" x="1090" y="320" flags="0x0"/>
    </TTGlyph>
    <TTGlyph name="Omacron" xMin="70" yMin="-31" xMax="1205" yMax="1610">
      <component glyphName="O" x="0" y="0" flags="0x0"/>
      <component glyphName="uni0304.LP" x="1094" y="320" flags="0x0"/>
    </TTGlyph>
    <TTGlyph name="Omega" xMin="3" yMin="0" xMax="1224" yMax="1290">
      <component glyphName="uni03A9" x="0" y="0" flags="0x0"/>
    </TTGlyph>
    <TTGlyph name="Oslash" xMin="10" yMin="-53" xMax="1260" yMax="1313">
      <contour>
        <pt x="911" y="756" on="1"/>
        <pt x="911" y="779" on="0"/>
        <pt x="908" y="823" on="0"/>
        <pt x="906" y="845" on="1"/>
        <pt x="400" y="229" on="1"/>
        <pt x="430" y="172" on="0"/>
        <pt x="517" y="110" on="0"/>
        <pt x="576" y="110" on="1"/>
        <pt x="635" y="110" on="0"/>
        <pt x="731" y="170" on="0"/>
        <pt x="805" y="272" on="0"/>
        <pt x="859" y="404" on="0"/>
        <pt x="894" y="547" on="0"/>
        <pt x="911" y="693" on="0"/>
      </contour>
      <contour>
        <pt x="342" y="532" on="1"/>
        <pt x="342" y="496" on="0"/>
        <pt x="346" y="430" on="0"/>
        <pt x="350" y="399" on="1"/>
        <pt x="861" y="1018" on="1"/>
        <pt x="831" y="1081" on="0"/>
        <pt x="736" y="1155" on="0"/>
        <pt x="672" y="1155" on="1"/>
        <pt x="616" y="1155" on="0"/>
        <pt x="524" y="1098" on="0"/>
        <pt x="450" y="1001" on="0"/>
        <pt x="396" y="875" on="0"/>
        <pt x="360" y="736" on="0"/>
        <pt x="342" y="595" on="0"/>
      </contour>
      <contour>
        <pt x="1180" y="774" on="1"/>
        <pt x="1180" y="703" on="0"/>
        <pt x="1152" y="557" on="0"/>
        <pt x="1100" y="415" on="0"/>
        <pt x="1026" y="282" on="0"/>
        <pt x="981" y="225" on="1"/>
        <pt x="939" y="171" on="0"/>
        <pt x="831" y="78" on="0"/>
        <pt x="710" y="9" on="0"/>
        <pt x="578" y="-31" on="0"/>
        <pt x="511" y="-31" on="1"/>
        <pt x="435" y="-31" on="0"/>
        <pt x="307" y="13" on="0"/>
        <pt x="256" y="54" on="1"/>
        <pt x="210" y="-2" on="1"/>
        <pt x="200" y="-10" on="0"/>
        <pt x="152" y="-27" on="0"/>
        <pt x="98" y="-41" on="0"/>
        <pt x="48" y="-52" on="0"/>
        <pt x="36" y="-53" on="1"/>
        <pt x="10" y="-15" on="1"/>
        <pt x="157" y="164" on="1"/>
        <pt x="114" y="231" on="0"/>
        <pt x="70" y="394" on="0"/>
        <pt x="70" y="485" on="1"/>
        <pt x="70" y="642" on="0"/>
        <pt x="168" y="908" on="0"/>
        <pt x="248" y="1018" on="1"/>
        <pt x="290" y="1074" on="0"/>
        <pt x="394" y="1173" on="0"/>
        <pt x="518" y="1247" on="0"/>
        <pt x="663" y="1290" on="0"/>
        <pt x="745" y="1290" on="1"/>
        <pt x="827" y="1290" on="0"/>
        <pt x="960" y="1243" on="0"/>
        <pt x="1011" y="1201" on="1"/>
        <pt x="1063" y="1264" on="1"/>
        <pt x="1077" y="1272" on="0"/>
        <pt x="1124" y="1288" on="0"/>
        <pt x="1173" y="1302" on="0"/>
        <pt x="1220" y="1311" on="0"/>
        <pt x="1234" y="1313" on="1"/>
        <pt x="1260" y="1275" on="1"/>
        <pt x="1105" y="1087" on="1"/>
        <pt x="1143" y="1021" on="0"/>
        <pt x="1180" y="862" on="0"/>
      </contour>
    </TTGlyph>
    <TTGlyph name="Oslashacute" xMin="10" yMin="-53" xMax="1260" yMax="1738">
      <component glyphName="Oslash" x="0" y="0" flags="0x0"/>
      <component glyphName="acutecomb.LP" x="1089" y="320" flags="0x0"/>
    </TTGlyph>
    <TTGlyph name="Otilde" xMin="70" yMin="-31" xMax="1180" yMax="1670">
      <component glyphName="O" x="0" y="0" flags="0x0"/>
      <component glyphName="tildecomb.LP" x="1084" y="320" flags="0x0"/>
    </TTGlyph>
    <TTGlyph name="P" xMin="-10" yMin="0" xMax="1125" yMax="1290">
      <contour>
        <pt x="1125" y="942" on="1"/>
        <pt x="1125" y="857" on="0"/>
        <pt x="1049" y="702" on="0"/>
        <pt x="920" y="585" on="0"/>
        <pt x="749" y="515" on="0"/>
        <pt x="653" y="515" on="1"/>
        <pt x="615" y="515" on="0"/>
        <pt x="537" y="534" on="0"/>
        <pt x="510" y="549" on="1"/>
        <pt x="491" y="663" on="1"/>
        <pt x="525" y="648" on="0"/>
        <pt x="576" y="630" on="0"/>
        <pt x="612" y="630" on="1"/>
        <pt x="727" y="630" on="0"/>
        <pt x="851" y="774" on="0"/>
        <pt x="851" y="905" on="1"/>
        <pt x="851" y="989" on="0"/>
        <pt x="803" y="1094" on="0"/>
        <pt x="723" y="1154" on="0"/>
        <pt x="620" y="1176" on="0"/>
        <pt x="566" y="1176" on="1"/>
        <pt x="560" y="1176" on="0"/>
        <pt x="547" y="1175" on="0"/>
        <pt x="541" y="1175" on="1"/>
        <pt x="397" y="144" on="1"/>
        <pt x="395" y="138" on="0"/>
        <pt x="407" y="124" on="0"/>
        <pt x="441" y="108" on="0"/>
        <pt x="501" y="92" on="0"/>
        <pt x="548" y="83" on="1"/>
        <pt x="538" y="0" on="1"/>
        <pt x="-10" y="0" on="1"/>
        <pt x="0" y="83" on="1"/>
        <pt x="63" y="97" on="0"/>
        <pt x="129" y="130" on="0"/>
        <pt x="131" y="144" on="1"/>
        <pt x="271" y="1150" on="1"/>
        <pt x="236" y="1145" on="0"/>
        <pt x="166" y="1132" on="0"/>
        <pt x="131" y="1125" on="1"/>
        <pt x="131" y="1225" on="1"/>
        <pt x="183" y="1239" on="0"/>
        <pt x="306" y="1263" on="0"/>
        <pt x="432" y="1280" on="0"/>
        <pt x="556" y="1290" on="0"/>
        <pt x="609" y="1290" on="1"/>
        <pt x="732" y="1290" on="0"/>
        <pt x="924" y="1246" on="0"/>
        <pt x="1056" y="1158" on="0"/>
        <pt x="1125" y="1028" on="0"/>
      </contour>
    </TTGlyph>
    <TTGlyph name="Pi" xMin="-20" yMin="0" xMax="1297" yMax="1260">
      <contour>
        <pt x="-20" y="0" on="1"/>
        <pt x="-9" y="83" on="1"/>
        <pt x="54" y="97" on="0"/>
        <pt x="119" y="130" on="0"/>
        <pt x="121" y="144" on="1"/>
        <pt x="254" y="1115" on="1"/>
        <pt x="255" y="1127" on="0"/>
        <pt x="203" y="1163" on="0"/>
        <pt x="141" y="1177" on="1"/>
        <pt x="152" y="1260" on="1"/>
        <pt x="1297" y="1260" on="1"/>
        <pt x="1286" y="1177" on="1"/>
        <pt x="1222" y="1163" on="0"/>
        <pt x="1156" y="1129" on="0"/>
        <pt x="1154" y="1115" on="1"/>
        <pt x="1021" y="144" on="1"/>
        <pt x="1019" y="132" on="0"/>
        <pt x="1072" y="97" on="0"/>
        <pt x="1136" y="83" on="1"/>
        <pt x="1125" y="0" on="1"/>
        <pt x="629" y="0" on="1"/>
        <pt x="640" y="83" on="1"/>
        <pt x="703" y="97" on="0"/>
        <pt x="767" y="130" on="0"/>
        <pt x="769" y="144" on="1"/>
        <pt x="896" y="1070" on="1"/>
        <pt x="897" y="1082" on="0"/>
        <pt x="883" y="1106" on="0"/>
        <pt x="852" y="1126" on="0"/>
        <pt x="801" y="1139" on="0"/>
        <pt x="767" y="1139" on="1"/>
        <pt x="636" y="1139" on="1"/>
        <pt x="603" y="1138" on="0"/>
        <pt x="554" y="1125" on="0"/>
        <pt x="520" y="1106" on="0"/>
        <pt x="501" y="1082" on="0"/>
        <pt x="500" y="1070" on="1"/>
        <pt x="373" y="144" on="1"/>
        <pt x="371" y="132" on="0"/>
        <pt x="423" y="97" on="0"/>
        <pt x="487" y="83" on="1"/>
        <pt x="476" y="0" on="1"/>
      </contour>
    </TTGlyph>
    <TTGlyph name="Q" xMin="70" yMin="-335" xMax="1302" yMax="1290">
      <contour>
        <pt x="911" y="756" on="1"/>
        <pt x="911" y="840" on="0"/>
        <pt x="880" y="986" on="0"/>
        <pt x="820" y="1094" on="0"/>
        <pt x="730" y="1155" on="0"/>
        <pt x="672" y="1155" on="1"/>
        <pt x="616" y="1155" on="0"/>
        <pt x="524" y="1098" on="0"/>
        <pt x="450" y="1001" on="0"/>
        <pt x="396" y="875" on="0"/>
        <pt x="360" y="736" on="0"/>
        <pt x="342" y="595" on="0"/>
        <pt x="342" y="532" on="1"/>
        <pt x="342" y="439" on="0"/>
        <pt x="372" y="283" on="0"/>
        <pt x="431" y="172" on="0"/>
        <pt x="518" y="110" on="0"/>
        <pt x="576" y="110" on="1"/>
        <pt x="635" y="110" on="0"/>
        <pt x="731" y="170" on="0"/>
        <pt x="805" y="272" on="0"/>
        <pt x="859" y="404" on="0"/>
        <pt x="894" y="547" on="0"/>
        <pt x="911" y="693" on="0"/>
      </contour>
      <contour>
        <pt x="1302" y="-127" on="1"/>
        <pt x="1274" y="-171" on="0"/>
        <pt x="1211" y="-246" on="0"/>
        <pt x="1152" y="-303" on="0"/>
        <pt x="1102" y="-335" on="0"/>
        <pt x="1088" y="-335" on="1"/>
        <pt x="1043" y="-335" on="0"/>
        <pt x="956" y="-303" on="0"/>
        <pt x="871" y="-251" on="0"/>
        <pt x="787" y="-184" on="0"/>
        <pt x="703" y="-115" on="0"/>
        <pt x="619" y="-50" on="0"/>
        <pt x="576" y="-26" on="1"/>
        <pt x="559" y="-28" on="0"/>
        <pt x="528" y="-31" on="0"/>
        <pt x="511" y="-31" on="1"/>
        <pt x="407" y="-31" on="0"/>
        <pt x="244" y="51" on="0"/>
        <pt x="130" y="192" on="0"/>
        <pt x="70" y="380" on="0"/>
        <pt x="70" y="485" on="1"/>
        <pt x="70" y="642" on="0"/>
        <pt x="168" y="908" on="0"/>
        <pt x="248" y="1018" on="1"/>
        <pt x="290" y="1074" on="0"/>
        <pt x="394" y="1173" on="0"/>
        <pt x="518" y="1247" on="0"/>
        <pt x="663" y="1290" on="0"/>
        <pt x="745" y="1290" on="1"/>
        <pt x="854" y="1290" on="0"/>
        <pt x="1018" y="1208" on="0"/>
        <pt x="1126" y="1067" on="0"/>
        <pt x="1180" y="879" on="0"/>
        <pt x="1180" y="774" on="1"/>
        <pt x="1180" y="703" on="0"/>
        <pt x="1152" y="557" on="0"/>
        <pt x="1100" y="415" on="0"/>
        <pt x="1026" y="282" on="0"/>
        <pt x="981" y="225" on="1"/>
        <pt x="935" y="167" on="0"/>
        <pt x="818" y="67" on="0"/>
        <pt x="751" y="32" on="1"/>
        <pt x="805" y="13" on="0"/>
        <pt x="901" y="-39" on="0"/>
        <pt x="991" y="-87" on="0"/>
        <pt x="1077" y="-120" on="0"/>
        <pt x="1122" y="-120" on="1"/>
        <pt x="1134" y="-120" on="0"/>
        <pt x="1156" y="-115" on="0"/>
        <pt x="1186" y="-101" on="0"/>
        <pt x="1228" y="-74" on="0"/>
        <pt x="1259" y="-52" on="1"/>
      </contour>
    </TTGlyph>
    <TTGlyph name="R" xMin="-10" yMin="-14" xMax="1187" yMax="1290">
      <contour>
        <pt x="1187" y="119" on="1"/>
        <pt x="1148" y="93" on="0"/>
        <pt x="1051" y="45" on="0"/>
        <pt x="959" y="8" on="0"/>
        <pt x="887" y="-14" on="0"/>
        <pt x="874" y="-14" on="1"/>
        <pt x="857" y="-14" on="0"/>
        <pt x="823" y="-5" on="0"/>
        <pt x="790" y="23" on="0"/>
        <pt x="757" y="74" on="0"/>
        <pt x="742" y="117" on="1"/>
        <pt x="577" y="578" on="1"/>
        <pt x="549" y="578" on="0"/>
        <pt x="486" y="583" on="0"/>
        <pt x="458" y="590" on="1"/>
        <pt x="398" y="144" on="1"/>
        <pt x="395" y="132" on="0"/>
        <pt x="458" y="97" on="0"/>
        <pt x="521" y="83" on="1"/>
        <pt x="510" y="0" on="1"/>
        <pt x="-10" y="0" on="1"/>
        <pt x="1" y="83" on="1"/>
        <pt x="64" y="97" on="0"/>
        <pt x="130" y="130" on="0"/>
        <pt x="132" y="144" on="1"/>
        <pt x="268" y="1150" on="1"/>
        <pt x="230" y="1144" on="0"/>
        <pt x="160" y="1132" on="0"/>
        <pt x="130" y="1125" on="1"/>
        <pt x="131" y="1227" on="1"/>
        <pt x="176" y="1240" on="0"/>
        <pt x="292" y="1263" on="0"/>
        <pt x="422" y="1280" on="0"/>
        <pt x="561" y="1290" on="0"/>
        <pt x="629" y="1290" on="1"/>
        <pt x="852" y="1290" on="0"/>
        <pt x="1088" y="1127" on="0"/>
        <pt x="1088" y="971" on="1"/>
        <pt x="1088" y="920" on="0"/>
        <pt x="1044" y="811" on="0"/>
        <pt x="961" y="712" on="0"/>
        <pt x="843" y="630" on="0"/>
        <pt x="770" y="606" on="1"/>
        <pt x="986" y="224" on="1"/>
        <pt x="999" y="201" on="0"/>
        <pt x="1029" y="178" on="0"/>
        <pt x="1069" y="174" on="0"/>
        <pt x="1122" y="186" on="0"/>
        <pt x="1159" y="197" on="1"/>
      </contour>
      <contour>
        <pt x="578" y="1176" on="1"/>
        <pt x="558" y="1176" on="1"/>
        <pt x="548" y="1176" on="0"/>
        <pt x="537" y="1175" on="1"/>
        <pt x="475" y="713" on="1"/>
        <pt x="498" y="706" on="0"/>
        <pt x="540" y="702" on="0"/>
        <pt x="565" y="702" on="1"/>
        <pt x="614" y="702" on="0"/>
        <pt x="704" y="735" on="0"/>
        <pt x="773" y="796" on="0"/>
        <pt x="815" y="885" on="0"/>
        <pt x="815" y="942" on="1"/>
        <pt x="815" y="1016" on="0"/>
        <pt x="770" y="1107" on="0"/>
        <pt x="701" y="1158" on="0"/>
        <pt x="617" y="1176" on="0"/>
      </contour>
    </TTGlyph>
    <TTGlyph name="Racute" xMin="-10" yMin="-14" xMax="1187" yMax="1738">
      <component glyphName="R" x="0" y="0" flags="0x0"/>
      <component glyphName="acutecomb.LP" x="1011" y="320" flags="0x0"/>
    </TTGlyph>
    <TTGlyph name="Rcaron" xMin="-10" yMin="-14" xMax="1187" yMax="1756">
      <component glyphName="R" x="0" y="0" flags="0x0"/>
      <component glyphName="uni030C.LP" x="1025" y="320" flags="0x0"/>
    </TTGlyph>
    <TTGlyph name="S" xMin="17" yMin="-31" xMax="996" yMax="1290">
      <contour>
        <pt x="992" y="1198" on="1"/>
        <pt x="996" y="1195" on="0"/>
        <pt x="987" y="1162" on="0"/>
        <pt x="967" y="1116" on="0"/>
        <pt x="940" y="1064" on="0"/>
        <pt x="912" y="1017" on="0"/>
        <pt x="887" y="983" on="0"/>
        <pt x="880" y="979" on="1"/>
        <pt x="811" y="985" on="1"/>
        <pt x="800" y="1033" on="0"/>
        <pt x="759" y="1101" on="0"/>
        <pt x="707" y="1145" on="0"/>
        <pt x="647" y="1166" on="0"/>
        <pt x="617" y="1166" on="1"/>
        <pt x="567" y="1166" on="0"/>
        <pt x="495" y="1137" on="0"/>
        <pt x="449" y="1090" on="0"/>
        <pt x="427" y="1028" on="0"/>
        <pt x="427" y="995" on="1"/>
        <pt x="427" y="973" on="0"/>
        <pt x="441" y="925" on="0"/>
        <pt x="485" y="873" on="0"/>
        <pt x="566" y="814" on="0"/>
        <pt x="633" y="780" on="1"/>
        <pt x="712" y="739" on="0"/>
        <pt x="828" y="662" on="0"/>
        <pt x="903" y="579" on="0"/>
        <pt x="940" y="486" on="0"/>
        <pt x="940" y="430" on="1"/>
        <pt x="940" y="336" on="0"/>
        <pt x="856" y="169" on="0"/>
        <pt x="710" y="43" on="0"/>
        <pt x="512" y="-31" on="0"/>
        <pt x="398" y="-31" on="1"/>
        <pt x="342" y="-31" on="0"/>
        <pt x="210" y="-5" on="0"/>
        <pt x="94" y="39" on="0"/>
        <pt x="17" y="95" on="0"/>
        <pt x="17" y="125" on="1"/>
        <pt x="17" y="135" on="0"/>
        <pt x="34" y="175" on="0"/>
        <pt x="61" y="221" on="0"/>
        <pt x="96" y="269" on="0"/>
        <pt x="131" y="309" on="0"/>
        <pt x="163" y="334" on="0"/>
        <pt x="174" y="334" on="1"/>
        <pt x="185" y="334" on="0"/>
        <pt x="215" y="302" on="0"/>
        <pt x="252" y="253" on="0"/>
        <pt x="299" y="197" on="0"/>
        <pt x="359" y="148" on="0"/>
        <pt x="431" y="116" on="0"/>
        <pt x="475" y="116" on="1"/>
        <pt x="519" y="116" on="0"/>
        <pt x="597" y="145" on="0"/>
        <pt x="655" y="199" on="0"/>
        <pt x="689" y="279" on="0"/>
        <pt x="689" y="330" on="1"/>
        <pt x="689" y="375" on="0"/>
        <pt x="659" y="450" on="0"/>
        <pt x="592" y="519" on="0"/>
        <pt x="485" y="585" on="0"/>
        <pt x="409" y="621" on="1"/>
        <pt x="343" y="652" on="0"/>
        <pt x="257" y="721" on="0"/>
        <pt x="208" y="796" on="0"/>
        <pt x="188" y="880" on="0"/>
        <pt x="188" y="928" on="1"/>
        <pt x="188" y="994" on="0"/>
        <pt x="258" y="1124" on="0"/>
        <pt x="386" y="1226" on="0"/>
        <pt x="567" y="1290" on="0"/>
        <pt x="679" y="1290" on="1"/>
        <pt x="782" y="1290" on="0"/>
        <pt x="944" y="1235" on="0"/>
      </contour>
    </TTGlyph>
    <TTGlyph name="Sacute" xMin="17" yMin="-31" xMax="996" yMax="1738">
      <component glyphName="S" x="0" y="0" flags="0x0"/>
      <component glyphName="acutecomb.LP" x="961" y="320" flags="0x0"/>
    </TTGlyph>
    <TTGlyph name="Scaron" xMin="17" yMin="-31" xMax="996" yMax="1756">
      <component glyphName="S" x="0" y="0" flags="0x0"/>
      <component glyphName="uni030C.LP" x="975" y="320" flags="0x0"/>
    </TTGlyph>
    <TTGlyph name="Scircumflex" xMin="17" yMin="-31" xMax="996" yMax="1712">
      <component glyphName="S" x="0" y="0" flags="0x0"/>
      <component glyphName="uni0302.LP" x="970" y="320" flags="0x0"/>
    </TTGlyph>
    <TTGlyph name="T" xMin="88" yMin="0" xMax="1218" yMax="1260">
      <contour>
        <pt x="783" y="0" on="1"/>
        <pt x="236" y="0" on="1"/>
        <pt x="247" y="83" on="1"/>
        <pt x="291" y="92" on="0"/>
        <pt x="349" y="112" on="0"/>
        <pt x="384" y="131" on="0"/>
        <pt x="399" y="148" on="0"/>
        <pt x="400" y="155" on="1"/>
        <pt x="533" y="1130" on="1"/>
        <pt x="311" y="1130" on="1"/>
        <pt x="297" y="1130" on="0"/>
        <pt x="268" y="1105" on="0"/>
        <pt x="234" y="1052" on="0"/>
        <pt x="190" y="968" on="0"/>
        <pt x="161" y="910" on="1"/>
        <pt x="88" y="939" on="1"/>
        <pt x="94" y="968" on="0"/>
        <pt x="116" y="1056" on="0"/>
        <pt x="140" y="1149" on="0"/>
        <pt x="164" y="1234" on="0"/>
        <pt x="172" y="1260" on="1"/>
        <pt x="1186" y="1260" on="1"/>
        <pt x="1218" y="1225" on="1"/>
        <pt x="1214" y="1199" on="0"/>
        <pt x="1196" y="1121" on="0"/>
        <pt x="1184" y="1078" on="1"/>
        <pt x="1161" y="993" on="1"/>
        <pt x="1150" y="951" on="0"/>
        <pt x="1140" y="920" on="1"/>
        <pt x="1061" y="920" on="1"/>
        <pt x="1058" y="966" on="0"/>
        <pt x="1057" y="1044" on="0"/>
        <pt x="1049" y="1099" on="0"/>
        <pt x="1031" y="1130" on="0"/>
        <pt x="1011" y="1130" on="1"/>
        <pt x="794" y="1130" on="1"/>
        <pt x="661" y="155" on="1"/>
        <pt x="660" y="149" on="0"/>
        <pt x="670" y="132" on="0"/>
        <pt x="700" y="112" on="0"/>
        <pt x="752" y="92" on="0"/>
        <pt x="794" y="83" on="1"/>
      </contour>
    </TTGlyph>
    <TTGlyph name="Tcaron" xMin="88" yMin="0" xMax="1218" yMax="1756">
      <component glyphName="T" x="0" y="0" flags="0x0"/>
      <component glyphName="uni030C.LP" x="1047" y="320" flags="0x0"/>
    </TTGlyph>
    <TTGlyph name="Thorn" xMin="-10" yMin="0" xMax="1084" yMax="1260">
      <contour>
        <pt x="692" y="1177" on="1"/>
        <pt x="645" y="1168" on="0"/>
        <pt x="582" y="1152" on="0"/>
        <pt x="544" y="1137" on="0"/>
        <pt x="527" y="1122" on="0"/>
        <pt x="526" y="1115" on="1"/>
        <pt x="513" y="1019" on="1"/>
        <pt x="577" y="1030" on="0"/>
        <pt x="653" y="1030" on="1"/>
        <pt x="752" y="1030" on="0"/>
        <pt x="911" y="980" on="0"/>
        <pt x="1023" y="890" on="0"/>
        <pt x="1084" y="765" on="0"/>
        <pt x="1084" y="690" on="1"/>
        <pt x="1084" y="603" on="0"/>
        <pt x="1015" y="445" on="0"/>
        <pt x="890" y="325" on="0"/>
        <pt x="714" y="254" on="0"/>
        <pt x="608" y="254" on="1"/>
        <pt x="566" y="254" on="0"/>
        <pt x="495" y="270" on="0"/>
        <pt x="467" y="287" on="1"/>
        <pt x="456" y="401" on="1"/>
        <pt x="492" y="382" on="0"/>
        <pt x="560" y="372" on="0"/>
        <pt x="592" y="372" on="1"/>
        <pt x="637" y="372" on="0"/>
        <pt x="717" y="410" on="0"/>
        <pt x="777" y="482" on="0"/>
        <pt x="813" y="586" on="0"/>
        <pt x="813" y="651" on="1"/>
        <pt x="813" y="720" on="0"/>
        <pt x="777" y="818" on="0"/>
        <pt x="716" y="880" on="0"/>
        <pt x="636" y="908" on="0"/>
        <pt x="592" y="908" on="1"/>
        <pt x="568" y="908" on="0"/>
        <pt x="520" y="902" on="0"/>
        <pt x="496" y="897" on="1"/>
        <pt x="395" y="144" on="1"/>
        <pt x="393" y="138" on="0"/>
        <pt x="405" y="124" on="0"/>
        <pt x="439" y="108" on="0"/>
        <pt x="497" y="92" on="0"/>
        <pt x="542" y="83" on="1"/>
        <pt x="532" y="0" on="1"/>
        <pt x="-10" y="0" on="1"/>
        <pt x="0" y="83" on="1"/>
        <pt x="63" y="97" on="0"/>
        <pt x="128" y="130" on="0"/>
        <pt x="130" y="144" on="1"/>
        <pt x="263" y="1115" on="1"/>
        <pt x="265" y="1127" on="0"/>
        <pt x="213" y="1163" on="0"/>
        <pt x="150" y="1177" on="1"/>
        <pt x="161" y="1260" on="1"/>
        <pt x="703" y="1260" on="1"/>
      </contour>
    </TTGlyph>
    <TTGlyph name="U" xMin="158" yMin="-31" xMax="1351" yMax="1260">
      <contour>
        <pt x="1340" y="1177" on="1"/>
        <pt x="1277" y="1163" on="0"/>
        <pt x="1217" y="1129" on="0"/>
        <pt x="1215" y="1115" on="1"/>
        <pt x="1130" y="512" on="1"/>
        <pt x="1112" y="381" on="0"/>
        <pt x="1013" y="178" on="0"/>
        <pt x="870" y="40" on="0"/>
        <pt x="691" y="-31" on="0"/>
        <pt x="592" y="-31" on="1"/>
        <pt x="510" y="-31" on="0"/>
        <pt x="358" y="19" on="0"/>
        <pt x="241" y="115" on="0"/>
        <pt x="171" y="256" on="0"/>
        <pt x="171" y="348" on="1"/>
        <pt x="171" y="401" on="0"/>
        <pt x="180" y="463" on="1"/>
        <pt x="273" y="1115" on="1"/>
        <pt x="274" y="1127" on="0"/>
        <pt x="222" y="1163" on="0"/>
        <pt x="158" y="1177" on="1"/>
        <pt x="169" y="1260" on="1"/>
        <pt x="674" y="1260" on="1"/>
        <pt x="663" y="1177" on="1"/>
        <pt x="600" y="1163" on="0"/>
        <pt x="533" y="1129" on="0"/>
        <pt x="531" y="1115" on="1"/>
        <pt x="443" y="510" on="1"/>
        <pt x="438" y="481" on="0"/>
        <pt x="432" y="423" on="0"/>
        <pt x="432" y="397" on="1"/>
        <pt x="432" y="257" on="0"/>
        <pt x="549" y="126" on="0"/>
        <pt x="673" y="126" on="1"/>
        <pt x="738" y="126" on="0"/>
        <pt x="833" y="177" on="0"/>
        <pt x="898" y="269" on="0"/>
        <pt x="937" y="394" on="0"/>
        <pt x="947" y="469" on="1"/>
        <pt x="1038" y="1115" on="1"/>
        <pt x="1039" y="1121" on="0"/>
        <pt x="1029" y="1137" on="0"/>
        <pt x="1004" y="1153" on="0"/>
        <pt x="961" y="1170" on="0"/>
        <pt x="929" y="1177" on="1"/>
        <pt x="940" y="1260" on="1"/>
        <pt x="1351" y="1260" on="1"/>
      </contour>
    </TTGlyph>
    <TTGlyph name="Uacute" xMin="158" yMin="-31" xMax="1351" yMax="1738">
      <component glyphName="U" x="0" y="0" flags="0x0"/>
      <component glyphName="acutecomb.LP" x="1127" y="320" flags="0x0"/>
    </TTGlyph>
    <TTGlyph name="Ubreve" xMin="158" yMin="-31" xMax="1351" yMax="1738">
      <component glyphName="U" x="0" y="0" flags="0x0"/>
      <component glyphName="uni0306" x="1163" y="320" flags="0x0"/>
    </TTGlyph>
    <TTGlyph name="Ucircumflex" xMin="158" yMin="-31" xMax="1351" yMax="1712">
      <component glyphName="U" x="0" y="0" flags="0x0"/>
      <component glyphName="uni0302.LP" x="1136" y="320" flags="0x0"/>
    </TTGlyph>
    <TTGlyph name="Udieresis" xMin="158" yMin="-31" xMax="1351" yMax="1663">
      <component glyphName="U" x="0" y="0" flags="0x0"/>
      <component glyphName="uni0308.LP" x="1149" y="320" flags="0x0"/>
    </TTGlyph>
    <TTGlyph name="Ugrave" xMin="158" yMin="-31" xMax="1351" yMax="1738">
      <component glyphName="U" x="0" y="0" flags="0x0"/>
      <component glyphName="gravecomb.LP" x="1049" y="320" flags="0x0"/>
    </TTGlyph>
    <TTGlyph name="Uhorn" xMin="158" yMin="-31" xMax="1573" yMax="1518">
      <contour>
        <pt x="1573" y="1418" on="1"/>
        <pt x="1573" y="1312" on="0"/>
        <pt x="1387" y="1126" on="0"/>
        <pt x="1207" y="1061" on="1"/>
        <pt x="1130" y="512" on="1"/>
        <pt x="1112" y="381" on="0"/>
        <pt x="1013" y="178" on="0"/>
        <pt x="870" y="40" on="0"/>
        <pt x="691" y="-31" on="0"/>
        <pt x="592" y="-31" on="1"/>
        <pt x="510" y="-31" on="0"/>
        <pt x="358" y="19" on="0"/>
        <pt x="241" y="115" on="0"/>
        <pt x="171" y="256" on="0"/>
        <pt x="171" y="348" on="1"/>
        <pt x="171" y="401" on="0"/>
        <pt x="180" y="463" on="1"/>
        <pt x="273" y="1115" on="1"/>
        <pt x="274" y="1127" on="0"/>
        <pt x="222" y="1163" on="0"/>
        <pt x="158" y="1177" on="1"/>
        <pt x="169" y="1260" on="1"/>
        <pt x="674" y="1260" on="1"/>
        <pt x="663" y="1177" on="1"/>
        <pt x="600" y="1163" on="0"/>
        <pt x="533" y="1129" on="0"/>
        <pt x="531" y="1115" on="1"/>
        <pt x="443" y="510" on="1"/>
        <pt x="438" y="481" on="0"/>
        <pt x="432" y="423" on="0"/>
        <pt x="432" y="397" on="1"/>
        <pt x="432" y="257" on="0"/>
        <pt x="549" y="126" on="0"/>
        <pt x="673" y="126" on="1"/>
        <pt x="738" y="126" on="0"/>
        <pt x="833" y="177" on="0"/>
        <pt x="898" y="269" on="0"/>
        <pt x="937" y="394" on="0"/>
        <pt x="947" y="469" on="1"/>
        <pt x="1038" y="1115" on="1"/>
        <pt x="1039" y="1121" on="0"/>
        <pt x="1029" y="1137" on="0"/>
        <pt x="1004" y="1153" on="0"/>
        <pt x="961" y="1170" on="0"/>
        <pt x="929" y="1177" on="1"/>
        <pt x="940" y="1260" on="1"/>
        <pt x="1317" y="1260" on="1"/>
        <pt x="1327" y="1282" on="0"/>
        <pt x="1327" y="1303" on="1"/>
        <pt x="1327" y="1312" on="0"/>
        <pt x="1321" y="1338" on="0"/>
        <pt x="1307" y="1366" on="0"/>
        <pt x="1287" y="1390" on="0"/>
        <pt x="1272" y="1398" on="1"/>
        <pt x="1520" y="1518" on="1"/>
        <pt x="1532" y="1510" on="0"/>
        <pt x="1552" y="1486" on="0"/>
        <pt x="1566" y="1457" on="0"/>
        <pt x="1573" y="1429" on="0"/>
      </contour>
    </TTGlyph>
    <TTGlyph name="Uhungarumlaut" xMin="158" yMin="-31" xMax="1351" yMax="1789">
      <component glyphName="U" x="0" y="0" flags="0x0"/>
      <component glyphName="uni030B" x="1135" y="320" flags="0x0"/>
    </TTGlyph>
    <TTGlyph name="Umacron" xMin="158" yMin="-31" xMax="1351" yMax="1610">
      <component glyphName="U" x="0" y="0" flags="0x0"/>
      <component glyphName="uni0304.LP" x="1139" y="320" flags="0x0"/>
    </TTGlyph>
    <TTGlyph name="Uring" xMin="158" yMin="-31" xMax="1351" yMax="1787">
      <component glyphName="U" x="0" y="0" flags="0x0"/>
      <component glyphName="uni030A" x="1128" y="320" flags="0x0"/>
    </TTGlyph>
    <TTGlyph name="Utilde" xMin="158" yMin="-31" xMax="1351" yMax="1670">
      <component glyphName="U" x="0" y="0" flags="0x0"/>
      <component glyphName="tildecomb.LP" x="1129" y="320" flags="0x0"/>
    </TTGlyph>
    <TTGlyph name="V" xMin="119" yMin="-30" xMax="1367" yMax="1260">
      <contour>
        <pt x="1356" y="1177" on="1"/>
        <pt x="1290" y="1164" on="0"/>
        <pt x="1216" y="1139" on="0"/>
        <pt x="1203" y="1111" on="1"/>
        <pt x="716" y="89" on="1"/>
        <pt x="706" y="67" on="0"/>
        <pt x="658" y="29" on="0"/>
        <pt x="597" y="-1" on="0"/>
        <pt x="531" y="-23" on="0"/>
        <pt x="504" y="-30" on="1"/>
        <pt x="233" y="1111" on="1"/>
        <pt x="226" y="1137" on="0"/>
        <pt x="176" y="1169" on="0"/>
        <pt x="119" y="1177" on="1"/>
        <pt x="130" y="1260" on="1"/>
        <pt x="628" y="1260" on="1"/>
        <pt x="617" y="1177" on="1"/>
        <pt x="542" y="1171" on="0"/>
        <pt x="491" y="1142" on="0"/>
        <pt x="498" y="1113" on="1"/>
        <pt x="681" y="313" on="1"/>
        <pt x="1055" y="1111" on="1"/>
        <pt x="1062" y="1126" on="0"/>
        <pt x="1059" y="1146" on="0"/>
        <pt x="1035" y="1161" on="0"/>
        <pt x="988" y="1172" on="0"/>
        <pt x="951" y="1177" on="1"/>
        <pt x="962" y="1260" on="1"/>
        <pt x="1367" y="1260" on="1"/>
      </contour>
    </TTGlyph>
    <TTGlyph name="W" xMin="109" yMin="-30" xMax="1721" yMax="1260">
      <contour>
        <pt x="1710" y="1177" on="1"/>
        <pt x="1667" y="1168" on="0"/>
        <pt x="1611" y="1152" on="0"/>
        <pt x="1578" y="1137" on="0"/>
        <pt x="1562" y="1123" on="0"/>
        <pt x="1560" y="1115" on="1"/>
        <pt x="1203" y="59" on="1"/>
        <pt x="1196" y="38" on="0"/>
        <pt x="1158" y="7" on="0"/>
        <pt x="1112" y="-14" on="0"/>
        <pt x="1066" y="-27" on="0"/>
        <pt x="1051" y="-30" on="1"/>
        <pt x="850" y="854" on="1"/>
        <pt x="475" y="59" on="1"/>
        <pt x="466" y="38" on="0"/>
        <pt x="427" y="8" on="0"/>
        <pt x="381" y="-13" on="0"/>
        <pt x="332" y="-26" on="0"/>
        <pt x="313" y="-30" on="1"/>
        <pt x="227" y="1107" on="1"/>
        <pt x="225" y="1132" on="0"/>
        <pt x="173" y="1164" on="0"/>
        <pt x="109" y="1177" on="1"/>
        <pt x="120" y="1260" on="1"/>
        <pt x="593" y="1260" on="1"/>
        <pt x="582" y="1177" on="1"/>
        <pt x="536" y="1172" on="0"/>
        <pt x="484" y="1157" on="0"/>
        <pt x="459" y="1139" on="0"/>
        <pt x="454" y="1118" on="0"/>
        <pt x="455" y="1107" on="1"/>
        <pt x="512" y="430" on="1"/>
        <pt x="888" y="1260" on="1"/>
        <pt x="995" y="1260" on="1"/>
        <pt x="1187" y="430" on="1"/>
        <pt x="1422" y="1115" on="1"/>
        <pt x="1426" y="1127" on="0"/>
        <pt x="1408" y="1145" on="0"/>
        <pt x="1371" y="1159" on="0"/>
        <pt x="1319" y="1171" on="0"/>
        <pt x="1288" y="1177" on="1"/>
        <pt x="1299" y="1260" on="1"/>
        <pt x="1721" y="1260" on="1"/>
      </contour>
    </TTGlyph>
    <TTGlyph name="Wacute" xMin="109" yMin="-30" xMax="1721" yMax="1738">
      <component glyphName="W" x="0" y="0" flags="0x0"/>
      <component glyphName="acutecomb.LP" x="1293" y="320" flags="0x0"/>
    </TTGlyph>
    <TTGlyph name="Wcircumflex" xMin="109" yMin="-30" xMax="1721" yMax="1712">
      <component glyphName="W" x="0" y="0" flags="0x0"/>
      <component glyphName="uni0302.LP" x="1302" y="320" flags="0x0"/>
    </TTGlyph>
    <TTGlyph name="Wdieresis" xMin="109" yMin="-30" xMax="1721" yMax="1663">
      <component glyphName="W" x="0" y="0" flags="0x0"/>
      <component glyphName="uni0308.LP" x="1315" y="320" flags="0x0"/>
    </TTGlyph>
    <TTGlyph name="Wgrave" xMin="109" yMin="-30" xMax="1721" yMax="1738">
      <component glyphName="W" x="0" y="0" flags="0x0"/>
      <component glyphName="gravecomb.LP" x="1215" y="320" flags="0x0"/>
    </TTGlyph>
    <TTGlyph name="X" xMin="-40" yMin="0" xMax="1256" yMax="1260">
      <contour>
        <pt x="1129" y="0" on="1"/>
        <pt x="608" y="0" on="1"/>
        <pt x="619" y="83" on="1"/>
        <pt x="661" y="87" on="0"/>
        <pt x="713" y="100" on="0"/>
        <pt x="738" y="119" on="0"/>
        <pt x="737" y="147" on="0"/>
        <pt x="727" y="167" on="1"/>
        <pt x="566" y="488" on="1"/>
        <pt x="317" y="167" on="1"/>
        <pt x="300" y="145" on="0"/>
        <pt x="287" y="116" on="0"/>
        <pt x="301" y="97" on="0"/>
        <pt x="347" y="86" on="0"/>
        <pt x="389" y="83" on="1"/>
        <pt x="378" y="0" on="1"/>
        <pt x="-40" y="0" on="1"/>
        <pt x="-29" y="83" on="1"/>
        <pt x="32" y="88" on="0"/>
        <pt x="120" y="127" on="0"/>
        <pt x="151" y="167" on="1"/>
        <pt x="498" y="624" on="1"/>
        <pt x="263" y="1093" on="1"/>
        <pt x="252" y="1115" on="0"/>
        <pt x="230" y="1143" on="0"/>
        <pt x="201" y="1161" on="0"/>
        <pt x="160" y="1172" on="0"/>
        <pt x="130" y="1177" on="1"/>
        <pt x="141" y="1260" on="1"/>
        <pt x="672" y="1260" on="1"/>
        <pt x="661" y="1177" on="1"/>
        <pt x="581" y="1169" on="0"/>
        <pt x="527" y="1136" on="0"/>
        <pt x="549" y="1093" on="1"/>
        <pt x="691" y="810" on="1"/>
        <pt x="896" y="1093" on="1"/>
        <pt x="913" y="1116" on="0"/>
        <pt x="925" y="1145" on="0"/>
        <pt x="910" y="1164" on="0"/>
        <pt x="864" y="1174" on="0"/>
        <pt x="824" y="1177" on="1"/>
        <pt x="835" y="1260" on="1"/>
        <pt x="1256" y="1260" on="1"/>
        <pt x="1245" y="1177" on="1"/>
        <pt x="1210" y="1173" on="0"/>
        <pt x="1157" y="1161" on="0"/>
        <pt x="1113" y="1142" on="0"/>
        <pt x="1078" y="1114" on="0"/>
        <pt x="1063" y="1093" on="1"/>
        <pt x="757" y="678" on="1"/>
        <pt x="1014" y="167" on="1"/>
        <pt x="1025" y="146" on="0"/>
        <pt x="1047" y="117" on="0"/>
        <pt x="1075" y="98" on="0"/>
        <pt x="1113" y="87" on="0"/>
        <pt x="1140" y="83" on="1"/>
      </contour>
    </TTGlyph>
    <TTGlyph name="Y" xMin="122" yMin="0" xMax="1281" yMax="1270">
      <contour>
        <pt x="825" y="0" on="1"/>
        <pt x="276" y="0" on="1"/>
        <pt x="287" y="83" on="1"/>
        <pt x="330" y="92" on="0"/>
        <pt x="388" y="112" on="0"/>
        <pt x="423" y="131" on="0"/>
        <pt x="439" y="148" on="0"/>
        <pt x="440" y="155" on="1"/>
        <pt x="491" y="528" on="1"/>
        <pt x="468" y="607" on="0"/>
        <pt x="409" y="775" on="0"/>
        <pt x="346" y="930" on="0"/>
        <pt x="284" y="1064" on="0"/>
        <pt x="259" y="1111" on="1"/>
        <pt x="253" y="1122" on="0"/>
        <pt x="237" y="1139" on="0"/>
        <pt x="208" y="1150" on="0"/>
        <pt x="161" y="1156" on="0"/>
        <pt x="122" y="1156" on="1"/>
        <pt x="129" y="1239" on="1"/>
        <pt x="157" y="1243" on="0"/>
        <pt x="232" y="1254" on="0"/>
        <pt x="307" y="1263" on="0"/>
        <pt x="373" y="1270" on="0"/>
        <pt x="392" y="1270" on="1"/>
        <pt x="420" y="1270" on="0"/>
        <pt x="474" y="1244" on="0"/>
        <pt x="487" y="1221" on="1"/>
        <pt x="514" y="1171" on="0"/>
        <pt x="572" y="1043" on="0"/>
        <pt x="628" y="901" on="0"/>
        <pt x="680" y="750" on="0"/>
        <pt x="702" y="678" on="1"/>
        <pt x="969" y="1111" on="1"/>
        <pt x="985" y="1137" on="0"/>
        <pt x="944" y="1167" on="0"/>
        <pt x="874" y="1177" on="1"/>
        <pt x="885" y="1260" on="1"/>
        <pt x="1281" y="1260" on="1"/>
        <pt x="1270" y="1177" on="1"/>
        <pt x="1205" y="1164" on="0"/>
        <pt x="1142" y="1136" on="0"/>
        <pt x="1126" y="1111" on="1"/>
        <pt x="750" y="516" on="1"/>
        <pt x="701" y="155" on="1"/>
        <pt x="700" y="149" on="0"/>
        <pt x="710" y="132" on="0"/>
        <pt x="740" y="112" on="0"/>
        <pt x="794" y="92" on="0"/>
        <pt x="836" y="83" on="1"/>
      </contour>
    </TTGlyph>
    <TTGlyph name="Yacute" xMin="122" yMin="0" xMax="1281" yMax="1738">
      <component glyphName="Y" x="0" y="0" flags="0x0"/>
      <component glyphName="acutecomb.LP" x="1078" y="320" flags="0x0"/>
    </TTGlyph>
    <TTGlyph name="Ycircumflex" xMin="122" yMin="0" xMax="1281" yMax="1712">
      <component glyphName="Y" x="0" y="0" flags="0x0"/>
      <component glyphName="uni0302.LP" x="1087" y="320" flags="0x0"/>
    </TTGlyph>
    <TTGlyph name="Ydieresis" xMin="122" yMin="0" xMax="1281" yMax="1663">
      <component glyphName="Y" x="0" y="0" flags="0x0"/>
      <component glyphName="uni0308.LP" x="1100" y="320" flags="0x0"/>
    </TTGlyph>
    <TTGlyph name="Ygrave" xMin="122" yMin="0" xMax="1281" yMax="1738">
      <component glyphName="Y" x="0" y="0" flags="0x0"/>
      <component glyphName="gravecomb.LP" x="1000" y="320" flags="0x0"/>
    </TTGlyph>
    <TTGlyph name="Z" xMin="11" yMin="0" xMax="1100" yMax="1276">
      <contour>
        <pt x="345" y="140" on="1"/>
        <pt x="748" y="140" on="1"/>
        <pt x="768" y="140" on="0"/>
        <pt x="804" y="174" on="0"/>
        <pt x="841" y="240" on="0"/>
        <pt x="884" y="335" on="0"/>
        <pt x="910" y="397" on="1"/>
        <pt x="996" y="373" on="1"/>
        <pt x="990" y="341" on="0"/>
        <pt x="972" y="238" on="0"/>
        <pt x="954" y="129" on="0"/>
        <pt x="938" y="29" on="0"/>
        <pt x="934" y="0" on="1"/>
        <pt x="40" y="0" on="1"/>
        <pt x="11" y="55" on="1"/>
        <pt x="771" y="1120" on="1"/>
        <pt x="428" y="1120" on="1"/>
        <pt x="413" y="1120" on="0"/>
        <pt x="370" y="1082" on="0"/>
        <pt x="323" y="1015" on="0"/>
        <pt x="278" y="925" on="0"/>
        <pt x="261" y="873" on="1"/>
        <pt x="174" y="895" on="1"/>
        <pt x="262" y="1276" on="1"/>
        <pt x="287" y="1270" on="0"/>
        <pt x="327" y="1263" on="0"/>
        <pt x="367" y="1260" on="0"/>
        <pt x="388" y="1260" on="1"/>
        <pt x="1075" y="1260" on="1"/>
        <pt x="1100" y="1207" on="1"/>
      </contour>
    </TTGlyph>
    <TTGlyph name="Zacute" xMin="11" yMin="0" xMax="1100" yMax="1738">
      <component glyphName="Z" x="0" y="0" flags="0x0"/>
      <component glyphName="acutecomb.LP" x="1010" y="320" flags="0x0"/>
    </TTGlyph>
    <TTGlyph name="Zcaron" xMin="11" yMin="0" xMax="1100" yMax="1756">
      <component glyphName="Z" x="0" y="0" flags="0x0"/>
      <component glyphName="uni030C.LP" x="1024" y="320" flags="0x0"/>
    </TTGlyph>
    <TTGlyph name="Zdotaccent" xMin="11" yMin="0" xMax="1100" yMax="1663">
      <component glyphName="Z" x="0" y="0" flags="0x0"/>
      <component glyphName="uni0307.LP" x="1013" y="320" flags="0x0"/>
    </TTGlyph>
    <TTGlyph name="a" xMin="33" yMin="-41" xMax="1006" yMax="936">
      <contour>
        <pt x="577" y="360" on="1"/>
        <pt x="582" y="401" on="0"/>
        <pt x="596" y="497" on="0"/>
        <pt x="611" y="593" on="0"/>
        <pt x="626" y="681" on="0"/>
        <pt x="632" y="715" on="1"/>
        <pt x="604" y="742" on="0"/>
        <pt x="546" y="782" on="0"/>
        <pt x="520" y="781" on="1"/>
        <pt x="479" y="780" on="0"/>
        <pt x="413" y="742" on="0"/>
        <pt x="362" y="679" on="0"/>
        <pt x="325" y="597" on="0"/>
        <pt x="301" y="508" on="0"/>
        <pt x="290" y="418" on="0"/>
        <pt x="290" y="379" on="1"/>
        <pt x="290" y="326" on="0"/>
        <pt x="304" y="249" on="0"/>
        <pt x="328" y="199" on="0"/>
        <pt x="357" y="176" on="0"/>
        <pt x="372" y="176" on="1"/>
        <pt x="385" y="176" on="0"/>
        <pt x="423" y="194" on="0"/>
        <pt x="474" y="237" on="0"/>
        <pt x="538" y="308" on="0"/>
      </contour>
      <contour>
        <pt x="1006" y="118" on="1"/>
        <pt x="964" y="88" on="0"/>
        <pt x="877" y="30" on="0"/>
        <pt x="799" y="-14" on="0"/>
        <pt x="736" y="-41" on="0"/>
        <pt x="718" y="-41" on="1"/>
        <pt x="702" y="-41" on="0"/>
        <pt x="657" y="-20" on="0"/>
        <pt x="614" y="30" on="0"/>
        <pt x="577" y="113" on="0"/>
        <pt x="570" y="176" on="1"/>
        <pt x="537" y="132" on="0"/>
        <pt x="464" y="53" on="0"/>
        <pt x="387" y="-6" on="0"/>
        <pt x="307" y="-41" on="0"/>
        <pt x="266" y="-41" on="1"/>
        <pt x="229" y="-41" on="0"/>
        <pt x="147" y="-3" on="0"/>
        <pt x="78" y="80" on="0"/>
        <pt x="33" y="211" on="0"/>
        <pt x="33" y="305" on="1"/>
        <pt x="33" y="384" on="0"/>
        <pt x="74" y="535" on="0"/>
        <pt x="150" y="673" on="0"/>
        <pt x="261" y="794" on="0"/>
        <pt x="332" y="842" on="1"/>
        <pt x="386" y="879" on="0"/>
        <pt x="540" y="936" on="0"/>
        <pt x="632" y="936" on="1"/>
        <pt x="674" y="936" on="0"/>
        <pt x="756" y="899" on="0"/>
        <pt x="793" y="876" on="1"/>
        <pt x="831" y="893" on="0"/>
        <pt x="904" y="922" on="0"/>
        <pt x="932" y="936" on="1"/>
        <pt x="967" y="861" on="1"/>
        <pt x="950" y="847" on="0"/>
        <pt x="927" y="825" on="0"/>
        <pt x="911" y="796" on="0"/>
        <pt x="898" y="754" on="0"/>
        <pt x="891" y="720" on="1"/>
        <pt x="876" y="648" on="0"/>
        <pt x="853" y="519" on="0"/>
        <pt x="838" y="411" on="0"/>
        <pt x="830" y="331" on="0"/>
        <pt x="830" y="309" on="1"/>
        <pt x="830" y="282" on="0"/>
        <pt x="838" y="231" on="0"/>
        <pt x="853" y="190" on="0"/>
        <pt x="872" y="166" on="0"/>
        <pt x="884" y="166" on="1"/>
        <pt x="904" y="166" on="0"/>
        <pt x="949" y="177" on="0"/>
        <pt x="989" y="194" on="1"/>
      </contour>
    </TTGlyph>
    <TTGlyph name="a.SngStory" xMin="33" yMin="-41" xMax="1006" yMax="936">
      <contour>
        <pt x="577" y="360" on="1"/>
        <pt x="582" y="401" on="0"/>
        <pt x="596" y="497" on="0"/>
        <pt x="611" y="593" on="0"/>
        <pt x="626" y="681" on="0"/>
        <pt x="632" y="715" on="1"/>
        <pt x="604" y="742" on="0"/>
        <pt x="546" y="782" on="0"/>
        <pt x="520" y="781" on="1"/>
        <pt x="479" y="780" on="0"/>
        <pt x="413" y="742" on="0"/>
        <pt x="362" y="679" on="0"/>
        <pt x="325" y="597" on="0"/>
        <pt x="301" y="508" on="0"/>
        <pt x="290" y="418" on="0"/>
        <pt x="290" y="379" on="1"/>
        <pt x="290" y="326" on="0"/>
        <pt x="304" y="249" on="0"/>
        <pt x="328" y="199" on="0"/>
        <pt x="357" y="176" on="0"/>
        <pt x="372" y="176" on="1"/>
        <pt x="385" y="176" on="0"/>
        <pt x="423" y="194" on="0"/>
        <pt x="474" y="237" on="0"/>
        <pt x="538" y="308" on="0"/>
      </contour>
      <contour>
        <pt x="1006" y="118" on="1"/>
        <pt x="964" y="88" on="0"/>
        <pt x="877" y="30" on="0"/>
        <pt x="799" y="-14" on="0"/>
        <pt x="736" y="-41" on="0"/>
        <pt x="718" y="-41" on="1"/>
        <pt x="702" y="-41" on="0"/>
        <pt x="657" y="-20" on="0"/>
        <pt x="614" y="30" on="0"/>
        <pt x="577" y="113" on="0"/>
        <pt x="570" y="176" on="1"/>
        <pt x="537" y="132" on="0"/>
        <pt x="464" y="53" on="0"/>
        <pt x="387" y="-6" on="0"/>
        <pt x="307" y="-41" on="0"/>
        <pt x="266" y="-41" on="1"/>
        <pt x="229" y="-41" on="0"/>
        <pt x="147" y="-3" on="0"/>
        <pt x="78" y="80" on="0"/>
        <pt x="33" y="211" on="0"/>
        <pt x="33" y="305" on="1"/>
        <pt x="33" y="384" on="0"/>
        <pt x="74" y="535" on="0"/>
        <pt x="150" y="673" on="0"/>
        <pt x="261" y="794" on="0"/>
        <pt x="332" y="842" on="1"/>
        <pt x="386" y="879" on="0"/>
        <pt x="540" y="936" on="0"/>
        <pt x="632" y="936" on="1"/>
        <pt x="674" y="936" on="0"/>
        <pt x="756" y="899" on="0"/>
        <pt x="793" y="876" on="1"/>
        <pt x="831" y="893" on="0"/>
        <pt x="904" y="922" on="0"/>
        <pt x="932" y="936" on="1"/>
        <pt x="967" y="861" on="1"/>
        <pt x="950" y="847" on="0"/>
        <pt x="927" y="825" on="0"/>
        <pt x="911" y="796" on="0"/>
        <pt x="898" y="754" on="0"/>
        <pt x="891" y="720" on="1"/>
        <pt x="876" y="648" on="0"/>
        <pt x="853" y="519" on="0"/>
        <pt x="838" y="411" on="0"/>
        <pt x="830" y="331" on="0"/>
        <pt x="830" y="309" on="1"/>
        <pt x="830" y="282" on="0"/>
        <pt x="838" y="231" on="0"/>
        <pt x="853" y="190" on="0"/>
        <pt x="872" y="166" on="0"/>
        <pt x="884" y="166" on="1"/>
        <pt x="904" y="166" on="0"/>
        <pt x="949" y="177" on="0"/>
        <pt x="989" y="194" on="1"/>
      </contour>
    </TTGlyph>
    <TTGlyph name="aacute" xMin="33" yMin="-41" xMax="1006" yMax="1469">
      <component glyphName="a" x="0" y="0" flags="0x0"/>
      <component glyphName="acutecomb" x="945" y="0" flags="0x0"/>
    </TTGlyph>
    <TTGlyph name="aacute.SngStory" xMin="33" yMin="-41" xMax="1006" yMax="1469">
      <component glyphName="a.SngStory" x="0" y="0" flags="0x0"/>
      <component glyphName="acutecomb" x="945" y="0" flags="0x0"/>
    </TTGlyph>
    <TTGlyph name="abreve" xMin="33" yMin="-41" xMax="1006" yMax="1418">
      <component glyphName="a" x="0" y="0" flags="0x0"/>
      <component glyphName="uni0306" x="981" y="0" flags="0x0"/>
    </TTGlyph>
    <TTGlyph name="abreve.SngStory" xMin="33" yMin="-41" xMax="1006" yMax="1418">
      <component glyphName="a.SngStory" x="0" y="0" flags="0x0"/>
      <component glyphName="uni0306" x="981" y="0" flags="0x0"/>
    </TTGlyph>
    <TTGlyph name="acircumflex" xMin="33" yMin="-41" xMax="1006" yMax="1462">
      <component glyphName="a" x="0" y="0" flags="0x0"/>
      <component glyphName="uni0302" x="964" y="0" flags="0x0"/>
    </TTGlyph>
    <TTGlyph name="acircumflex.SngStory" xMin="33" yMin="-41" xMax="1006" yMax="1462">
      <component glyphName="a.SngStory" x="0" y="0" flags="0x0"/>
      <component glyphName="uni0302" x="964" y="0" flags="0x0"/>
    </TTGlyph>
    <TTGlyph name="acute" xMin="158" yMin="1016" xMax="618" yMax="1469">
      <contour>
        <pt x="618" y="1364" on="1"/>
        <pt x="233" y="1016" on="1"/>
        <pt x="225" y="1018" on="0"/>
        <pt x="205" y="1029" on="0"/>
        <pt x="184" y="1044" on="0"/>
        <pt x="165" y="1062" on="0"/>
        <pt x="158" y="1071" on="1"/>
        <pt x="380" y="1469" on="1"/>
        <pt x="392" y="1468" on="0"/>
        <pt x="454" y="1457" on="0"/>
        <pt x="523" y="1444" on="0"/>
        <pt x="584" y="1432" on="0"/>
        <pt x="593" y="1429" on="1"/>
      </contour>
    </TTGlyph>
    <TTGlyph name="acutecomb" xMin="-428" yMin="1016" xMax="32" yMax="1469">
      <contour>
        <pt x="32" y="1364" on="1"/>
        <pt x="-353" y="1016" on="1"/>
        <pt x="-361" y="1018" on="0"/>
        <pt x="-381" y="1029" on="0"/>
        <pt x="-402" y="1044" on="0"/>
        <pt x="-421" y="1062" on="0"/>
        <pt x="-428" y="1071" on="1"/>
        <pt x="-206" y="1469" on="1"/>
        <pt x="-194" y="1468" on="0"/>
        <pt x="-132" y="1457" on="0"/>
        <pt x="-63" y="1444" on="0"/>
        <pt x="-2" y="1432" on="0"/>
        <pt x="7" y="1429" on="1"/>
      </contour>
    </TTGlyph>
    <TTGlyph name="acutecomb.LP" xMin="-514" yMin="1016" xMax="14" yMax="1418">
      <contour>
        <pt x="14" y="1250" on="1"/>
        <pt x="-461" y="1016" on="1"/>
        <pt x="-475" y="1025" on="0"/>
        <pt x="-505" y="1073" on="0"/>
        <pt x="-514" y="1093" on="1"/>
        <pt x="-173" y="1418" on="1"/>
        <pt x="-151" y="1407" on="0"/>
        <pt x="-97" y="1379" on="0"/>
        <pt x="-46" y="1352" on="0"/>
        <pt x="-1" y="1326" on="0"/>
        <pt x="14" y="1317" on="1"/>
      </contour>
    </TTGlyph>
    <TTGlyph name="adieresis" xMin="33" yMin="-41" xMax="1006" yMax="1383">
      <component glyphName="a" x="0" y="0" flags="0x0"/>
      <component glyphName="uni0308" x="977" y="0" flags="0x0"/>
    </TTGlyph>
    <TTGlyph name="adieresis.SngStory" xMin="33" yMin="-41" xMax="1006" yMax="1383">
      <component glyphName="a.SngStory" x="0" y="0" flags="0x0"/>
      <component glyphName="uni0308" x="977" y="0" flags="0x0"/>
    </TTGlyph>
    <TTGlyph name="ae" xMin="-7" yMin="-41" xMax="1330" yMax="936">
      <contour>
        <pt x="886" y="722" on="1"/>
        <pt x="835" y="662" on="0"/>
        <pt x="791" y="529" on="0"/>
        <pt x="786" y="444" on="1"/>
        <pt x="876" y="484" on="0"/>
        <pt x="984" y="553" on="0"/>
        <pt x="1042" y="617" on="0"/>
        <pt x="1060" y="680" on="0"/>
        <pt x="1060" y="715" on="1"/>
        <pt x="1060" y="748" on="0"/>
        <pt x="1019" y="791" on="0"/>
        <pt x="993" y="791" on="1"/>
        <pt x="973" y="791" on="0"/>
        <pt x="912" y="752" on="0"/>
      </contour>
      <contour>
        <pt x="553" y="401" on="1"/>
        <pt x="558" y="437" on="0"/>
        <pt x="571" y="519" on="0"/>
        <pt x="583" y="600" on="0"/>
        <pt x="595" y="676" on="0"/>
        <pt x="600" y="705" on="1"/>
        <pt x="570" y="734" on="0"/>
        <pt x="507" y="781" on="0"/>
        <pt x="479" y="781" on="1"/>
        <pt x="438" y="781" on="0"/>
        <pt x="372" y="743" on="0"/>
        <pt x="318" y="680" on="0"/>
        <pt x="279" y="598" on="0"/>
        <pt x="253" y="509" on="0"/>
        <pt x="240" y="418" on="0"/>
        <pt x="240" y="379" on="1"/>
        <pt x="240" y="322" on="0"/>
        <pt x="258" y="244" on="0"/>
        <pt x="285" y="197" on="0"/>
        <pt x="317" y="176" on="0"/>
        <pt x="331" y="176" on="1"/>
        <pt x="356" y="176" on="0"/>
        <pt x="464" y="257" on="0"/>
        <pt x="546" y="359" on="1"/>
        <pt x="547" y="361" on="0"/>
        <pt x="547" y="366" on="1"/>
      </contour>
      <contour>
        <pt x="872" y="891" on="1"/>
        <pt x="860" y="880" on="0"/>
        <pt x="839" y="865" on="0"/>
        <pt x="823" y="849" on="0"/>
        <pt x="808" y="830" on="0"/>
        <pt x="802" y="815" on="1"/>
        <pt x="840" y="846" on="1"/>
        <pt x="864" y="864" on="0"/>
        <pt x="929" y="897" on="0"/>
        <pt x="1000" y="922" on="0"/>
        <pt x="1071" y="936" on="0"/>
        <pt x="1102" y="936" on="1"/>
        <pt x="1156" y="936" on="0"/>
        <pt x="1241" y="905" on="0"/>
        <pt x="1300" y="855" on="0"/>
        <pt x="1330" y="792" on="0"/>
        <pt x="1330" y="760" on="1"/>
        <pt x="1330" y="731" on="0"/>
        <pt x="1318" y="668" on="0"/>
        <pt x="1279" y="599" on="0"/>
        <pt x="1207" y="525" on="0"/>
        <pt x="1087" y="445" on="0"/>
        <pt x="911" y="359" on="0"/>
        <pt x="789" y="314" on="1"/>
        <pt x="795" y="265" on="0"/>
        <pt x="826" y="194" on="0"/>
        <pt x="865" y="148" on="0"/>
        <pt x="908" y="126" on="0"/>
        <pt x="927" y="126" on="1"/>
        <pt x="970" y="126" on="0"/>
        <pt x="1135" y="214" on="0"/>
        <pt x="1257" y="311" on="1"/>
        <pt x="1262" y="308" on="0"/>
        <pt x="1277" y="285" on="0"/>
        <pt x="1292" y="258" on="0"/>
        <pt x="1305" y="234" on="0"/>
        <pt x="1307" y="230" on="1"/>
        <pt x="1224" y="159" on="0"/>
        <pt x="1083" y="56" on="0"/>
        <pt x="965" y="-10" on="0"/>
        <pt x="866" y="-41" on="0"/>
        <pt x="825" y="-41" on="1"/>
        <pt x="794" y="-41" on="0"/>
        <pt x="714" y="-15" on="0"/>
        <pt x="636" y="42" on="0"/>
        <pt x="572" y="133" on="0"/>
        <pt x="556" y="198" on="1"/>
        <pt x="517" y="144" on="0"/>
        <pt x="433" y="56" on="0"/>
        <pt x="347" y="-7" on="0"/>
        <pt x="262" y="-41" on="0"/>
        <pt x="222" y="-41" on="1"/>
        <pt x="188" y="-41" on="0"/>
        <pt x="108" y="-3" on="0"/>
        <pt x="39" y="80" on="0"/>
        <pt x="-7" y="211" on="0"/>
        <pt x="-7" y="305" on="1"/>
        <pt x="-7" y="384" on="0"/>
        <pt x="33" y="535" on="0"/>
        <pt x="110" y="673" on="0"/>
        <pt x="221" y="794" on="0"/>
        <pt x="293" y="842" on="1"/>
        <pt x="347" y="879" on="0"/>
        <pt x="500" y="936" on="0"/>
        <pt x="592" y="936" on="1"/>
        <pt x="631" y="936" on="0"/>
        <pt x="694" y="911" on="0"/>
        <pt x="720" y="894" on="1"/>
        <pt x="740" y="905" on="0"/>
        <pt x="790" y="926" on="0"/>
        <pt x="822" y="936" on="1"/>
      </contour>
    </TTGlyph>
    <TTGlyph name="aeacute" xMin="-7" yMin="-41" xMax="1330" yMax="1469">
      <component glyphName="ae" x="0" y="0" flags="0x0"/>
      <component glyphName="acutecomb" x="1103" y="0" flags="0x0"/>
    </TTGlyph>
    <TTGlyph name="agrave" xMin="33" yMin="-41" xMax="1006" yMax="1469">
      <component glyphName="a" x="0" y="0" flags="0x0"/>
      <component glyphName="gravecomb" x="867" y="0" flags="0x0"/>
    </TTGlyph>
    <TTGlyph name="agrave.SngStory" xMin="33" yMin="-41" xMax="1006" yMax="1469">
      <component glyphName="a.SngStory" x="0" y="0" flags="0x0"/>
      <component glyphName="gravecomb" x="867" y="0" flags="0x0"/>
    </TTGlyph>
    <TTGlyph name="amacron" xMin="33" yMin="-41" xMax="1071" yMax="1323">
      <component glyphName="a" x="0" y="0" flags="0x0"/>
      <component glyphName="uni0304" x="957" y="0" flags="0x0"/>
    </TTGlyph>
    <TTGlyph name="amacron.SngStory" xMin="33" yMin="-41" xMax="1071" yMax="1323">
      <component glyphName="a.SngStory" x="0" y="0" flags="0x0"/>
      <component glyphName="uni0304" x="957" y="0" flags="0x0"/>
    </TTGlyph>
    <TTGlyph name="ampersand" xMin="42" yMin="-30" xMax="1401" yMax="1450">
      <contour>
        <pt x="1401" y="748" on="1"/>
        <pt x="1387" y="733" on="0"/>
        <pt x="1353" y="692" on="0"/>
        <pt x="1318" y="652" on="0"/>
        <pt x="1284" y="618" on="0"/>
        <pt x="1272" y="609" on="1"/>
        <pt x="1240" y="626" on="0"/>
        <pt x="1169" y="658" on="0"/>
        <pt x="1137" y="660" on="1"/>
        <pt x="1153" y="634" on="0"/>
        <pt x="1156" y="573" on="0"/>
        <pt x="1152" y="543" on="1"/>
        <pt x="1143" y="478" on="0"/>
        <pt x="1068" y="332" on="0"/>
        <pt x="1008" y="262" on="1"/>
        <pt x="1022" y="247" on="0"/>
        <pt x="1047" y="219" on="0"/>
        <pt x="1060" y="206" on="1"/>
        <pt x="1105" y="159" on="0"/>
        <pt x="1212" y="137" on="0"/>
        <pt x="1258" y="148" on="1"/>
        <pt x="1264" y="65" on="1"/>
        <pt x="1221" y="46" on="0"/>
        <pt x="1122" y="11" on="0"/>
        <pt x="1032" y="-15" on="0"/>
        <pt x="965" y="-30" on="0"/>
        <pt x="955" y="-30" on="1"/>
        <pt x="931" y="-30" on="0"/>
        <pt x="847" y="27" on="0"/>
        <pt x="794" y="78" on="1"/>
        <pt x="714" y="28" on="0"/>
        <pt x="535" y="-30" on="0"/>
        <pt x="441" y="-30" on="1"/>
        <pt x="237" y="-30" on="0"/>
        <pt x="42" y="163" on="0"/>
        <pt x="68" y="352" on="1"/>
        <pt x="81" y="454" on="0"/>
        <pt x="229" y="661" on="0"/>
        <pt x="376" y="768" on="1"/>
        <pt x="355" y="846" on="0"/>
        <pt x="339" y="999" on="0"/>
        <pt x="349" y="1073" on="1"/>
        <pt x="360" y="1154" on="0"/>
        <pt x="440" y="1292" on="0"/>
        <pt x="558" y="1393" on="0"/>
        <pt x="706" y="1450" on="0"/>
        <pt x="786" y="1450" on="1"/>
        <pt x="860" y="1450" on="0"/>
        <pt x="963" y="1409" on="0"/>
        <pt x="1023" y="1341" on="0"/>
        <pt x="1045" y="1252" on="0"/>
        <pt x="1038" y="1204" on="1"/>
        <pt x="1031" y="1152" on="0"/>
        <pt x="961" y="1041" on="0"/>
        <pt x="859" y="935" on="0"/>
        <pt x="736" y="839" on="0"/>
        <pt x="676" y="802" on="1"/>
        <pt x="659" y="791" on="1"/>
        <pt x="705" y="681" on="0"/>
        <pt x="839" y="468" on="0"/>
        <pt x="911" y="376" on="1"/>
        <pt x="930" y="408" on="0"/>
        <pt x="954" y="471" on="0"/>
        <pt x="959" y="502" on="1"/>
        <pt x="965" y="544" on="0"/>
        <pt x="951" y="609" on="0"/>
        <pt x="918" y="652" on="0"/>
        <pt x="871" y="675" on="0"/>
        <pt x="844" y="675" on="1"/>
        <pt x="819" y="713" on="1"/>
        <pt x="837" y="731" on="1"/>
        <pt x="849" y="743" on="0"/>
        <pt x="878" y="769" on="0"/>
        <pt x="907" y="790" on="0"/>
        <pt x="917" y="794" on="1"/>
        <pt x="1377" y="794" on="1"/>
      </contour>
      <contour>
        <pt x="527" y="124" on="1"/>
        <pt x="572" y="124" on="0"/>
        <pt x="661" y="152" on="0"/>
        <pt x="704" y="176" on="1"/>
        <pt x="632" y="262" on="0"/>
        <pt x="490" y="481" on="0"/>
        <pt x="436" y="603" on="1"/>
        <pt x="392" y="547" on="0"/>
        <pt x="350" y="436" on="0"/>
        <pt x="342" y="373" on="1"/>
        <pt x="332" y="303" on="0"/>
        <pt x="359" y="208" on="0"/>
        <pt x="414" y="149" on="0"/>
        <pt x="489" y="124" on="0"/>
      </contour>
      <contour>
        <pt x="596" y="1130" on="1"/>
        <pt x="589" y="1080" on="0"/>
        <pt x="600" y="973" on="0"/>
        <pt x="615" y="917" on="1"/>
        <pt x="656" y="942" on="0"/>
        <pt x="715" y="1005" on="0"/>
        <pt x="756" y="1072" on="0"/>
        <pt x="778" y="1140" on="0"/>
        <pt x="783" y="1171" on="1"/>
        <pt x="788" y="1206" on="0"/>
        <pt x="779" y="1259" on="0"/>
        <pt x="757" y="1295" on="0"/>
        <pt x="726" y="1313" on="0"/>
        <pt x="708" y="1313" on="1"/>
        <pt x="685" y="1313" on="0"/>
        <pt x="649" y="1285" on="0"/>
        <pt x="621" y="1236" on="0"/>
        <pt x="602" y="1169" on="0"/>
      </contour>
    </TTGlyph>
    <TTGlyph name="approxequal" xMin="53" yMin="270" xMax="865" yMax="853">
      <contour>
        <pt x="823" y="455" on="1"/>
        <pt x="795" y="414" on="0"/>
        <pt x="727" y="347" on="0"/>
        <pt x="656" y="299" on="0"/>
        <pt x="585" y="273" on="0"/>
        <pt x="553" y="273" on="1"/>
        <pt x="515" y="273" on="0"/>
        <pt x="444" y="304" on="0"/>
        <pt x="375" y="340" on="0"/>
        <pt x="306" y="371" on="0"/>
        <pt x="270" y="371" on="1"/>
        <pt x="227" y="371" on="0"/>
        <pt x="154" y="318" on="0"/>
        <pt x="107" y="270" on="1"/>
        <pt x="53" y="355" on="1"/>
        <pt x="81" y="396" on="0"/>
        <pt x="146" y="463" on="0"/>
        <pt x="214" y="511" on="0"/>
        <pt x="282" y="538" on="0"/>
        <pt x="314" y="538" on="1"/>
        <pt x="355" y="538" on="0"/>
        <pt x="432" y="507" on="0"/>
        <pt x="502" y="471" on="0"/>
        <pt x="566" y="440" on="0"/>
        <pt x="595" y="440" on="1"/>
        <pt x="616" y="440" on="0"/>
        <pt x="660" y="457" on="0"/>
        <pt x="703" y="485" on="0"/>
        <pt x="742" y="522" on="0"/>
        <pt x="759" y="543" on="1"/>
      </contour>
      <contour>
        <pt x="865" y="765" on="1"/>
        <pt x="837" y="724" on="0"/>
        <pt x="769" y="657" on="0"/>
        <pt x="698" y="609" on="0"/>
        <pt x="627" y="583" on="0"/>
        <pt x="595" y="583" on="1"/>
        <pt x="557" y="583" on="0"/>
        <pt x="487" y="614" on="0"/>
        <pt x="418" y="650" on="0"/>
        <pt x="349" y="681" on="0"/>
        <pt x="313" y="681" on="1"/>
        <pt x="270" y="681" on="0"/>
        <pt x="197" y="628" on="0"/>
        <pt x="150" y="580" on="1"/>
        <pt x="96" y="665" on="1"/>
        <pt x="124" y="706" on="0"/>
        <pt x="189" y="773" on="0"/>
        <pt x="257" y="821" on="0"/>
        <pt x="325" y="848" on="0"/>
        <pt x="357" y="848" on="1"/>
        <pt x="398" y="848" on="0"/>
        <pt x="474" y="817" on="0"/>
        <pt x="545" y="781" on="0"/>
        <pt x="608" y="750" on="0"/>
        <pt x="637" y="750" on="1"/>
        <pt x="658" y="750" on="0"/>
        <pt x="702" y="767" on="0"/>
        <pt x="745" y="795" on="0"/>
        <pt x="785" y="832" on="0"/>
        <pt x="801" y="853" on="1"/>
      </contour>
    </TTGlyph>
    <TTGlyph name="aring" xMin="33" yMin="-41" xMax="1006" yMax="1467">
      <component glyphName="a" x="0" y="0" flags="0x0"/>
      <component glyphName="uni030A" x="946" y="0" flags="0x0"/>
    </TTGlyph>
    <TTGlyph name="aring.SngStory" xMin="33" yMin="-41" xMax="1006" yMax="1467">
      <component glyphName="a.SngStory" x="0" y="0" flags="0x0"/>
      <component glyphName="uni030A" x="946" y="0" flags="0x0"/>
    </TTGlyph>
    <TTGlyph name="aringacute" xMin="33" yMin="-41" xMax="1037" yMax="1949">
      <component glyphName="a" x="0" y="0" flags="0x0"/>
      <component glyphName="uni030A" x="946" y="0" flags="0x0"/>
      <component glyphName="acutecomb" x="1005" y="480" flags="0x0"/>
    </TTGlyph>
    <TTGlyph name="aringacute.SngStory" xMin="33" yMin="-41" xMax="1037" yMax="1949">
      <component glyphName="a.SngStory" x="0" y="0" flags="0x0"/>
      <component glyphName="uni030A" x="946" y="0" flags="0x0"/>
      <component glyphName="acutecomb" x="1005" y="480" flags="0x0"/>
    </TTGlyph>
    <TTGlyph name="asciicircum" xMin="94" yMin="565" xMax="854" yMax="1550">
      <contour>
        <pt x="854" y="635" on="1"/>
        <pt x="826" y="612" on="0"/>
        <pt x="777" y="581" on="0"/>
        <pt x="743" y="565" on="1"/>
        <pt x="713" y="592" on="1"/>
        <pt x="553" y="1315" on="1"/>
        <pt x="223" y="635" on="1"/>
        <pt x="212" y="625" on="0"/>
        <pt x="182" y="604" on="0"/>
        <pt x="151" y="585" on="0"/>
        <pt x="123" y="570" on="0"/>
        <pt x="113" y="565" on="1"/>
        <pt x="94" y="592" on="1"/>
        <pt x="516" y="1462" on="1"/>
        <pt x="529" y="1474" on="0"/>
        <pt x="565" y="1499" on="0"/>
        <pt x="603" y="1523" on="0"/>
        <pt x="639" y="1543" on="0"/>
        <pt x="653" y="1550" on="1"/>
      </contour>
    </TTGlyph>
    <TTGlyph name="asciitilde" xMin="70" yMin="475" xMax="945" yMax="799">
      <contour>
        <pt x="945" y="774" on="1"/>
        <pt x="919" y="725" on="0"/>
        <pt x="845" y="620" on="0"/>
        <pt x="760" y="533" on="0"/>
        <pt x="667" y="477" on="0"/>
        <pt x="623" y="477" on="1"/>
        <pt x="584" y="477" on="0"/>
        <pt x="503" y="527" on="0"/>
        <pt x="422" y="587" on="0"/>
        <pt x="340" y="637" on="0"/>
        <pt x="300" y="637" on="1"/>
        <pt x="254" y="637" on="0"/>
        <pt x="167" y="559" on="0"/>
        <pt x="116" y="475" on="1"/>
        <pt x="70" y="502" on="1"/>
        <pt x="97" y="551" on="0"/>
        <pt x="171" y="656" on="0"/>
        <pt x="256" y="743" on="0"/>
        <pt x="348" y="799" on="0"/>
        <pt x="392" y="799" on="1"/>
        <pt x="435" y="799" on="0"/>
        <pt x="518" y="749" on="0"/>
        <pt x="599" y="689" on="0"/>
        <pt x="676" y="639" on="0"/>
        <pt x="714" y="639" on="1"/>
        <pt x="758" y="639" on="0"/>
        <pt x="849" y="717" on="0"/>
        <pt x="899" y="799" on="1"/>
      </contour>
    </TTGlyph>
    <TTGlyph name="asterisk" xMin="-6" yMin="707" xMax="785" yMax="1561">
      <contour>
        <pt x="453" y="1230" on="1"/>
        <pt x="666" y="1410" on="1"/>
        <pt x="674" y="1404" on="0"/>
        <pt x="709" y="1371" on="0"/>
        <pt x="747" y="1334" on="0"/>
        <pt x="779" y="1299" on="0"/>
        <pt x="785" y="1291" on="1"/>
        <pt x="766" y="1231" on="1"/>
        <pt x="494" y="1136" on="1"/>
        <pt x="720" y="1051" on="1"/>
        <pt x="718" y="1039" on="0"/>
        <pt x="704" y="986" on="0"/>
        <pt x="687" y="927" on="0"/>
        <pt x="671" y="875" on="0"/>
        <pt x="667" y="864" on="1"/>
        <pt x="610" y="845" on="1"/>
        <pt x="431" y="1038" on="1"/>
        <pt x="446" y="775" on="1"/>
        <pt x="435" y="769" on="0"/>
        <pt x="386" y="749" on="0"/>
        <pt x="331" y="727" on="0"/>
        <pt x="281" y="710" on="0"/>
        <pt x="271" y="707" on="1"/>
        <pt x="234" y="748" on="1"/>
        <pt x="327" y="1037" on="1"/>
        <pt x="115" y="858" on="1"/>
        <pt x="106" y="864" on="0"/>
        <pt x="71" y="897" on="0"/>
        <pt x="33" y="934" on="0"/>
        <pt x="0" y="969" on="0"/>
        <pt x="-6" y="977" on="1"/>
        <pt x="15" y="1037" on="1"/>
        <pt x="288" y="1132" on="1"/>
        <pt x="60" y="1217" on="1"/>
        <pt x="63" y="1229" on="0"/>
        <pt x="77" y="1282" on="0"/>
        <pt x="93" y="1341" on="0"/>
        <pt x="109" y="1393" on="0"/>
        <pt x="114" y="1404" on="1"/>
        <pt x="170" y="1423" on="1"/>
        <pt x="349" y="1229" on="1"/>
        <pt x="335" y="1493" on="1"/>
        <pt x="346" y="1499" on="0"/>
        <pt x="395" y="1519" on="0"/>
        <pt x="450" y="1541" on="0"/>
        <pt x="498" y="1558" on="0"/>
        <pt x="509" y="1561" on="1"/>
        <pt x="547" y="1520" on="1"/>
      </contour>
    </TTGlyph>
    <TTGlyph name="at" xMin="42" yMin="-375" xMax="1686" yMax="1333">
      <contour>
        <pt x="948" y="334" on="1"/>
        <pt x="952" y="373" on="0"/>
        <pt x="969" y="481" on="0"/>
        <pt x="987" y="593" on="0"/>
        <pt x="1006" y="697" on="0"/>
        <pt x="1012" y="733" on="1"/>
        <pt x="989" y="753" on="0"/>
        <pt x="941" y="781" on="0"/>
        <pt x="918" y="781" on="1"/>
        <pt x="880" y="781" on="0"/>
        <pt x="818" y="743" on="0"/>
        <pt x="769" y="680" on="0"/>
        <pt x="734" y="598" on="0"/>
        <pt x="710" y="509" on="0"/>
        <pt x="699" y="418" on="0"/>
        <pt x="699" y="379" on="1"/>
        <pt x="699" y="326" on="0"/>
        <pt x="713" y="249" on="0"/>
        <pt x="734" y="199" on="0"/>
        <pt x="758" y="176" on="0"/>
        <pt x="768" y="176" on="1"/>
        <pt x="781" y="176" on="0"/>
        <pt x="816" y="192" on="0"/>
        <pt x="861" y="228" on="0"/>
        <pt x="916" y="289" on="0"/>
      </contour>
      <contour>
        <pt x="1659" y="549" on="1"/>
        <pt x="1647" y="462" on="0"/>
        <pt x="1576" y="308" on="0"/>
        <pt x="1477" y="177" on="0"/>
        <pt x="1359" y="72" on="0"/>
        <pt x="1241" y="-2" on="0"/>
        <pt x="1133" y="-41" on="0"/>
        <pt x="1094" y="-41" on="1"/>
        <pt x="1079" y="-41" on="0"/>
        <pt x="1038" y="-24" on="0"/>
        <pt x="997" y="21" on="0"/>
        <pt x="961" y="100" on="0"/>
        <pt x="952" y="162" on="1"/>
        <pt x="926" y="121" on="0"/>
        <pt x="858" y="47" on="0"/>
        <pt x="784" y="-9" on="0"/>
        <pt x="708" y="-41" on="0"/>
        <pt x="675" y="-41" on="1"/>
        <pt x="641" y="-41" on="0"/>
        <pt x="560" y="-3" on="0"/>
        <pt x="489" y="80" on="0"/>
        <pt x="442" y="211" on="0"/>
        <pt x="442" y="305" on="1"/>
        <pt x="442" y="384" on="0"/>
        <pt x="482" y="535" on="0"/>
        <pt x="559" y="673" on="0"/>
        <pt x="669" y="794" on="0"/>
        <pt x="740" y="842" on="1"/>
        <pt x="767" y="860" on="0"/>
        <pt x="841" y="894" on="0"/>
        <pt x="920" y="920" on="0"/>
        <pt x="998" y="936" on="0"/>
        <pt x="1030" y="936" on="1"/>
        <pt x="1071" y="936" on="0"/>
        <pt x="1150" y="900" on="0"/>
        <pt x="1185" y="880" on="1"/>
        <pt x="1221" y="896" on="0"/>
        <pt x="1289" y="924" on="0"/>
        <pt x="1315" y="936" on="1"/>
        <pt x="1350" y="861" on="1"/>
        <pt x="1333" y="847" on="0"/>
        <pt x="1309" y="825" on="0"/>
        <pt x="1291" y="796" on="0"/>
        <pt x="1278" y="754" on="0"/>
        <pt x="1271" y="720" on="1"/>
        <pt x="1256" y="648" on="0"/>
        <pt x="1233" y="519" on="0"/>
        <pt x="1218" y="411" on="0"/>
        <pt x="1210" y="331" on="0"/>
        <pt x="1210" y="309" on="1"/>
        <pt x="1210" y="247" on="0"/>
        <pt x="1242" y="184" on="0"/>
        <pt x="1266" y="184" on="1"/>
        <pt x="1317" y="184" on="0"/>
        <pt x="1394" y="340" on="0"/>
        <pt x="1420" y="510" on="1"/>
        <pt x="1445" y="679" on="0"/>
        <pt x="1390" y="929" on="0"/>
        <pt x="1258" y="1093" on="0"/>
        <pt x="1066" y="1174" on="0"/>
        <pt x="955" y="1174" on="1"/>
        <pt x="835" y="1174" on="0"/>
        <pt x="623" y="1066" on="0"/>
        <pt x="458" y="882" on="0"/>
        <pt x="346" y="639" on="0"/>
        <pt x="327" y="504" on="1"/>
        <pt x="310" y="383" on="0"/>
        <pt x="338" y="184" on="0"/>
        <pt x="412" y="26" on="0"/>
        <pt x="525" y="-91" on="0"/>
        <pt x="662" y="-168" on="0"/>
        <pt x="815" y="-206" on="0"/>
        <pt x="893" y="-206" on="1"/>
        <pt x="948" y="-206" on="0"/>
        <pt x="1057" y="-185" on="0"/>
        <pt x="1161" y="-151" on="0"/>
        <pt x="1256" y="-108" on="0"/>
        <pt x="1337" y="-62" on="0"/>
        <pt x="1401" y="-19" on="0"/>
        <pt x="1422" y="-2" on="1"/>
        <pt x="1458" y="-107" on="1"/>
        <pt x="1420" y="-145" on="0"/>
        <pt x="1294" y="-238" on="0"/>
        <pt x="1127" y="-320" on="0"/>
        <pt x="924" y="-375" on="0"/>
        <pt x="809" y="-375" on="1"/>
        <pt x="693" y="-375" on="0"/>
        <pt x="483" y="-322" on="0"/>
        <pt x="304" y="-220" on="0"/>
        <pt x="164" y="-74" on="0"/>
        <pt x="75" y="113" on="0"/>
        <pt x="42" y="337" on="0"/>
        <pt x="60" y="465" on="1"/>
        <pt x="76" y="577" on="0"/>
        <pt x="162" y="794" on="0"/>
        <pt x="295" y="986" on="0"/>
        <pt x="469" y="1149" on="0"/>
        <pt x="676" y="1267" on="0"/>
        <pt x="912" y="1333" on="0"/>
        <pt x="1039" y="1333" on="1"/>
        <pt x="1183" y="1333" on="0"/>
        <pt x="1433" y="1229" on="0"/>
        <pt x="1607" y="1028" on="0"/>
        <pt x="1686" y="736" on="0"/>
      </contour>
    </TTGlyph>
    <TTGlyph name="atilde" xMin="33" yMin="-41" xMax="1016" yMax="1380">
      <component glyphName="a" x="0" y="0" flags="0x0"/>
      <component glyphName="tildecomb" x="947" y="0" flags="0x0"/>
    </TTGlyph>
    <TTGlyph name="atilde.SngStory" xMin="33" yMin="-41" xMax="1016" yMax="1380">
      <component glyphName="a.SngStory" x="0" y="0" flags="0x0"/>
      <component glyphName="tildecomb" x="947" y="0" flags="0x0"/>
    </TTGlyph>
    <TTGlyph name="b" xMin="86" yMin="-41" xMax="991" yMax="1520">
      <contour>
        <pt x="629" y="743" on="1"/>
        <pt x="617" y="743" on="0"/>
        <pt x="576" y="722" on="0"/>
        <pt x="519" y="670" on="0"/>
        <pt x="448" y="583" on="0"/>
        <pt x="406" y="516" on="1"/>
        <pt x="397" y="450" on="0"/>
        <pt x="386" y="346" on="0"/>
        <pt x="386" y="316" on="1"/>
        <pt x="386" y="290" on="0"/>
        <pt x="416" y="237" on="0"/>
        <pt x="460" y="195" on="0"/>
        <pt x="507" y="167" on="0"/>
        <pt x="524" y="166" on="1"/>
        <pt x="566" y="163" on="0"/>
        <pt x="628" y="203" on="0"/>
        <pt x="653" y="239" on="1"/>
        <pt x="672" y="266" on="0"/>
        <pt x="700" y="339" on="0"/>
        <pt x="718" y="417" on="0"/>
        <pt x="726" y="496" on="0"/>
        <pt x="726" y="530" on="1"/>
        <pt x="726" y="576" on="0"/>
        <pt x="714" y="654" on="0"/>
        <pt x="689" y="711" on="0"/>
        <pt x="653" y="743" on="0"/>
      </contour>
      <contour>
        <pt x="990" y="610" on="1"/>
        <pt x="988" y="504" on="0"/>
        <pt x="893" y="286" on="0"/>
        <pt x="817" y="188" on="1"/>
        <pt x="782" y="143" on="0"/>
        <pt x="693" y="60" on="0"/>
        <pt x="588" y="-3" on="0"/>
        <pt x="470" y="-41" on="0"/>
        <pt x="407" y="-41" on="1"/>
        <pt x="384" y="-41" on="0"/>
        <pt x="322" y="-19" on="0"/>
        <pt x="257" y="19" on="0"/>
        <pt x="193" y="73" on="0"/>
        <pt x="143" y="137" on="0"/>
        <pt x="111" y="209" on="0"/>
        <pt x="111" y="247" on="1"/>
        <pt x="111" y="273" on="0"/>
        <pt x="122" y="376" on="0"/>
        <pt x="141" y="510" on="0"/>
        <pt x="165" y="667" on="0"/>
        <pt x="191" y="829" on="0"/>
        <pt x="216" y="988" on="0"/>
        <pt x="235" y="1127" on="0"/>
        <pt x="247" y="1235" on="0"/>
        <pt x="247" y="1266" on="1"/>
        <pt x="247" y="1289" on="0"/>
        <pt x="237" y="1316" on="0"/>
        <pt x="221" y="1329" on="0"/>
        <pt x="203" y="1333" on="0"/>
        <pt x="194" y="1333" on="1"/>
        <pt x="185" y="1333" on="0"/>
        <pt x="154" y="1324" on="0"/>
        <pt x="140" y="1319" on="1"/>
        <pt x="122" y="1313" on="0"/>
        <pt x="104" y="1306" on="1"/>
        <pt x="86" y="1385" on="1"/>
        <pt x="132" y="1407" on="0"/>
        <pt x="251" y="1455" on="0"/>
        <pt x="365" y="1495" on="0"/>
        <pt x="458" y="1520" on="0"/>
        <pt x="478" y="1520" on="1"/>
        <pt x="513" y="1520" on="0"/>
        <pt x="537" y="1484" on="0"/>
        <pt x="537" y="1438" on="1"/>
        <pt x="537" y="1396" on="0"/>
        <pt x="519" y="1247" on="0"/>
        <pt x="492" y="1060" on="0"/>
        <pt x="458" y="851" on="0"/>
        <pt x="442" y="750" on="1"/>
        <pt x="491" y="809" on="0"/>
        <pt x="578" y="882" on="0"/>
        <pt x="654" y="922" on="0"/>
        <pt x="720" y="936" on="0"/>
        <pt x="747" y="936" on="1"/>
        <pt x="798" y="937" on="0"/>
        <pt x="887" y="894" on="0"/>
        <pt x="953" y="811" on="0"/>
        <pt x="991" y="689" on="0"/>
      </contour>
    </TTGlyph>
    <TTGlyph name="backslash" xMin="135" yMin="-336" xMax="742" yMax="1599">
      <contour>
        <pt x="697" y="-336" on="1"/>
        <pt x="686" y="-332" on="0"/>
        <pt x="634" y="-314" on="0"/>
        <pt x="577" y="-293" on="0"/>
        <pt x="528" y="-272" on="0"/>
        <pt x="521" y="-265" on="1"/>
        <pt x="135" y="1567" on="1"/>
        <pt x="182" y="1599" on="1"/>
        <pt x="196" y="1595" on="0"/>
        <pt x="245" y="1579" on="0"/>
        <pt x="298" y="1560" on="0"/>
        <pt x="346" y="1539" on="0"/>
        <pt x="358" y="1530" on="1"/>
        <pt x="742" y="-301" on="1"/>
      </contour>
    </TTGlyph>
    <TTGlyph name="bar" xMin="23" yMin="-336" xMax="458" yMax="1599">
      <contour>
        <pt x="198" y="-270" on="1"/>
        <pt x="188" y="-277" on="0"/>
        <pt x="152" y="-296" on="0"/>
        <pt x="112" y="-316" on="0"/>
        <pt x="74" y="-332" on="0"/>
        <pt x="62" y="-336" on="1"/>
        <pt x="23" y="-301" on="1"/>
        <pt x="283" y="1535" on="1"/>
        <pt x="297" y="1544" on="0"/>
        <pt x="332" y="1563" on="0"/>
        <pt x="368" y="1581" on="0"/>
        <pt x="403" y="1595" on="0"/>
        <pt x="418" y="1599" on="1"/>
        <pt x="458" y="1567" on="1"/>
      </contour>
    </TTGlyph>
    <TTGlyph name="braceleft" xMin="102" yMin="-315" xMax="804" yMax="1600">
      <contour>
        <pt x="804" y="1513" on="1"/>
        <pt x="764" y="1489" on="0"/>
        <pt x="697" y="1432" on="0"/>
        <pt x="646" y="1370" on="0"/>
        <pt x="613" y="1305" on="0"/>
        <pt x="609" y="1272" on="1"/>
        <pt x="602" y="1221" on="0"/>
        <pt x="602" y="1138" on="0"/>
        <pt x="605" y="1057" on="0"/>
        <pt x="606" y="974" on="0"/>
        <pt x="599" y="923" on="1"/>
        <pt x="593" y="881" on="0"/>
        <pt x="553" y="800" on="0"/>
        <pt x="493" y="729" on="0"/>
        <pt x="418" y="671" on="0"/>
        <pt x="376" y="653" on="1"/>
        <pt x="467" y="635" on="0"/>
        <pt x="540" y="496" on="0"/>
        <pt x="525" y="385" on="1"/>
        <pt x="518" y="332" on="0"/>
        <pt x="493" y="238" on="0"/>
        <pt x="467" y="150" on="0"/>
        <pt x="444" y="65" on="0"/>
        <pt x="438" y="23" on="1"/>
        <pt x="433" y="-13" on="0"/>
        <pt x="435" y="-75" on="0"/>
        <pt x="460" y="-131" on="0"/>
        <pt x="512" y="-185" on="0"/>
        <pt x="557" y="-214" on="1"/>
        <pt x="503" y="-315" on="1"/>
        <pt x="420" y="-281" on="0"/>
        <pt x="289" y="-212" on="0"/>
        <pt x="203" y="-128" on="0"/>
        <pt x="166" y="-20" on="0"/>
        <pt x="176" y="52" on="1"/>
        <pt x="183" y="103" on="0"/>
        <pt x="206" y="191" on="0"/>
        <pt x="232" y="276" on="0"/>
        <pt x="256" y="367" on="0"/>
        <pt x="264" y="422" on="1"/>
        <pt x="275" y="503" on="0"/>
        <pt x="222" y="566" on="0"/>
        <pt x="167" y="566" on="1"/>
        <pt x="148" y="566" on="1"/>
        <pt x="142" y="566" on="0"/>
        <pt x="132" y="565" on="0"/>
        <pt x="119" y="562" on="0"/>
        <pt x="105" y="560" on="1"/>
        <pt x="102" y="653" on="1"/>
        <pt x="209" y="684" on="0"/>
        <pt x="314" y="788" on="0"/>
        <pt x="325" y="863" on="1"/>
        <pt x="332" y="916" on="0"/>
        <pt x="331" y="999" on="0"/>
        <pt x="328" y="1077" on="0"/>
        <pt x="327" y="1161" on="0"/>
        <pt x="335" y="1215" on="1"/>
        <pt x="344" y="1282" on="0"/>
        <pt x="420" y="1394" on="0"/>
        <pt x="537" y="1488" on="0"/>
        <pt x="688" y="1566" on="0"/>
        <pt x="773" y="1600" on="1"/>
      </contour>
    </TTGlyph>
    <TTGlyph name="braceright" xMin="-82" yMin="-316" xMax="618" yMax="1599">
      <contour>
        <pt x="618" y="631" on="1"/>
        <pt x="511" y="600" on="0"/>
        <pt x="406" y="496" on="0"/>
        <pt x="395" y="421" on="1"/>
        <pt x="388" y="368" on="0"/>
        <pt x="389" y="285" on="0"/>
        <pt x="392" y="207" on="0"/>
        <pt x="392" y="123" on="0"/>
        <pt x="385" y="69" on="1"/>
        <pt x="376" y="1" on="0"/>
        <pt x="300" y="-110" on="0"/>
        <pt x="183" y="-204" on="0"/>
        <pt x="32" y="-282" on="0"/>
        <pt x="-53" y="-316" on="1"/>
        <pt x="-82" y="-229" on="1"/>
        <pt x="-43" y="-205" on="0"/>
        <pt x="24" y="-148" on="0"/>
        <pt x="74" y="-86" on="0"/>
        <pt x="106" y="-21" on="0"/>
        <pt x="111" y="12" on="1"/>
        <pt x="118" y="63" on="0"/>
        <pt x="118" y="146" on="0"/>
        <pt x="114" y="227" on="0"/>
        <pt x="114" y="310" on="0"/>
        <pt x="121" y="361" on="1"/>
        <pt x="127" y="403" on="0"/>
        <pt x="166" y="484" on="0"/>
        <pt x="226" y="555" on="0"/>
        <pt x="302" y="613" on="0"/>
        <pt x="344" y="631" on="1"/>
        <pt x="253" y="649" on="0"/>
        <pt x="180" y="788" on="0"/>
        <pt x="195" y="899" on="1"/>
        <pt x="202" y="951" on="0"/>
        <pt x="227" y="1046" on="0"/>
        <pt x="253" y="1134" on="0"/>
        <pt x="276" y="1219" on="0"/>
        <pt x="282" y="1261" on="1"/>
        <pt x="287" y="1297" on="0"/>
        <pt x="285" y="1359" on="0"/>
        <pt x="260" y="1415" on="0"/>
        <pt x="208" y="1469" on="0"/>
        <pt x="163" y="1498" on="1"/>
        <pt x="217" y="1599" on="1"/>
        <pt x="300" y="1565" on="0"/>
        <pt x="431" y="1496" on="0"/>
        <pt x="517" y="1412" on="0"/>
        <pt x="554" y="1304" on="0"/>
        <pt x="544" y="1232" on="1"/>
        <pt x="537" y="1181" on="0"/>
        <pt x="513" y="1093" on="0"/>
        <pt x="488" y="1008" on="0"/>
        <pt x="463" y="917" on="0"/>
        <pt x="456" y="862" on="1"/>
        <pt x="445" y="781" on="0"/>
        <pt x="498" y="718" on="0"/>
        <pt x="553" y="718" on="1"/>
        <pt x="572" y="718" on="1"/>
        <pt x="578" y="718" on="0"/>
        <pt x="588" y="719" on="0"/>
        <pt x="601" y="722" on="0"/>
        <pt x="615" y="724" on="1"/>
      </contour>
    </TTGlyph>
    <TTGlyph name="bracketleft" xMin="66" yMin="-336" xMax="870" yMax="1599">
      <contour>
        <pt x="870" y="1563" on="1"/>
        <pt x="867" y="1551" on="0"/>
        <pt x="852" y="1516" on="0"/>
        <pt x="834" y="1481" on="0"/>
        <pt x="818" y="1453" on="0"/>
        <pt x="814" y="1447" on="1"/>
        <pt x="552" y="1447" on="1"/>
        <pt x="329" y="-181" on="1"/>
        <pt x="585" y="-181" on="1"/>
        <pt x="624" y="-220" on="1"/>
        <pt x="621" y="-230" on="0"/>
        <pt x="607" y="-262" on="0"/>
        <pt x="590" y="-296" on="0"/>
        <pt x="574" y="-327" on="0"/>
        <pt x="569" y="-336" on="1"/>
        <pt x="66" y="-336" on="1"/>
        <pt x="338" y="1599" on="1"/>
        <pt x="833" y="1599" on="1"/>
      </contour>
    </TTGlyph>
    <TTGlyph name="bracketright" xMin="-86" yMin="-336" xMax="718" yMax="1599">
      <contour>
        <pt x="448" y="-336" on="1"/>
        <pt x="-47" y="-336" on="1"/>
        <pt x="-86" y="-297" on="1"/>
        <pt x="-82" y="-285" on="0"/>
        <pt x="-67" y="-251" on="0"/>
        <pt x="-51" y="-217" on="0"/>
        <pt x="-36" y="-187" on="0"/>
        <pt x="-32" y="-181" on="1"/>
        <pt x="230" y="-181" on="1"/>
        <pt x="459" y="1447" on="1"/>
        <pt x="205" y="1447" on="1"/>
        <pt x="166" y="1483" on="1"/>
        <pt x="169" y="1494" on="0"/>
        <pt x="182" y="1527" on="0"/>
        <pt x="198" y="1561" on="0"/>
        <pt x="212" y="1591" on="0"/>
        <pt x="217" y="1599" on="1"/>
        <pt x="718" y="1599" on="1"/>
      </contour>
    </TTGlyph>
    <TTGlyph name="breve" xMin="83" yMin="1040" xMax="761" yMax="1418">
      <contour>
        <pt x="761" y="1335" on="1"/>
        <pt x="724" y="1254" on="0"/>
        <pt x="627" y="1142" on="0"/>
        <pt x="524" y="1072" on="0"/>
        <pt x="425" y="1040" on="0"/>
        <pt x="385" y="1040" on="1"/>
        <pt x="341" y="1040" on="0"/>
        <pt x="248" y="1072" on="0"/>
        <pt x="166" y="1143" on="0"/>
        <pt x="100" y="1255" on="0"/>
        <pt x="83" y="1335" on="1"/>
        <pt x="90" y="1344" on="0"/>
        <pt x="112" y="1368" on="0"/>
        <pt x="137" y="1392" on="0"/>
        <pt x="160" y="1413" on="0"/>
        <pt x="168" y="1418" on="1"/>
        <pt x="183" y="1370" on="0"/>
        <pt x="237" y="1306" on="0"/>
        <pt x="301" y="1266" on="0"/>
        <pt x="368" y="1249" on="0"/>
        <pt x="397" y="1249" on="1"/>
        <pt x="428" y="1249" on="0"/>
        <pt x="507" y="1266" on="0"/>
        <pt x="586" y="1306" on="0"/>
        <pt x="661" y="1370" on="0"/>
        <pt x="688" y="1418" on="1"/>
        <pt x="695" y="1413" on="0"/>
        <pt x="716" y="1393" on="0"/>
        <pt x="737" y="1369" on="0"/>
        <pt x="756" y="1344" on="0"/>
      </contour>
    </TTGlyph>
    <TTGlyph name="brokenbar" xMin="33" yMin="-336" xMax="476" yMax="1599">
      <contour>
        <pt x="366" y="776" on="1"/>
        <pt x="356" y="768" on="0"/>
        <pt x="317" y="750" on="0"/>
        <pt x="273" y="733" on="0"/>
        <pt x="252" y="726" on="1"/>
        <pt x="219" y="715" on="1"/>
        <pt x="178" y="747" on="1"/>
        <pt x="291" y="1540" on="1"/>
        <pt x="306" y="1549" on="0"/>
        <pt x="344" y="1566" on="0"/>
        <pt x="383" y="1582" on="0"/>
        <pt x="421" y="1595" on="0"/>
        <pt x="436" y="1599" on="1"/>
        <pt x="476" y="1567" on="1"/>
      </contour>
      <contour>
        <pt x="216" y="-275" on="1"/>
        <pt x="207" y="-282" on="0"/>
        <pt x="168" y="-300" on="0"/>
        <pt x="124" y="-317" on="0"/>
        <pt x="83" y="-332" on="0"/>
        <pt x="72" y="-336" on="1"/>
        <pt x="33" y="-301" on="1"/>
        <pt x="144" y="479" on="1"/>
        <pt x="157" y="488" on="0"/>
        <pt x="194" y="505" on="0"/>
        <pt x="233" y="522" on="0"/>
        <pt x="271" y="536" on="0"/>
        <pt x="286" y="541" on="1"/>
        <pt x="329" y="506" on="1"/>
      </contour>
    </TTGlyph>
    <TTGlyph name="bullet" xMin="66" yMin="389" xMax="479" yMax="885">
      <contour>
        <pt x="479" y="713" on="1"/>
        <pt x="479" y="657" on="0"/>
        <pt x="444" y="541" on="0"/>
        <pt x="377" y="448" on="0"/>
        <pt x="279" y="389" on="0"/>
        <pt x="215" y="389" on="1"/>
        <pt x="177" y="389" on="0"/>
        <pt x="121" y="415" on="0"/>
        <pt x="84" y="461" on="0"/>
        <pt x="66" y="523" on="0"/>
        <pt x="66" y="559" on="1"/>
        <pt x="66" y="615" on="0"/>
        <pt x="102" y="731" on="0"/>
        <pt x="171" y="825" on="0"/>
        <pt x="270" y="885" on="0"/>
        <pt x="332" y="885" on="1"/>
        <pt x="370" y="885" on="0"/>
        <pt x="426" y="858" on="0"/>
        <pt x="462" y="811" on="0"/>
        <pt x="479" y="748" on="0"/>
      </contour>
    </TTGlyph>
    <TTGlyph name="c" xMin="77" yMin="-41" xMax="937" yMax="936">
      <contour>
        <pt x="937" y="825" on="1"/>
        <pt x="916" y="802" on="0"/>
        <pt x="853" y="742" on="0"/>
        <pt x="788" y="688" on="0"/>
        <pt x="730" y="651" on="0"/>
        <pt x="713" y="651" on="1"/>
        <pt x="695" y="651" on="0"/>
        <pt x="661" y="692" on="0"/>
        <pt x="624" y="740" on="0"/>
        <pt x="579" y="781" on="0"/>
        <pt x="551" y="781" on="1"/>
        <pt x="501" y="781" on="0"/>
        <pt x="424" y="714" on="0"/>
        <pt x="371" y="605" on="0"/>
        <pt x="343" y="468" on="0"/>
        <pt x="343" y="398" on="1"/>
        <pt x="343" y="268" on="0"/>
        <pt x="413" y="126" on="0"/>
        <pt x="469" y="126" on="1"/>
        <pt x="529" y="126" on="0"/>
        <pt x="682" y="213" on="0"/>
        <pt x="790" y="301" on="1"/>
        <pt x="794" y="296" on="0"/>
        <pt x="810" y="272" on="0"/>
        <pt x="828" y="246" on="0"/>
        <pt x="843" y="224" on="0"/>
        <pt x="845" y="220" on="1"/>
        <pt x="767" y="149" on="0"/>
        <pt x="635" y="49" on="0"/>
        <pt x="520" y="-13" on="0"/>
        <pt x="419" y="-41" on="0"/>
        <pt x="371" y="-41" on="1"/>
        <pt x="326" y="-41" on="0"/>
        <pt x="223" y="-7" on="0"/>
        <pt x="135" y="77" on="0"/>
        <pt x="77" y="217" on="0"/>
        <pt x="77" y="322" on="1"/>
        <pt x="77" y="389" on="0"/>
        <pt x="105" y="526" on="0"/>
        <pt x="168" y="655" on="0"/>
        <pt x="269" y="773" on="0"/>
        <pt x="343" y="822" on="1"/>
        <pt x="371" y="840" on="0"/>
        <pt x="447" y="881" on="0"/>
        <pt x="534" y="914" on="0"/>
        <pt x="628" y="936" on="0"/>
        <pt x="674" y="936" on="1"/>
        <pt x="718" y="936" on="0"/>
        <pt x="788" y="909" on="0"/>
        <pt x="849" y="872" on="0"/>
        <pt x="906" y="835" on="0"/>
      </contour>
    </TTGlyph>
    <TTGlyph name="cacute" xMin="77" yMin="-41" xMax="989" yMax="1469">
      <component glyphName="c" x="0" y="0" flags="0x0"/>
      <component glyphName="acutecomb" x="957" y="0" flags="0x0"/>
    </TTGlyph>
    <TTGlyph name="caron" xMin="102" yMin="1040" xMax="761" yMax="1486">
      <contour>
        <pt x="460" y="1040" on="1"/>
        <pt x="308" y="1040" on="1"/>
        <pt x="102" y="1421" on="1"/>
        <pt x="118" y="1438" on="0"/>
        <pt x="160" y="1475" on="0"/>
        <pt x="177" y="1486" on="1"/>
        <pt x="406" y="1272" on="1"/>
        <pt x="699" y="1486" on="1"/>
        <pt x="711" y="1475" on="0"/>
        <pt x="750" y="1439" on="0"/>
        <pt x="761" y="1421" on="1"/>
      </contour>
    </TTGlyph>
    <TTGlyph name="ccaron" xMin="77" yMin="-41" xMax="999" yMax="1486">
      <component glyphName="c" x="0" y="0" flags="0x0"/>
      <component glyphName="uni030C" x="991" y="0" flags="0x0"/>
    </TTGlyph>
    <TTGlyph name="ccedilla" xMin="77" yMin="-415" xMax="937" yMax="936">
      <contour>
        <pt x="585" y="-221" on="1"/>
        <pt x="585" y="-256" on="0"/>
        <pt x="553" y="-320" on="0"/>
        <pt x="496" y="-370" on="0"/>
        <pt x="419" y="-404" on="0"/>
        <pt x="327" y="-415" on="0"/>
        <pt x="224" y="-399" on="0"/>
        <pt x="171" y="-375" on="1"/>
        <pt x="169" y="-296" on="1"/>
        <pt x="207" y="-311" on="0"/>
        <pt x="273" y="-316" on="0"/>
        <pt x="321" y="-303" on="0"/>
        <pt x="348" y="-276" on="0"/>
        <pt x="348" y="-258" on="1"/>
        <pt x="348" y="-239" on="0"/>
        <pt x="309" y="-213" on="0"/>
        <pt x="285" y="-215" on="1"/>
        <pt x="317" y="-154" on="0"/>
        <pt x="337" y="-103" on="1"/>
        <pt x="349" y="-73" on="0"/>
        <pt x="358" y="-41" on="1"/>
        <pt x="318" y="-38" on="0"/>
        <pt x="274" y="-24" on="1"/>
        <pt x="223" y="-7" on="0"/>
        <pt x="135" y="77" on="0"/>
        <pt x="77" y="217" on="0"/>
        <pt x="77" y="322" on="1"/>
        <pt x="77" y="389" on="0"/>
        <pt x="105" y="526" on="0"/>
        <pt x="168" y="655" on="0"/>
        <pt x="269" y="773" on="0"/>
        <pt x="343" y="822" on="1"/>
        <pt x="371" y="840" on="0"/>
        <pt x="447" y="881" on="0"/>
        <pt x="534" y="914" on="0"/>
        <pt x="628" y="936" on="0"/>
        <pt x="674" y="936" on="1"/>
        <pt x="718" y="936" on="0"/>
        <pt x="788" y="909" on="0"/>
        <pt x="849" y="872" on="0"/>
        <pt x="906" y="835" on="0"/>
        <pt x="937" y="825" on="1"/>
        <pt x="916" y="802" on="0"/>
        <pt x="853" y="742" on="0"/>
        <pt x="788" y="688" on="0"/>
        <pt x="730" y="651" on="0"/>
        <pt x="713" y="651" on="1"/>
        <pt x="695" y="651" on="0"/>
        <pt x="661" y="692" on="0"/>
        <pt x="624" y="740" on="0"/>
        <pt x="579" y="781" on="0"/>
        <pt x="551" y="781" on="1"/>
        <pt x="501" y="781" on="0"/>
        <pt x="424" y="714" on="0"/>
        <pt x="371" y="605" on="0"/>
        <pt x="343" y="468" on="0"/>
        <pt x="343" y="398" on="1"/>
        <pt x="343" y="268" on="0"/>
        <pt x="413" y="126" on="0"/>
        <pt x="469" y="126" on="1"/>
        <pt x="529" y="126" on="0"/>
        <pt x="682" y="213" on="0"/>
        <pt x="790" y="301" on="1"/>
        <pt x="794" y="296" on="0"/>
        <pt x="810" y="272" on="0"/>
        <pt x="828" y="246" on="0"/>
        <pt x="843" y="224" on="0"/>
        <pt x="845" y="220" on="1"/>
        <pt x="767" y="149" on="0"/>
        <pt x="635" y="49" on="0"/>
        <pt x="577" y="18" on="1"/>
        <pt x="522" y="-12" on="0"/>
        <pt x="473" y="-26" on="1"/>
        <pt x="471" y="-39" on="0"/>
        <pt x="468" y="-51" on="1"/>
        <pt x="465" y="-65" on="0"/>
        <pt x="459" y="-87" on="0"/>
        <pt x="457" y="-93" on="1"/>
        <pt x="490" y="-94" on="0"/>
        <pt x="538" y="-116" on="0"/>
        <pt x="570" y="-151" on="0"/>
        <pt x="585" y="-197" on="0"/>
      </contour>
    </TTGlyph>
    <TTGlyph name="ccircumflex" xMin="77" yMin="-41" xMax="955" yMax="1462">
      <component glyphName="c" x="0" y="0" flags="0x0"/>
      <component glyphName="uni0302" x="976" y="0" flags="0x0"/>
    </TTGlyph>
    <TTGlyph name="cdotaccent" xMin="77" yMin="-41" xMax="937" yMax="1383">
      <component glyphName="c" x="0" y="0" flags="0x0"/>
      <component glyphName="uni0307" x="960" y="0" flags="0x0"/>
    </TTGlyph>
    <TTGlyph name="cedilla" xMin="-178" yMin="-415" xMax="238" yMax="4">
      <contour>
        <pt x="238" y="-221" on="1"/>
        <pt x="238" y="-256" on="0"/>
        <pt x="206" y="-320" on="0"/>
        <pt x="149" y="-370" on="0"/>
        <pt x="72" y="-404" on="0"/>
        <pt x="-20" y="-415" on="0"/>
        <pt x="-123" y="-399" on="0"/>
        <pt x="-176" y="-375" on="1"/>
        <pt x="-178" y="-296" on="1"/>
        <pt x="-140" y="-311" on="0"/>
        <pt x="-74" y="-316" on="0"/>
        <pt x="-26" y="-303" on="0"/>
        <pt x="1" y="-276" on="0"/>
        <pt x="1" y="-258" on="1"/>
        <pt x="1" y="-239" on="0"/>
        <pt x="-38" y="-213" on="0"/>
        <pt x="-62" y="-215" on="1"/>
        <pt x="-30" y="-154" on="0"/>
        <pt x="10" y="-52" on="0"/>
        <pt x="22" y="4" on="1"/>
        <pt x="130" y="2" on="1"/>
        <pt x="129" y="-10" on="0"/>
        <pt x="124" y="-38" on="0"/>
        <pt x="118" y="-65" on="0"/>
        <pt x="112" y="-87" on="0"/>
        <pt x="110" y="-93" on="1"/>
        <pt x="143" y="-94" on="0"/>
        <pt x="191" y="-116" on="0"/>
        <pt x="223" y="-151" on="0"/>
        <pt x="238" y="-197" on="0"/>
      </contour>
    </TTGlyph>
    <TTGlyph name="cent" xMin="84" yMin="-49" xMax="984" yMax="1217">
      <contour>
        <pt x="651" y="1054" on="1"/>
        <pt x="659" y="1055" on="0"/>
        <pt x="666" y="1055" on="1"/>
        <pt x="681" y="1055" on="1"/>
        <pt x="729" y="1055" on="0"/>
        <pt x="818" y="1022" on="0"/>
        <pt x="896" y="980" on="0"/>
        <pt x="961" y="941" on="0"/>
        <pt x="984" y="936" on="1"/>
        <pt x="972" y="926" on="0"/>
        <pt x="936" y="887" on="0"/>
        <pt x="894" y="842" on="0"/>
        <pt x="848" y="794" on="0"/>
        <pt x="807" y="756" on="0"/>
        <pt x="772" y="731" on="0"/>
        <pt x="761" y="731" on="1"/>
        <pt x="749" y="731" on="0"/>
        <pt x="722" y="769" on="0"/>
        <pt x="691" y="821" on="0"/>
        <pt x="653" y="877" on="0"/>
        <pt x="629" y="894" on="1"/>
        <pt x="545" y="280" on="1"/>
        <pt x="574" y="287" on="0"/>
        <pt x="631" y="316" on="0"/>
        <pt x="694" y="361" on="0"/>
        <pt x="767" y="421" on="0"/>
        <pt x="812" y="458" on="1"/>
        <pt x="816" y="452" on="0"/>
        <pt x="833" y="427" on="0"/>
        <pt x="851" y="402" on="0"/>
        <pt x="866" y="379" on="0"/>
        <pt x="868" y="375" on="1"/>
        <pt x="811" y="322" on="0"/>
        <pt x="717" y="241" on="0"/>
        <pt x="635" y="180" on="0"/>
        <pt x="561" y="139" on="0"/>
        <pt x="524" y="127" on="1"/>
        <pt x="508" y="12" on="1"/>
        <pt x="499" y="4" on="0"/>
        <pt x="471" y="-14" on="0"/>
        <pt x="441" y="-31" on="0"/>
        <pt x="411" y="-45" on="0"/>
        <pt x="399" y="-49" on="1"/>
        <pt x="380" y="-27" on="1"/>
        <pt x="399" y="111" on="1"/>
        <pt x="353" y="112" on="0"/>
        <pt x="243" y="148" on="0"/>
        <pt x="148" y="230" on="0"/>
        <pt x="84" y="368" on="0"/>
        <pt x="84" y="471" on="1"/>
        <pt x="84" y="538" on="0"/>
        <pt x="125" y="675" on="0"/>
        <pt x="203" y="805" on="0"/>
        <pt x="317" y="924" on="0"/>
        <pt x="391" y="973" on="1"/>
        <pt x="421" y="992" on="0"/>
        <pt x="487" y="1024" on="0"/>
        <pt x="526" y="1035" on="1"/>
        <pt x="543" y="1156" on="1"/>
        <pt x="569" y="1174" on="0"/>
        <pt x="623" y="1209" on="0"/>
        <pt x="651" y="1217" on="1"/>
        <pt x="671" y="1194" on="1"/>
      </contour>
      <contour>
        <pt x="340" y="510" on="1"/>
        <pt x="340" y="423" on="0"/>
        <pt x="389" y="320" on="0"/>
        <pt x="424" y="297" on="1"/>
        <pt x="506" y="892" on="1"/>
        <pt x="468" y="871" on="0"/>
        <pt x="406" y="788" on="0"/>
        <pt x="363" y="684" on="0"/>
        <pt x="340" y="567" on="0"/>
      </contour>
    </TTGlyph>
    <TTGlyph name="circumflex" xMin="113" yMin="1016" xMax="772" yMax="1462">
      <contour>
        <pt x="772" y="1081" on="1"/>
        <pt x="758" y="1061" on="0"/>
        <pt x="712" y="1024" on="0"/>
        <pt x="696" y="1016" on="1"/>
        <pt x="467" y="1231" on="1"/>
        <pt x="175" y="1016" on="1"/>
        <pt x="170" y="1019" on="0"/>
        <pt x="154" y="1032" on="0"/>
        <pt x="135" y="1050" on="0"/>
        <pt x="118" y="1071" on="0"/>
        <pt x="113" y="1081" on="1"/>
        <pt x="417" y="1462" on="1"/>
        <pt x="569" y="1462" on="1"/>
      </contour>
    </TTGlyph>
    <TTGlyph name="colon" xMin="41" yMin="-31" xMax="466" yMax="961">
      <contour>
        <pt x="466" y="847" on="1"/>
        <pt x="466" y="812" on="0"/>
        <pt x="441" y="740" on="0"/>
        <pt x="391" y="682" on="0"/>
        <pt x="317" y="644" on="0"/>
        <pt x="268" y="644" on="1"/>
        <pt x="198" y="644" on="0"/>
        <pt x="134" y="710" on="0"/>
        <pt x="134" y="763" on="1"/>
        <pt x="134" y="796" on="0"/>
        <pt x="162" y="866" on="0"/>
        <pt x="213" y="924" on="0"/>
        <pt x="287" y="961" on="0"/>
        <pt x="334" y="961" on="1"/>
        <pt x="401" y="961" on="0"/>
        <pt x="466" y="896" on="0"/>
      </contour>
      <contour>
        <pt x="373" y="172" on="1"/>
        <pt x="373" y="137" on="0"/>
        <pt x="348" y="65" on="0"/>
        <pt x="298" y="7" on="0"/>
        <pt x="224" y="-31" on="0"/>
        <pt x="175" y="-31" on="1"/>
        <pt x="105" y="-31" on="0"/>
        <pt x="41" y="35" on="0"/>
        <pt x="41" y="88" on="1"/>
        <pt x="41" y="121" on="0"/>
        <pt x="69" y="191" on="0"/>
        <pt x="120" y="249" on="0"/>
        <pt x="194" y="286" on="0"/>
        <pt x="241" y="286" on="1"/>
        <pt x="308" y="286" on="0"/>
        <pt x="373" y="221" on="0"/>
      </contour>
    </TTGlyph>
    <TTGlyph name="comma" xMin="-10" yMin="-395" xMax="399" yMax="269">
      <contour>
        <pt x="399" y="122" on="1"/>
        <pt x="399" y="76" on="0"/>
        <pt x="367" y="-25" on="0"/>
        <pt x="314" y="-126" on="0"/>
        <pt x="244" y="-222" on="0"/>
        <pt x="167" y="-307" on="0"/>
        <pt x="89" y="-374" on="0"/>
        <pt x="54" y="-395" on="1"/>
        <pt x="-10" y="-340" on="1"/>
        <pt x="28" y="-300" on="0"/>
        <pt x="86" y="-216" on="0"/>
        <pt x="124" y="-135" on="0"/>
        <pt x="143" y="-61" on="0"/>
        <pt x="143" y="-30" on="1"/>
        <pt x="143" y="-12" on="0"/>
        <pt x="129" y="26" on="0"/>
        <pt x="101" y="56" on="0"/>
        <pt x="59" y="74" on="0"/>
        <pt x="30" y="71" on="1"/>
        <pt x="27" y="159" on="1"/>
        <pt x="39" y="169" on="0"/>
        <pt x="84" y="193" on="0"/>
        <pt x="140" y="218" on="0"/>
        <pt x="202" y="240" on="0"/>
        <pt x="260" y="258" on="0"/>
        <pt x="310" y="269" on="0"/>
        <pt x="326" y="269" on="1"/>
        <pt x="361" y="249" on="0"/>
        <pt x="399" y="184" on="0"/>
      </contour>
    </TTGlyph>
    <TTGlyph name="copyright" xMin="74" yMin="-51" xMax="1300" yMax="1310">
      <contour>
        <pt x="1054" y="942" on="1"/>
        <pt x="1039" y="930" on="0"/>
        <pt x="987" y="889" on="0"/>
        <pt x="933" y="850" on="0"/>
        <pt x="886" y="822" on="0"/>
        <pt x="875" y="822" on="1"/>
        <pt x="861" y="822" on="0"/>
        <pt x="830" y="860" on="0"/>
        <pt x="794" y="905" on="0"/>
        <pt x="751" y="943" on="0"/>
        <pt x="725" y="943" on="1"/>
        <pt x="690" y="943" on="0"/>
        <pt x="632" y="908" on="0"/>
        <pt x="584" y="848" on="0"/>
        <pt x="548" y="771" on="0"/>
        <pt x="524" y="685" on="0"/>
        <pt x="511" y="598" on="0"/>
        <pt x="511" y="559" on="1"/>
        <pt x="511" y="502" on="0"/>
        <pt x="541" y="428" on="0"/>
        <pt x="592" y="383" on="0"/>
        <pt x="657" y="365" on="0"/>
        <pt x="692" y="365" on="1"/>
        <pt x="717" y="365" on="0"/>
        <pt x="772" y="380" on="0"/>
        <pt x="835" y="413" on="0"/>
        <pt x="907" y="466" on="0"/>
        <pt x="948" y="504" on="1"/>
        <pt x="952" y="499" on="0"/>
        <pt x="966" y="480" on="0"/>
        <pt x="981" y="459" on="0"/>
        <pt x="994" y="442" on="0"/>
        <pt x="996" y="438" on="1"/>
        <pt x="932" y="378" on="0"/>
        <pt x="826" y="295" on="0"/>
        <pt x="732" y="245" on="0"/>
        <pt x="645" y="223" on="0"/>
        <pt x="600" y="223" on="1"/>
        <pt x="554" y="223" on="0"/>
        <pt x="451" y="252" on="0"/>
        <pt x="364" y="321" on="0"/>
        <pt x="306" y="438" on="0"/>
        <pt x="306" y="526" on="1"/>
        <pt x="306" y="573" on="0"/>
        <pt x="325" y="679" on="0"/>
        <pt x="373" y="788" on="0"/>
        <pt x="456" y="896" on="0"/>
        <pt x="521" y="945" on="1"/>
        <pt x="544" y="963" on="0"/>
        <pt x="606" y="999" on="0"/>
        <pt x="680" y="1026" on="0"/>
        <pt x="764" y="1044" on="0"/>
        <pt x="809" y="1044" on="1"/>
        <pt x="857" y="1044" on="0"/>
        <pt x="933" y="1016" on="0"/>
        <pt x="992" y="980" on="0"/>
        <pt x="1036" y="946" on="0"/>
      </contour>
      <contour>
        <pt x="1180" y="719" on="1"/>
        <pt x="1180" y="820" on="0"/>
        <pt x="1120" y="991" on="0"/>
        <pt x="1011" y="1115" on="0"/>
        <pt x="858" y="1184" on="0"/>
        <pt x="766" y="1184" on="1"/>
        <pt x="685" y="1184" on="0"/>
        <pt x="538" y="1134" on="0"/>
        <pt x="410" y="1045" on="0"/>
        <pt x="306" y="924" on="0"/>
        <pt x="232" y="782" on="0"/>
        <pt x="192" y="625" on="0"/>
        <pt x="192" y="545" on="1"/>
        <pt x="192" y="443" on="0"/>
        <pt x="252" y="271" on="0"/>
        <pt x="362" y="146" on="0"/>
        <pt x="515" y="75" on="0"/>
        <pt x="608" y="75" on="1"/>
        <pt x="689" y="75" on="0"/>
        <pt x="837" y="125" on="0"/>
        <pt x="964" y="215" on="0"/>
        <pt x="1067" y="336" on="0"/>
        <pt x="1140" y="480" on="0"/>
        <pt x="1180" y="638" on="0"/>
      </contour>
      <contour>
        <pt x="1300" y="752" on="1"/>
        <pt x="1300" y="657" on="0"/>
        <pt x="1255" y="464" on="0"/>
        <pt x="1170" y="285" on="0"/>
        <pt x="1046" y="130" on="0"/>
        <pt x="889" y="15" on="0"/>
        <pt x="700" y="-51" on="0"/>
        <pt x="592" y="-51" on="1"/>
        <pt x="470" y="-51" on="0"/>
        <pt x="278" y="41" on="0"/>
        <pt x="144" y="199" on="0"/>
        <pt x="74" y="409" on="0"/>
        <pt x="74" y="526" on="1"/>
        <pt x="74" y="619" on="0"/>
        <pt x="121" y="808" on="0"/>
        <pt x="208" y="982" on="0"/>
        <pt x="333" y="1134" on="0"/>
        <pt x="490" y="1246" on="0"/>
        <pt x="676" y="1310" on="0"/>
        <pt x="780" y="1310" on="1"/>
        <pt x="902" y="1310" on="0"/>
        <pt x="1095" y="1222" on="0"/>
        <pt x="1229" y="1070" on="0"/>
        <pt x="1300" y="867" on="0"/>
      </contour>
    </TTGlyph>
    <TTGlyph name="currency" xMin="30" yMin="150" xMax="937" yMax="1053">
      <contour>
        <pt x="519" y="837" on="1"/>
        <pt x="473" y="837" on="0"/>
        <pt x="390" y="798" on="0"/>
        <pt x="324" y="732" on="0"/>
        <pt x="281" y="647" on="0"/>
        <pt x="275" y="601" on="1"/>
        <pt x="269" y="559" on="0"/>
        <pt x="288" y="476" on="0"/>
        <pt x="335" y="409" on="0"/>
        <pt x="407" y="367" on="0"/>
        <pt x="455" y="367" on="1"/>
        <pt x="501" y="367" on="0"/>
        <pt x="583" y="406" on="0"/>
        <pt x="648" y="472" on="0"/>
        <pt x="691" y="557" on="0"/>
        <pt x="697" y="602" on="1"/>
        <pt x="703" y="645" on="0"/>
        <pt x="684" y="727" on="0"/>
        <pt x="638" y="793" on="0"/>
        <pt x="566" y="835" on="0"/>
      </contour>
      <contour>
        <pt x="746" y="151" on="1"/>
        <pt x="633" y="298" on="1"/>
        <pt x="590" y="268" on="0"/>
        <pt x="492" y="234" on="0"/>
        <pt x="437" y="234" on="1"/>
        <pt x="380" y="234" on="0"/>
        <pt x="289" y="268" on="0"/>
        <pt x="254" y="300" on="1"/>
        <pt x="98" y="150" on="1"/>
        <pt x="57" y="153" on="1"/>
        <pt x="50" y="172" on="0"/>
        <pt x="35" y="217" on="0"/>
        <pt x="30" y="240" on="1"/>
        <pt x="187" y="391" on="1"/>
        <pt x="165" y="437" on="0"/>
        <pt x="149" y="542" on="0"/>
        <pt x="156" y="599" on="1"/>
        <pt x="164" y="654" on="0"/>
        <pt x="210" y="763" on="0"/>
        <pt x="245" y="811" on="1"/>
        <pt x="130" y="963" on="1"/>
        <pt x="140" y="1010" on="1"/>
        <pt x="158" y="1021" on="0"/>
        <pt x="202" y="1043" on="0"/>
        <pt x="224" y="1053" on="1"/>
        <pt x="338" y="903" on="1"/>
        <pt x="381" y="935" on="0"/>
        <pt x="481" y="972" on="0"/>
        <pt x="538" y="972" on="1"/>
        <pt x="591" y="972" on="0"/>
        <pt x="680" y="935" on="0"/>
        <pt x="715" y="903" on="1"/>
        <pt x="870" y="1052" on="1"/>
        <pt x="912" y="1053" on="1"/>
        <pt x="937" y="961" on="1"/>
        <pt x="783" y="811" on="1"/>
        <pt x="806" y="763" on="0"/>
        <pt x="825" y="655" on="0"/>
        <pt x="817" y="599" on="1"/>
        <pt x="809" y="543" on="0"/>
        <pt x="763" y="436" on="0"/>
        <pt x="727" y="389" on="1"/>
        <pt x="841" y="241" on="1"/>
        <pt x="835" y="193" on="1"/>
      </contour>
    </TTGlyph>
    <TTGlyph name="d" xMin="33" yMin="-41" xMax="1009" yMax="1520">
      <contour>
        <pt x="578" y="366" on="1"/>
        <pt x="588" y="434" on="0"/>
        <pt x="616" y="615" on="0"/>
        <pt x="632" y="714" on="1"/>
        <pt x="606" y="741" on="0"/>
        <pt x="550" y="781" on="0"/>
        <pt x="519" y="781" on="1"/>
        <pt x="478" y="781" on="0"/>
        <pt x="413" y="743" on="0"/>
        <pt x="362" y="680" on="0"/>
        <pt x="325" y="598" on="0"/>
        <pt x="301" y="509" on="0"/>
        <pt x="290" y="418" on="0"/>
        <pt x="290" y="379" on="1"/>
        <pt x="290" y="272" on="0"/>
        <pt x="340" y="176" on="0"/>
        <pt x="376" y="176" on="1"/>
        <pt x="386" y="176" on="0"/>
        <pt x="420" y="190" on="0"/>
        <pt x="470" y="232" on="0"/>
        <pt x="536" y="306" on="0"/>
      </contour>
      <contour>
        <pt x="1009" y="116" on="1"/>
        <pt x="967" y="87" on="0"/>
        <pt x="880" y="31" on="0"/>
        <pt x="802" y="-13" on="0"/>
        <pt x="737" y="-41" on="0"/>
        <pt x="716" y="-41" on="1"/>
        <pt x="699" y="-41" on="0"/>
        <pt x="655" y="-19" on="0"/>
        <pt x="612" y="32" on="0"/>
        <pt x="578" y="116" on="0"/>
        <pt x="571" y="178" on="1"/>
        <pt x="486" y="63" on="0"/>
        <pt x="330" y="-41" on="0"/>
        <pt x="266" y="-41" on="1"/>
        <pt x="225" y="-41" on="0"/>
        <pt x="142" y="0" on="0"/>
        <pt x="75" y="87" on="0"/>
        <pt x="33" y="222" on="0"/>
        <pt x="33" y="315" on="1"/>
        <pt x="33" y="394" on="0"/>
        <pt x="73" y="543" on="0"/>
        <pt x="150" y="678" on="0"/>
        <pt x="261" y="795" on="0"/>
        <pt x="332" y="842" on="1"/>
        <pt x="360" y="860" on="0"/>
        <pt x="429" y="893" on="0"/>
        <pt x="504" y="920" on="0"/>
        <pt x="584" y="936" on="0"/>
        <pt x="622" y="936" on="1"/>
        <pt x="632" y="936" on="0"/>
        <pt x="653" y="929" on="0"/>
        <pt x="665" y="924" on="1"/>
        <pt x="682" y="1034" on="0"/>
        <pt x="704" y="1216" on="0"/>
        <pt x="704" y="1266" on="1"/>
        <pt x="704" y="1289" on="0"/>
        <pt x="697" y="1316" on="0"/>
        <pt x="684" y="1329" on="0"/>
        <pt x="668" y="1333" on="0"/>
        <pt x="659" y="1333" on="1"/>
        <pt x="650" y="1333" on="0"/>
        <pt x="618" y="1324" on="0"/>
        <pt x="602" y="1319" on="1"/>
        <pt x="584" y="1313" on="0"/>
        <pt x="562" y="1306" on="1"/>
        <pt x="545" y="1385" on="1"/>
        <pt x="598" y="1411" on="0"/>
        <pt x="713" y="1460" on="0"/>
        <pt x="817" y="1497" on="0"/>
        <pt x="898" y="1520" on="0"/>
        <pt x="918" y="1520" on="1"/>
        <pt x="953" y="1520" on="0"/>
        <pt x="993" y="1484" on="0"/>
        <pt x="993" y="1438" on="1"/>
        <pt x="993" y="1399" on="0"/>
        <pt x="979" y="1277" on="0"/>
        <pt x="956" y="1126" on="0"/>
        <pt x="927" y="955" on="0"/>
        <pt x="896" y="782" on="0"/>
        <pt x="867" y="614" on="0"/>
        <pt x="844" y="468" on="0"/>
        <pt x="830" y="353" on="0"/>
        <pt x="830" y="319" on="1"/>
        <pt x="830" y="244" on="0"/>
        <pt x="862" y="168" on="0"/>
        <pt x="885" y="168" on="1"/>
        <pt x="910" y="168" on="0"/>
        <pt x="956" y="179" on="0"/>
        <pt x="991" y="194" on="1"/>
      </contour>
    </TTGlyph>
    <TTGlyph name="dagger" xMin="133" yMin="-40" xMax="987" yMax="1480">
      <contour>
        <pt x="987" y="1124" on="1"/>
        <pt x="978" y="1107" on="0"/>
        <pt x="935" y="1034" on="0"/>
        <pt x="885" y="952" on="0"/>
        <pt x="837" y="876" on="0"/>
        <pt x="823" y="857" on="1"/>
        <pt x="796" y="878" on="0"/>
        <pt x="746" y="912" on="0"/>
        <pt x="694" y="936" on="0"/>
        <pt x="638" y="951" on="0"/>
        <pt x="604" y="955" on="1"/>
        <pt x="600" y="888" on="0"/>
        <pt x="619" y="746" on="0"/>
        <pt x="643" y="680" on="1"/>
        <pt x="589" y="569" on="0"/>
        <pt x="524" y="376" on="0"/>
        <pt x="510" y="280" on="1"/>
        <pt x="501" y="222" on="0"/>
        <pt x="511" y="110" on="0"/>
        <pt x="534" y="49" on="1"/>
        <pt x="525" y="42" on="0"/>
        <pt x="470" y="16" on="0"/>
        <pt x="407" y="-13" on="0"/>
        <pt x="350" y="-36" on="0"/>
        <pt x="339" y="-40" on="1"/>
        <pt x="308" y="-9" on="1"/>
        <pt x="325" y="24" on="0"/>
        <pt x="357" y="100" on="0"/>
        <pt x="383" y="177" on="0"/>
        <pt x="401" y="250" on="0"/>
        <pt x="405" y="280" on="1"/>
        <pt x="411" y="329" on="0"/>
        <pt x="414" y="425" on="0"/>
        <pt x="408" y="523" on="0"/>
        <pt x="393" y="625" on="0"/>
        <pt x="382" y="680" on="1"/>
        <pt x="424" y="746" on="0"/>
        <pt x="479" y="888" on="0"/>
        <pt x="494" y="955" on="1"/>
        <pt x="326" y="939" on="0"/>
        <pt x="157" y="857" on="1"/>
        <pt x="133" y="910" on="1"/>
        <pt x="142" y="927" on="0"/>
        <pt x="185" y="1000" on="0"/>
        <pt x="236" y="1082" on="0"/>
        <pt x="284" y="1158" on="0"/>
        <pt x="298" y="1177" on="1"/>
        <pt x="324" y="1156" on="0"/>
        <pt x="373" y="1124" on="0"/>
        <pt x="424" y="1100" on="0"/>
        <pt x="479" y="1084" on="0"/>
        <pt x="512" y="1080" on="1"/>
        <pt x="514" y="1118" on="0"/>
        <pt x="509" y="1185" on="0"/>
        <pt x="496" y="1249" on="0"/>
        <pt x="474" y="1313" on="0"/>
        <pt x="459" y="1348" on="1"/>
        <pt x="478" y="1360" on="0"/>
        <pt x="552" y="1399" on="0"/>
        <pt x="631" y="1439" on="0"/>
        <pt x="702" y="1473" on="0"/>
        <pt x="718" y="1480" on="1"/>
        <pt x="760" y="1445" on="1"/>
        <pt x="660" y="1263" on="0"/>
        <pt x="622" y="1079" on="1"/>
        <pt x="708" y="1087" on="0"/>
        <pt x="878" y="1135" on="0"/>
        <pt x="964" y="1177" on="1"/>
      </contour>
    </TTGlyph>
    <TTGlyph name="daggerdbl" xMin="52" yMin="-40" xMax="987" yMax="1480">
      <contour>
        <pt x="987" y="1124" on="1"/>
        <pt x="978" y="1107" on="0"/>
        <pt x="935" y="1034" on="0"/>
        <pt x="885" y="952" on="0"/>
        <pt x="837" y="876" on="0"/>
        <pt x="823" y="857" on="1"/>
        <pt x="797" y="877" on="0"/>
        <pt x="747" y="909" on="0"/>
        <pt x="696" y="933" on="0"/>
        <pt x="639" y="950" on="0"/>
        <pt x="606" y="954" on="1"/>
        <pt x="604" y="896" on="0"/>
        <pt x="627" y="785" on="0"/>
        <pt x="650" y="720" on="1"/>
        <pt x="611" y="658" on="0"/>
        <pt x="559" y="541" on="0"/>
        <pt x="544" y="485" on="1"/>
        <pt x="629" y="493" on="0"/>
        <pt x="797" y="541" on="0"/>
        <pt x="882" y="583" on="1"/>
        <pt x="906" y="530" on="1"/>
        <pt x="897" y="513" on="0"/>
        <pt x="854" y="440" on="0"/>
        <pt x="804" y="358" on="0"/>
        <pt x="756" y="282" on="0"/>
        <pt x="742" y="263" on="1"/>
        <pt x="689" y="299" on="0"/>
        <pt x="590" y="351" on="0"/>
        <pt x="523" y="360" on="1"/>
        <pt x="520" y="318" on="0"/>
        <pt x="524" y="251" on="0"/>
        <pt x="538" y="190" on="0"/>
        <pt x="562" y="128" on="0"/>
        <pt x="577" y="92" on="1"/>
        <pt x="558" y="80" on="0"/>
        <pt x="485" y="41" on="0"/>
        <pt x="406" y="1" on="0"/>
        <pt x="335" y="-33" on="0"/>
        <pt x="319" y="-40" on="1"/>
        <pt x="276" y="-5" on="1"/>
        <pt x="328" y="88" on="0"/>
        <pt x="398" y="264" on="0"/>
        <pt x="416" y="360" on="1"/>
        <pt x="331" y="352" on="0"/>
        <pt x="161" y="302" on="0"/>
        <pt x="76" y="263" on="1"/>
        <pt x="52" y="316" on="1"/>
        <pt x="61" y="333" on="0"/>
        <pt x="104" y="406" on="0"/>
        <pt x="154" y="488" on="0"/>
        <pt x="202" y="564" on="0"/>
        <pt x="216" y="583" on="1"/>
        <pt x="242" y="562" on="0"/>
        <pt x="291" y="530" on="0"/>
        <pt x="342" y="505" on="0"/>
        <pt x="397" y="489" on="0"/>
        <pt x="430" y="485" on="1"/>
        <pt x="431" y="541" on="0"/>
        <pt x="411" y="658" on="0"/>
        <pt x="389" y="720" on="1"/>
        <pt x="430" y="786" on="0"/>
        <pt x="482" y="897" on="0"/>
        <pt x="496" y="955" on="1"/>
        <pt x="411" y="947" on="0"/>
        <pt x="242" y="896" on="0"/>
        <pt x="157" y="857" on="1"/>
        <pt x="133" y="910" on="1"/>
        <pt x="142" y="927" on="0"/>
        <pt x="185" y="1000" on="0"/>
        <pt x="236" y="1082" on="0"/>
        <pt x="284" y="1158" on="0"/>
        <pt x="298" y="1177" on="1"/>
        <pt x="324" y="1156" on="0"/>
        <pt x="374" y="1123" on="0"/>
        <pt x="425" y="1099" on="0"/>
        <pt x="481" y="1084" on="0"/>
        <pt x="514" y="1080" on="1"/>
        <pt x="516" y="1120" on="0"/>
        <pt x="510" y="1188" on="0"/>
        <pt x="496" y="1250" on="0"/>
        <pt x="474" y="1312" on="0"/>
        <pt x="461" y="1348" on="1"/>
        <pt x="480" y="1360" on="0"/>
        <pt x="554" y="1399" on="0"/>
        <pt x="633" y="1439" on="0"/>
        <pt x="703" y="1473" on="0"/>
        <pt x="719" y="1480" on="1"/>
        <pt x="762" y="1445" on="1"/>
        <pt x="714" y="1354" on="0"/>
        <pt x="643" y="1174" on="0"/>
        <pt x="623" y="1079" on="1"/>
        <pt x="709" y="1087" on="0"/>
        <pt x="879" y="1135" on="0"/>
        <pt x="964" y="1177" on="1"/>
      </contour>
    </TTGlyph>
    <TTGlyph name="dcroat" xMin="33" yMin="-41" xMax="1127" yMax="1520">
      <contour>
        <pt x="578" y="366" on="1"/>
        <pt x="588" y="434" on="0"/>
        <pt x="616" y="615" on="0"/>
        <pt x="632" y="714" on="1"/>
        <pt x="606" y="741" on="0"/>
        <pt x="550" y="781" on="0"/>
        <pt x="519" y="781" on="1"/>
        <pt x="478" y="781" on="0"/>
        <pt x="413" y="743" on="0"/>
        <pt x="362" y="680" on="0"/>
        <pt x="325" y="598" on="0"/>
        <pt x="301" y="509" on="0"/>
        <pt x="290" y="418" on="0"/>
        <pt x="290" y="379" on="1"/>
        <pt x="290" y="272" on="0"/>
        <pt x="340" y="176" on="0"/>
        <pt x="376" y="176" on="1"/>
        <pt x="386" y="176" on="0"/>
        <pt x="420" y="190" on="0"/>
        <pt x="470" y="232" on="0"/>
        <pt x="536" y="306" on="0"/>
      </contour>
      <contour>
        <pt x="1009" y="116" on="1"/>
        <pt x="967" y="87" on="0"/>
        <pt x="880" y="31" on="0"/>
        <pt x="802" y="-13" on="0"/>
        <pt x="737" y="-41" on="0"/>
        <pt x="716" y="-41" on="1"/>
        <pt x="699" y="-41" on="0"/>
        <pt x="655" y="-19" on="0"/>
        <pt x="612" y="32" on="0"/>
        <pt x="578" y="116" on="0"/>
        <pt x="571" y="178" on="1"/>
        <pt x="486" y="63" on="0"/>
        <pt x="330" y="-41" on="0"/>
        <pt x="266" y="-41" on="1"/>
        <pt x="225" y="-41" on="0"/>
        <pt x="142" y="0" on="0"/>
        <pt x="75" y="87" on="0"/>
        <pt x="33" y="222" on="0"/>
        <pt x="33" y="315" on="1"/>
        <pt x="33" y="394" on="0"/>
        <pt x="73" y="543" on="0"/>
        <pt x="150" y="678" on="0"/>
        <pt x="261" y="795" on="0"/>
        <pt x="332" y="842" on="1"/>
        <pt x="360" y="860" on="0"/>
        <pt x="429" y="893" on="0"/>
        <pt x="504" y="920" on="0"/>
        <pt x="584" y="936" on="0"/>
        <pt x="622" y="936" on="1"/>
        <pt x="632" y="936" on="0"/>
        <pt x="653" y="929" on="0"/>
        <pt x="665" y="924" on="1"/>
        <pt x="670" y="962" on="0"/>
        <pt x="681" y="1035" on="0"/>
        <pt x="686" y="1070" on="1"/>
        <pt x="419" y="1070" on="1"/>
        <pt x="390" y="1102" on="1"/>
        <pt x="393" y="1110" on="0"/>
        <pt x="408" y="1137" on="0"/>
        <pt x="424" y="1165" on="0"/>
        <pt x="439" y="1192" on="0"/>
        <pt x="444" y="1200" on="1"/>
        <pt x="700" y="1200" on="1"/>
        <pt x="702" y="1219" on="0"/>
        <pt x="704" y="1252" on="0"/>
        <pt x="704" y="1266" on="1"/>
        <pt x="704" y="1289" on="0"/>
        <pt x="697" y="1316" on="0"/>
        <pt x="684" y="1329" on="0"/>
        <pt x="668" y="1333" on="0"/>
        <pt x="659" y="1333" on="1"/>
        <pt x="650" y="1333" on="0"/>
        <pt x="618" y="1324" on="0"/>
        <pt x="602" y="1319" on="1"/>
        <pt x="584" y="1313" on="0"/>
        <pt x="562" y="1306" on="1"/>
        <pt x="545" y="1385" on="1"/>
        <pt x="598" y="1411" on="0"/>
        <pt x="713" y="1460" on="0"/>
        <pt x="817" y="1497" on="0"/>
        <pt x="898" y="1520" on="0"/>
        <pt x="918" y="1520" on="1"/>
        <pt x="953" y="1520" on="0"/>
        <pt x="993" y="1484" on="0"/>
        <pt x="993" y="1438" on="1"/>
        <pt x="993" y="1399" on="0"/>
        <pt x="979" y="1276" on="0"/>
        <pt x="967" y="1200" on="1"/>
        <pt x="1098" y="1200" on="1"/>
        <pt x="1127" y="1165" on="1"/>
        <pt x="1073" y="1070" on="1"/>
        <pt x="946" y="1070" on="1"/>
        <pt x="934" y="998" on="0"/>
        <pt x="907" y="847" on="0"/>
        <pt x="882" y="700" on="0"/>
        <pt x="858" y="561" on="0"/>
        <pt x="841" y="442" on="0"/>
        <pt x="830" y="348" on="0"/>
        <pt x="830" y="319" on="1"/>
        <pt x="830" y="244" on="0"/>
        <pt x="862" y="168" on="0"/>
        <pt x="885" y="168" on="1"/>
        <pt x="910" y="168" on="0"/>
        <pt x="956" y="179" on="0"/>
        <pt x="991" y="194" on="1"/>
      </contour>
    </TTGlyph>
    <TTGlyph name="degree" xMin="188" yMin="729" xMax="684" yMax="1265">
      <contour>
        <pt x="422" y="881" on="1"/>
        <pt x="446" y="881" on="0"/>
        <pt x="485" y="906" on="0"/>
        <pt x="513" y="945" on="0"/>
        <pt x="529" y="994" on="0"/>
        <pt x="529" y="1018" on="1"/>
        <pt x="529" y="1034" on="0"/>
        <pt x="520" y="1068" on="0"/>
        <pt x="501" y="1095" on="0"/>
        <pt x="472" y="1112" on="0"/>
        <pt x="453" y="1112" on="1"/>
        <pt x="434" y="1112" on="0"/>
        <pt x="395" y="1091" on="0"/>
        <pt x="364" y="1054" on="0"/>
        <pt x="344" y="1004" on="0"/>
        <pt x="344" y="976" on="1"/>
        <pt x="344" y="929" on="0"/>
        <pt x="391" y="881" on="0"/>
      </contour>
      <contour>
        <pt x="684" y="1073" on="1"/>
        <pt x="684" y="999" on="0"/>
        <pt x="623" y="873" on="0"/>
        <pt x="529" y="781" on="0"/>
        <pt x="415" y="729" on="0"/>
        <pt x="363" y="729" on="1"/>
        <pt x="315" y="729" on="0"/>
        <pt x="248" y="763" on="0"/>
        <pt x="206" y="817" on="0"/>
        <pt x="188" y="885" on="0"/>
        <pt x="188" y="918" on="1"/>
        <pt x="188" y="987" on="0"/>
        <pt x="247" y="1113" on="0"/>
        <pt x="340" y="1209" on="0"/>
        <pt x="454" y="1265" on="0"/>
        <pt x="509" y="1265" on="1"/>
        <pt x="552" y="1265" on="0"/>
        <pt x="618" y="1233" on="0"/>
        <pt x="662" y="1180" on="0"/>
        <pt x="684" y="1110" on="0"/>
      </contour>
    </TTGlyph>
    <TTGlyph name="dieresis" xMin="273" yMin="1076" xMax="938" yMax="1383">
      <contour>
        <pt x="546" y="1272" on="1"/>
        <pt x="546" y="1240" on="0"/>
        <pt x="523" y="1171" on="0"/>
        <pt x="479" y="1114" on="0"/>
        <pt x="415" y="1076" on="0"/>
        <pt x="375" y="1076" on="1"/>
        <pt x="348" y="1076" on="0"/>
        <pt x="310" y="1095" on="0"/>
        <pt x="285" y="1126" on="0"/>
        <pt x="273" y="1165" on="0"/>
        <pt x="273" y="1186" on="1"/>
        <pt x="273" y="1216" on="0"/>
        <pt x="296" y="1286" on="0"/>
        <pt x="339" y="1344" on="0"/>
        <pt x="402" y="1383" on="0"/>
        <pt x="442" y="1383" on="1"/>
        <pt x="469" y="1383" on="0"/>
        <pt x="508" y="1364" on="0"/>
        <pt x="533" y="1332" on="0"/>
        <pt x="546" y="1293" on="0"/>
      </contour>
      <contour>
        <pt x="938" y="1272" on="1"/>
        <pt x="938" y="1240" on="0"/>
        <pt x="915" y="1171" on="0"/>
        <pt x="871" y="1114" on="0"/>
        <pt x="807" y="1076" on="0"/>
        <pt x="767" y="1076" on="1"/>
        <pt x="740" y="1076" on="0"/>
        <pt x="702" y="1095" on="0"/>
        <pt x="677" y="1126" on="0"/>
        <pt x="665" y="1165" on="0"/>
        <pt x="665" y="1186" on="1"/>
        <pt x="665" y="1216" on="0"/>
        <pt x="688" y="1286" on="0"/>
        <pt x="731" y="1344" on="0"/>
        <pt x="794" y="1383" on="0"/>
        <pt x="834" y="1383" on="1"/>
        <pt x="861" y="1383" on="0"/>
        <pt x="900" y="1364" on="0"/>
        <pt x="925" y="1332" on="0"/>
        <pt x="938" y="1293" on="0"/>
      </contour>
    </TTGlyph>
</ttFont>
